<svg width="181" height="24" viewBox="0 0 181 24" fill="none" xmlns="http://www.w3.org/2000/svg">
<path fill-rule="evenodd" clip-rule="evenodd" d="M118.515 0.141956C118.465 0.20968 117.023 0.270694 115.31 0.278041C113.106 0.287306 112.196 0.400072 112.193 0.66362C112.191 0.93771 112.144 0.940265 112.015 0.673842C111.905 0.445114 111.23 0.346724 110.18 0.406461C108.24 0.516672 106.861 0.562035 106.444 0.529132C106.069 0.499742 98.0805 0.854013 98.0805 0.900014C98.0805 0.918862 97.4933 0.975406 96.7756 1.02588C94.9946 1.1511 95.046 1.12715 95.2112 1.75455C95.3236 2.18166 95.2596 2.15354 94.94 1.63635C94.619 1.1166 94.3286 0.991378 93.6913 1.09808C93.2346 1.17442 92.4607 1.25173 91.9713 1.26994C91.4007 1.29102 91.0816 1.45554 91.0816 1.72835C91.0816 2.23373 90.683 2.30049 90.5627 1.81525C90.5167 1.62869 90.1608 1.48557 89.7719 1.49707C87.3973 1.56671 86.9121 1.64114 86.7553 1.95932C86.6336 2.20657 86.58 2.19316 86.5773 1.91428C86.575 1.63412 86.0893 1.51496 84.9526 1.51496C84.0608 1.51496 83.2629 1.60696 83.1794 1.71941C83.0959 1.83186 82.0907 1.97305 80.9455 2.03343C76.3475 2.27494 75.4249 2.39281 75.0756 2.78318C74.8751 3.00712 74.7112 3.05983 74.7112 2.90042C74.7112 2.7407 74.5098 2.61036 74.2637 2.61036C73.9964 2.61036 73.8633 2.77584 73.9332 3.02086C74.092 3.57862 73.8749 3.53773 73.4194 2.92438C73.0808 2.46852 72.9375 2.46501 72.011 2.8902C71.4411 3.15151 70.8421 3.24895 70.6725 3.10775C70.5033 2.96687 70.2487 2.91065 70.1064 2.98284C69.964 3.05472 69.2603 3.17675 68.5426 3.25374C65.7834 3.55019 64.3774 3.76869 64.0349 3.95493C63.8391 4.06099 63.1293 4.12073 62.4574 4.08751C61.7855 4.05428 61.1741 4.16162 61.0989 4.3255C61.0234 4.4897 60.7048 4.55774 60.3902 4.4766C60.0758 4.39578 59.2039 4.50152 58.4523 4.7114C57.701 4.9216 56.5944 5.14777 55.9934 5.21421C55.3925 5.28066 54.5804 5.40876 54.1889 5.49885C53.7974 5.58893 52.8366 5.74163 52.0536 5.83842C49.6019 6.14062 45.7575 6.91817 45.4478 7.17437C45.3378 7.2651 44.6972 7.38489 44.0243 7.44015C42.5024 7.56538 41.8986 7.74619 41.0091 8.34357C40.6096 8.61191 40.3097 8.67484 40.3097 8.49019C40.3097 8.10749 38.3327 8.47805 38.2183 8.88216C38.1773 9.02719 37.9905 9.0668 37.8031 8.97001C37.5851 8.85724 37.4627 9.00068 37.4627 9.36837C37.4627 9.91399 37.4468 9.91335 37.1428 9.35367C36.9341 8.96969 36.711 8.85788 36.5011 9.03262C36.3241 9.17989 35.8541 9.34792 35.4567 9.40638C35.0593 9.46452 34.7006 9.64629 34.6591 9.81017C34.6149 9.98555 34.3649 9.99609 34.0519 9.83573C33.5677 9.58783 31.6199 10.0558 30.5824 10.6695C30.3866 10.7851 30.0822 10.8474 29.9062 10.8081C29.7067 10.7634 29.6542 10.8854 29.7672 11.1314C29.8995 11.4202 29.8262 11.4579 29.4943 11.271C28.8359 10.9005 27.541 11.0522 26.7681 11.5905C26.3996 11.847 25.7609 12.0569 25.3488 12.0569C24.9365 12.0569 23.7301 12.3418 22.6679 12.69C21.6055 13.0379 20.4429 13.4002 20.084 13.4947C19.6965 13.5966 19.4315 13.8742 19.4315 14.1784C19.4315 14.6039 19.3694 14.6214 19.0657 14.2819C18.7883 13.972 18.6329 13.9627 18.4251 14.2426C18.274 14.4461 17.8986 14.6125 17.5912 14.6125C16.5238 14.6125 14.9237 15.3172 14.9237 15.7874C14.9237 16.0532 14.8084 16.1513 14.6504 16.02C14.5002 15.8951 14.2333 16.0577 14.0573 16.3816C13.8815 16.7059 13.7375 16.7995 13.7375 16.5902C13.7375 16.381 13.4706 16.2098 13.1443 16.2098C12.8181 16.2098 12.5512 16.3688 12.5512 16.5634C12.5512 16.7579 12.3825 16.8298 12.1766 16.7234C11.5042 16.3759 10.6539 16.864 10.6456 17.6019C10.6383 18.2725 10.6311 18.2737 10.2897 17.6661C9.94501 17.0521 9.94145 17.0521 9.93789 17.6661C9.93504 18.1242 9.88214 18.1757 9.73504 17.8632C9.57229 17.5179 9.36635 17.5387 8.61165 17.9773C8.10346 18.2728 7.20712 18.7024 6.61993 18.9324C4.1786 19.8879 3.29911 20.5252 3.4697 21.2146C3.51976 21.4165 3.43173 21.689 3.2742 21.8203C3.09223 21.9717 3.04952 21.9241 3.15723 21.6899C3.69508 20.5176 1.91475 20.7872 1.12399 21.9976C0.892191 22.3525 0.693138 22.4573 0.642128 22.2512C0.594441 22.0583 0.403453 22.2825 0.217685 22.7496C-0.0712881 23.4763 -0.0719995 23.6386 0.212228 23.875C0.692189 24.2743 1.3973 23.661 1.41699 22.8272C1.4317 22.2075 1.45495 22.1918 1.60418 22.7023C1.80656 23.3933 2.10099 23.4552 2.37857 22.8655C2.51523 22.5752 2.58048 22.5605 2.58309 22.8195C2.5857 23.0952 2.76624 23.0738 3.23909 22.7416C3.59805 22.4895 4.07848 22.2825 4.30672 22.2813C4.53496 22.2803 4.72191 22.0682 4.72191 21.8101C4.72191 21.5245 4.86094 21.413 5.07779 21.5248C5.27352 21.6261 5.62038 21.6024 5.84886 21.4727C6.07709 21.3427 6.52929 21.1897 6.85362 21.1328C7.71603 20.9811 8.55139 20.3016 8.42399 19.855C8.35993 19.6304 8.48116 19.502 8.71225 19.5499C8.93171 19.5953 9.18367 19.4014 9.2724 19.119C9.41262 18.6724 9.43587 18.6794 9.45034 19.1723C9.46362 19.626 9.62045 19.7093 10.238 19.5908C12.2919 19.1966 14.1835 18.1632 14.0238 17.523C13.9465 17.2128 14.0117 17.162 14.2405 17.3543C14.686 17.7287 15.2013 17.8118 15.5033 17.5575C15.6412 17.4416 15.9676 17.3298 16.2286 17.3093C16.6308 17.2774 18.3504 16.7975 20.855 16.0181C21.1813 15.9168 21.7151 15.7533 22.0413 15.6545C22.3675 15.5562 22.713 15.3175 22.8088 15.1239C22.9274 14.8847 22.9841 14.9057 22.9867 15.1904C22.9886 15.4204 23.1063 15.5121 23.2482 15.3939C23.3901 15.276 23.4544 14.9128 23.3913 14.5873C23.2641 13.9333 23.6278 13.9062 24.1286 14.5326C24.5213 15.0239 24.8608 15.031 26.2067 14.5745C26.7866 14.378 27.2608 14.0314 27.2608 13.8043C27.2608 13.3845 27.8245 13.3484 28.1218 13.7487C28.2115 13.8694 28.4281 13.8078 28.6032 13.6123C28.8383 13.3494 28.9216 13.3532 28.9216 13.6263C28.9216 13.8793 29.0526 13.9017 29.3368 13.6969C29.8196 13.3494 30.9854 13.0347 32.437 12.8613C33.0002 12.7935 33.5993 12.5843 33.7679 12.3955C33.9369 12.207 34.5435 11.9959 35.1162 11.9269C35.6892 11.8575 36.238 11.7866 36.3357 11.769C36.4335 11.7518 36.5212 11.486 36.5303 11.1784C36.544 10.7209 36.5763 10.7062 36.7082 11.0985C36.8695 11.5774 37.9474 11.7122 38.6489 11.341C39.1488 11.0765 41.1033 10.7244 42.9 10.5753C43.7375 10.5056 44.5494 10.3072 44.7041 10.1344C44.8587 9.96159 45.2412 9.83285 45.5539 9.8485C46.4683 9.89387 50.615 9.14922 50.7469 8.91602C50.8131 8.79847 51.1343 8.70455 51.4605 8.70678C51.7867 8.70934 52.2406 8.50745 52.4688 8.25795C52.7865 7.91135 52.884 7.90049 52.884 8.21131C52.884 8.48572 53.057 8.54482 53.4178 8.39404C53.7116 8.27105 54.2907 8.18608 54.7049 8.20524C55.1192 8.22441 55.5261 8.09216 55.6089 7.91167C55.7083 7.69508 55.9061 7.68837 56.1887 7.89186C56.4248 8.06181 56.6917 8.10142 56.7818 7.97971C56.8722 7.85832 57.3935 7.71776 57.9401 7.66793C59.5109 7.52417 61.2956 7.31237 61.4251 7.25391C61.4903 7.22452 61.8906 7.2258 62.3148 7.25711C62.7568 7.28969 63.0859 7.15936 63.0859 6.95139C63.0859 6.75174 63.1926 6.6773 63.3231 6.78592C63.4536 6.89453 63.5604 6.83096 63.5604 6.64504C63.5604 6.45912 63.6735 6.30674 63.8116 6.30674C63.9497 6.30674 63.9969 6.45049 63.9162 6.62619C63.8356 6.80189 63.9895 6.94564 64.2581 6.94564C64.5267 6.94564 64.7466 6.83703 64.7466 6.70446C64.7466 6.57157 65.4674 6.44986 66.3481 6.43388C67.2287 6.41759 68.3766 6.29716 68.8985 6.16618C69.4205 6.03552 70.0936 5.94065 70.3944 5.95566C70.733 5.97259 70.8803 5.84992 70.7809 5.63397C70.6658 5.38288 70.7579 5.38352 71.1083 5.63589C71.6649 6.03712 73.7622 6.11603 73.7622 5.73588C73.7622 5.34711 74.7707 5.33656 75.1155 5.72182C75.319 5.94927 75.423 5.95439 75.423 5.73684C75.423 5.55603 75.6365 5.48351 75.8975 5.57519C76.1584 5.6672 76.372 5.61768 76.372 5.46562C76.372 5.31324 77.1179 5.20751 78.0294 5.23083C79.2064 5.26086 79.6403 5.16821 79.526 4.91137C79.4375 4.71236 79.5457 4.74718 79.7666 4.98804C79.9874 5.22923 80.1682 5.30111 80.1682 5.14777C80.1685 4.99475 80.8814 4.86442 81.7526 4.85835C82.8081 4.851 83.3699 4.71331 83.4361 4.44561C83.5125 4.13766 83.6133 4.13095 83.8684 4.4159C84.0516 4.62035 84.2029 4.6622 84.2048 4.50886C84.207 4.35585 84.3061 4.43763 84.4252 4.69127C84.5987 5.06056 84.7602 5.07973 85.2362 4.78775C85.6893 4.50982 85.8582 4.51398 85.947 4.80595C86.0226 5.05513 86.1315 5.07717 86.2592 4.86921C86.3669 4.69351 86.9356 4.54017 87.5228 4.52867C88.11 4.51717 88.8573 4.4274 89.1836 4.32933C89.5098 4.23126 89.9079 4.29164 90.0683 4.46382C90.2588 4.66795 90.5926 4.66731 91.0303 4.4619C91.399 4.28908 92.1627 4.20347 92.7276 4.27183C93.2925 4.34051 94.0897 4.27183 94.4994 4.11977C94.9089 3.96739 95.4698 3.95525 95.7457 4.09294C96.1749 4.30665 96.2311 4.24212 96.135 3.64762C96.0482 3.10998 96.0771 3.05631 96.2627 3.41155C96.559 3.97857 97.9604 4.17152 97.9654 3.64634C97.9676 3.42975 98.066 3.47384 98.1991 3.75112C98.3256 4.01467 98.4307 4.10476 98.4328 3.95174C98.4347 3.7984 98.587 3.84121 98.7711 4.04694C99.1545 4.47532 99.5197 3.98273 99.2516 3.39845C99.1626 3.20454 99.3723 3.29527 99.7178 3.60002C100.288 4.10284 100.81 4.13095 105.382 3.90382C108.151 3.76614 110.658 3.6604 110.951 3.6687C111.245 3.67669 111.485 3.55498 111.485 3.39781C111.485 3.24064 111.652 3.11222 111.855 3.11222C112.058 3.11222 112.164 3.24383 112.091 3.40452C111.898 3.8246 114.772 3.60673 115.091 3.17707C115.262 2.94674 115.498 2.9263 115.765 3.11893C115.991 3.28185 116.535 3.41985 116.974 3.4256C117.413 3.43167 118.226 3.47129 118.781 3.51377C119.543 3.57255 119.79 3.47448 119.793 3.11222C119.795 2.75795 119.845 2.73591 119.982 3.02757C120.18 3.44733 121.244 3.48247 127.856 3.2892C132.24 3.16078 131.87 3.16429 134.953 3.22403C136.746 3.25885 137.452 3.16237 137.524 2.87263C137.578 2.65317 137.72 2.47332 137.84 2.47332C137.959 2.47332 138.031 2.65317 137.998 2.87263C137.926 3.35852 139.513 3.42976 139.774 2.95249C139.883 2.75316 139.95 2.77935 139.952 3.02277C139.954 3.26204 140.275 3.39589 140.786 3.37034C141.243 3.34702 141.616 3.21604 141.616 3.07868C141.616 2.94163 141.857 2.90873 142.15 3.0052C142.946 3.26747 147.475 3.20997 147.808 2.93365C147.99 2.78191 148.034 2.82791 147.928 3.05887C147.688 3.58022 149.517 3.37513 150.009 2.82535C150.335 2.4615 150.395 2.46788 150.395 2.86528C150.395 3.19783 150.635 3.32146 151.217 3.28728C151.67 3.26108 152.102 3.15567 152.178 3.05344C152.254 2.9509 152.71 2.98668 153.191 3.13299C153.672 3.27897 154.521 3.31475 155.077 3.21189C155.964 3.04833 156.092 2.92278 156.117 2.19028C156.144 1.38207 156.15 1.3859 156.295 2.30177C156.442 3.22275 156.488 3.25054 157.987 3.32466C158.835 3.3665 159.742 3.46138 160.003 3.53485C160.264 3.60865 160.588 3.55179 160.723 3.40867C160.984 3.13203 161.51 3.16493 161.901 3.48214C162.032 3.58788 162.459 3.61057 162.85 3.53262C163.242 3.45499 163.669 3.4125 163.799 3.43806C163.93 3.46362 165.104 3.53613 166.409 3.59875C167.714 3.66168 169.139 3.80256 169.576 3.91213C170.152 4.05652 170.496 3.96004 170.822 3.56233C171.116 3.20358 171.273 3.1496 171.273 3.40675C171.273 3.65912 171.56 3.76678 172.076 3.70672C172.519 3.65561 173.061 3.81501 173.281 4.06099C173.625 4.44561 173.712 4.44401 173.897 4.05013C174.047 3.73164 174.114 3.71343 174.116 3.99071C174.118 4.2105 174.34 4.39003 174.61 4.39003C175 4.39003 175.073 4.24244 174.968 3.67126C174.896 3.2761 174.897 3.13235 174.972 3.35181C175.047 3.57159 175.212 3.75112 175.34 3.75112C175.467 3.75112 175.502 3.57159 175.418 3.35181C175.334 3.13235 175.471 3.29335 175.723 3.71023C176.116 4.3584 176.203 4.3929 176.33 3.94982C176.512 3.31092 177.107 3.27067 177.283 3.88561C177.415 4.35169 177.824 4.38939 178.31 3.98081C178.651 3.69298 179.394 4.03991 179.648 4.60566C179.9 5.16949 181 5.15576 181 4.58873C181 3.91788 180.468 3.46522 179.44 3.2614C178.928 3.16014 178.189 2.95409 177.797 2.80395C177.406 2.65381 176.925 2.52954 176.729 2.52762C176.534 2.52603 176.107 2.42732 175.78 2.30816C174.848 1.96826 172.691 1.51241 171.391 1.38079C170.739 1.31466 169.725 1.17187 169.137 1.06325C168.55 0.954641 166.308 0.792679 164.155 0.702913C162.002 0.613467 159.707 0.478978 159.054 0.404546C156.083 0.0646487 150.793 -0.0500343 150.422 0.217666C150.197 0.379629 149.884 0.404225 149.725 0.272931C149.567 0.141316 148.901 0.126303 148.244 0.239709C147.588 0.353114 147.002 0.341613 146.944 0.214152C146.837 -0.0180896 118.687 -0.0896462 118.515 0.141956ZM150.276 1.19551C150.357 1.37121 150.309 1.51496 150.171 1.51496C150.033 1.51496 149.92 1.37121 149.92 1.19551C149.92 1.01981 149.967 0.876056 150.025 0.876056C150.082 0.876056 150.195 1.01981 150.276 1.19551ZM162.02 2.15386C161.88 2.50526 161.726 2.79277 161.678 2.79277C161.629 2.79277 161.646 2.50526 161.714 2.15386C161.782 1.80247 161.936 1.51496 162.056 1.51496C162.176 1.51496 162.16 1.80087 162.02 2.15386ZM142.328 2.15386C142.328 2.32956 142.281 2.47332 142.223 2.47332C142.166 2.47332 142.053 2.32956 141.972 2.15386C141.891 1.97817 141.939 1.83441 142.077 1.83441C142.215 1.83441 142.328 1.97817 142.328 2.15386ZM107.215 2.65189C107.215 2.92566 107.108 3.06111 106.977 2.95249C106.847 2.84388 106.74 2.61995 106.74 2.45447C106.74 2.28899 106.847 2.15386 106.977 2.15386C107.108 2.15386 107.215 2.37812 107.215 2.65189ZM178.269 4.39514C178.187 4.57371 178.021 4.63728 177.899 4.53602C177.778 4.43507 177.678 4.50471 177.678 4.69063C177.678 5.17907 178.047 5.10624 178.39 4.54975C178.553 4.28621 178.625 4.07058 178.552 4.07058C178.479 4.07058 178.351 4.21657 178.269 4.39514ZM66.1701 5.34838C66.1701 5.52408 66.1231 5.66784 66.0655 5.66784C66.0078 5.66784 65.8949 5.52408 65.8142 5.34838C65.7336 5.17269 65.7808 5.02893 65.9189 5.02893C66.057 5.02893 66.1701 5.17269 66.1701 5.34838ZM6.90059 20.1125C6.73048 20.3415 6.61993 20.3604 6.61993 20.1604C6.61993 19.7339 6.90059 19.356 7.05884 19.5694C7.12622 19.6602 7.05504 19.9045 6.90059 20.1125Z" fill="#C4F800"/>
</svg>
