<svg width="1320" height="496" viewBox="0 0 1320 496" fill="none" xmlns="http://www.w3.org/2000/svg">
<mask id="mask0_2352_32048" style="mask-type:alpha" maskUnits="userSpaceOnUse" x="200" y="-24" width="921" height="320">
<path opacity="0.7" fill-rule="evenodd" clip-rule="evenodd" d="M223.868 11.9937C249.89 24.3171 301.934 58.8414 301.934 98.3515C301.934 101.117 301.891 104.369 301.842 108.034C301.011 169.815 298.609 348.613 477.584 280.944C502.918 271.366 528.948 262.05 554.537 252.891C589.788 240.275 624.202 227.958 654.808 215.667C763.464 278.113 864.665 317.311 977.426 233.782C1129.56 121.083 1171.83 -71.7552 1045.83 -4.37704C1023.73 9.78111 960.075 38.9148 882.31 42.1843C876.867 42.4132 870.461 42.6603 863.245 42.9387C816.125 44.7563 734.442 47.9073 660.63 56.0097C448.088 -22.7275 106.673 -54.3612 223.868 11.9937Z" fill="url(#paint0_linear_2352_32048)"/>
</mask>
<g mask="url(#mask0_2352_32048)">
<rect x="183.172" y="-252.666" width="24" height="792" stroke="#393953" stroke-opacity="0.3"/>
<rect x="207.172" y="-252.666" width="24" height="792" stroke="#393953" stroke-opacity="0.3"/>
<rect x="231.172" y="-252.666" width="24" height="792" stroke="#393953" stroke-opacity="0.3"/>
<rect x="255.172" y="-252.666" width="24" height="792" stroke="#393953" stroke-opacity="0.3"/>
<rect x="279.172" y="-252.666" width="24" height="792" stroke="#393953" stroke-opacity="0.3"/>
<rect x="303.172" y="-252.666" width="24" height="792" stroke="#393953" stroke-opacity="0.3"/>
<rect x="327.172" y="-252.666" width="24" height="792" stroke="#393953" stroke-opacity="0.3"/>
<rect x="351.172" y="-252.666" width="24" height="792" stroke="#393953" stroke-opacity="0.3"/>
<rect x="375.172" y="-252.666" width="24" height="792" stroke="#393953" stroke-opacity="0.3"/>
<rect x="399.172" y="-252.666" width="24" height="792" stroke="#393953" stroke-opacity="0.3"/>
<rect x="423.172" y="-252.666" width="24" height="792" stroke="#393953" stroke-opacity="0.3"/>
<rect x="447.172" y="-252.666" width="24" height="792" stroke="#393953" stroke-opacity="0.3"/>
<rect x="471.172" y="-252.666" width="24" height="792" stroke="#393953" stroke-opacity="0.3"/>
<rect x="495.172" y="-252.666" width="24" height="792" stroke="#393953" stroke-opacity="0.3"/>
<rect x="519.172" y="-252.666" width="24" height="792" stroke="#393953" stroke-opacity="0.3"/>
<rect x="543.172" y="-252.666" width="24" height="792" stroke="#393953" stroke-opacity="0.3"/>
<rect x="567.172" y="-252.666" width="24" height="792" stroke="#393953" stroke-opacity="0.3"/>
<rect x="591.172" y="-252.666" width="24" height="792" stroke="#393953" stroke-opacity="0.3"/>
<rect x="615.172" y="-252.666" width="24" height="792" stroke="#393953" stroke-opacity="0.3"/>
<rect x="639.172" y="-252.666" width="24" height="792" stroke="#393953" stroke-opacity="0.3"/>
<rect x="663.172" y="-252.666" width="24" height="792" stroke="#393953" stroke-opacity="0.3"/>
<rect x="687.172" y="-252.666" width="24" height="792" stroke="#393953" stroke-opacity="0.3"/>
<rect x="711.172" y="-252.666" width="24" height="792" stroke="#393953" stroke-opacity="0.3"/>
<rect x="735.172" y="-252.666" width="24" height="792" stroke="#393953" stroke-opacity="0.3"/>
<rect x="759.172" y="-252.666" width="24" height="792" stroke="#393953" stroke-opacity="0.3"/>
<rect x="783.172" y="-252.666" width="24" height="792" stroke="#393953" stroke-opacity="0.3"/>
<rect x="807.172" y="-252.666" width="24" height="792" stroke="#393953" stroke-opacity="0.3"/>
<rect x="831.172" y="-252.666" width="24" height="792" stroke="#393953" stroke-opacity="0.3"/>
<rect x="855.172" y="-252.666" width="24" height="792" stroke="#393953" stroke-opacity="0.3"/>
<rect x="879.172" y="-252.666" width="24" height="792" stroke="#393953" stroke-opacity="0.3"/>
<rect x="903.172" y="-252.666" width="24" height="792" stroke="#393953" stroke-opacity="0.3"/>
<rect x="927.172" y="-252.666" width="24" height="792" stroke="#393953" stroke-opacity="0.3"/>
<rect x="951.172" y="-252.666" width="24" height="792" stroke="#393953" stroke-opacity="0.3"/>
<rect x="975.172" y="-252.666" width="24" height="792" stroke="#393953" stroke-opacity="0.3"/>
<rect x="999.172" y="-252.666" width="24" height="792" stroke="#393953" stroke-opacity="0.3"/>
<rect x="1023.17" y="-252.666" width="24" height="792" stroke="#393953" stroke-opacity="0.3"/>
<rect x="1047.17" y="-252.666" width="24" height="792" stroke="#393953" stroke-opacity="0.3"/>
<rect x="1071.17" y="-252.666" width="24" height="792" stroke="#393953" stroke-opacity="0.3"/>
<rect x="1095.17" y="-252.666" width="24" height="792" stroke="#393953" stroke-opacity="0.3"/>
<rect x="1119.17" y="-252.666" width="24" height="792" stroke="#393953" stroke-opacity="0.3"/>
<rect x="-56.8281" y="11.334" width="24" height="1440" transform="rotate(-90 -56.8281 11.334)" stroke="#393953" stroke-opacity="0.3"/>
<rect x="-56.8281" y="35.334" width="24" height="1440" transform="rotate(-90 -56.8281 35.334)" stroke="#393953" stroke-opacity="0.3"/>
<rect x="-56.8281" y="59.334" width="24" height="1440" transform="rotate(-90 -56.8281 59.334)" stroke="#393953" stroke-opacity="0.3"/>
<rect x="-56.8281" y="83.334" width="24" height="1440" transform="rotate(-90 -56.8281 83.334)" stroke="#393953" stroke-opacity="0.3"/>
<rect x="-56.8281" y="107.334" width="24" height="1440" transform="rotate(-90 -56.8281 107.334)" stroke="#393953" stroke-opacity="0.3"/>
<rect x="-56.8281" y="131.334" width="24" height="1440" transform="rotate(-90 -56.8281 131.334)" stroke="#393953" stroke-opacity="0.3"/>
<rect x="-56.8281" y="155.334" width="24" height="1440" transform="rotate(-90 -56.8281 155.334)" stroke="#393953" stroke-opacity="0.3"/>
<rect x="-56.8281" y="179.334" width="24" height="1440" transform="rotate(-90 -56.8281 179.334)" stroke="#393953" stroke-opacity="0.3"/>
<rect x="-56.8281" y="203.334" width="24" height="1440" transform="rotate(-90 -56.8281 203.334)" stroke="#393953" stroke-opacity="0.3"/>
<rect x="-56.8281" y="227.334" width="24" height="1440" transform="rotate(-90 -56.8281 227.334)" stroke="#393953" stroke-opacity="0.3"/>
<rect x="-56.8281" y="251.334" width="24" height="1440" transform="rotate(-90 -56.8281 251.334)" stroke="#393953" stroke-opacity="0.3"/>
<rect x="-56.8281" y="275.334" width="24" height="1440" transform="rotate(-90 -56.8281 275.334)" stroke="#393953" stroke-opacity="0.3"/>
<rect x="-56.8281" y="299.334" width="24" height="1440" transform="rotate(-90 -56.8281 299.334)" stroke="#393953" stroke-opacity="0.3"/>
</g>
<defs>
<linearGradient id="paint0_linear_2352_32048" x1="1110.34" y1="-44.2222" x2="906.286" y2="374.477" gradientUnits="userSpaceOnUse">
<stop stop-color="white"/>
<stop offset="1" stop-color="white"/>
</linearGradient>
</defs>
</svg>
