<?xml version="1.0" standalone="no"?>
<!DOCTYPE svg PUBLIC "-//W3C//DTD SVG 20010904//EN"
 "http://www.w3.org/TR/2001/REC-SVG-20010904/DTD/svg10.dtd">
<svg version="1.0" xmlns="http://www.w3.org/2000/svg"
 width="1100.000000pt" height="1100.000000pt" viewBox="0 0 1100.000000 1100.000000"
 preserveAspectRatio="xMidYMid meet">
<metadata>
Created by potrace 1.14, written by Peter Selinger 2001-2017
</metadata>
<g transform="translate(0.000000,1100.000000) scale(0.100000,-0.100000)"
fill="#000000" stroke="none">
<path d="M5436 10280 c-37 -22 -72 -40 -77 -40 -4 0 -12 -8 -18 -17 -5 -10
-12 -17 -15 -15 -10 4 -106 -47 -106 -57 0 -4 -6 -8 -12 -8 -11 0 -235 -127
-483 -273 -44 -26 -99 -57 -122 -69 -24 -12 -43 -27 -43 -33 0 -6 -3 -8 -7 -5
-3 4 -16 1 -27 -6 -60 -39 -357 -207 -366 -207 -5 0 -10 -4 -10 -9 0 -5 -14
-14 -31 -21 -17 -7 -36 -18 -43 -24 -11 -10 -41 -27 -128 -73 -16 -8 -28 -18
-28 -22 0 -4 -6 -8 -13 -8 -13 0 -135 -69 -147 -82 -3 -3 -10 -7 -17 -8 -6 -1
-28 -14 -49 -28 -20 -14 -41 -25 -46 -25 -19 0 2 -16 66 -50 36 -19 66 -38 66
-42 0 -4 4 -8 10 -8 5 0 32 -13 60 -30 27 -16 50 -27 50 -24 0 2 10 -4 22 -16
12 -11 25 -20 30 -20 4 0 37 -18 73 -40 36 -22 65 -36 65 -32 0 4 4 2 8 -4 9
-13 147 -94 160 -94 6 0 12 -4 14 -8 2 -5 50 -35 108 -67 58 -33 107 -62 110
-65 5 -5 68 -40 135 -74 22 -12 42 -24 45 -27 10 -11 125 -74 133 -71 4 1 7
-2 7 -7 0 -8 58 -42 127 -75 13 -6 23 -14 23 -18 0 -5 5 -8 11 -8 10 0 78 -39
171 -97 21 -13 45 -23 54 -23 10 0 15 -3 11 -6 -6 -6 81 -59 116 -70 9 -4 17
-9 17 -13 0 -4 16 -13 35 -21 19 -8 35 -17 35 -22 0 -4 5 -8 10 -8 6 0 28 -11
49 -25 34 -21 41 -22 51 -10 7 8 16 12 21 9 5 -3 9 -2 9 3 0 4 10 13 23 19 44
23 142 78 147 83 3 3 23 15 45 26 22 11 42 22 45 25 3 4 25 18 50 31 25 14 63
36 85 49 22 12 60 34 85 48 25 14 57 33 71 43 14 10 29 16 33 12 3 -3 6 -1 6
5 0 7 6 12 13 12 7 0 23 9 35 20 12 12 22 19 22 16 0 -2 51 25 113 61 61 36
138 80 170 98 32 17 67 39 78 48 10 9 19 15 19 12 0 -3 34 16 76 40 42 25 80
45 85 45 5 0 9 3 9 8 0 4 13 13 30 20 16 7 45 24 65 37 19 14 35 21 35 17 0
-4 4 -2 8 3 4 6 21 17 37 25 17 8 32 18 35 21 3 3 37 23 75 44 39 21 81 45 95
55 14 9 32 20 40 23 8 4 33 18 55 31 22 14 59 35 83 48 24 12 45 25 47 29 2 3
-13 15 -33 26 -85 46 -139 77 -163 94 -14 10 -29 16 -33 12 -3 -3 -6 -2 -6 4
0 6 -8 13 -17 17 -10 3 -35 16 -55 28 -103 63 -264 152 -270 150 -5 -1 -8 2
-8 6 0 5 -19 19 -42 32 -62 34 -299 170 -328 189 -14 8 -27 16 -30 16 -3 0
-16 8 -30 17 -14 8 -117 68 -230 133 -113 65 -225 130 -250 145 -25 15 -65 38
-90 51 -25 13 -55 31 -68 41 -13 9 -44 27 -70 39 -26 13 -49 25 -52 29 -5 5
-78 50 -83 50 -1 0 -33 -18 -71 -40z"/>
<path d="M3277 9035 c-20 -14 -38 -25 -40 -25 -3 0 -82 -45 -177 -100 -94 -55
-175 -100 -180 -100 -5 0 -14 -8 -19 -17 -6 -10 -11 -15 -11 -11 0 4 -24 -7
-52 -24 -29 -17 -127 -74 -218 -126 -219 -126 -229 -132 -272 -155 -21 -12
-38 -25 -38 -29 0 -5 -4 -7 -9 -4 -5 3 -19 -2 -32 -12 -13 -10 -31 -22 -39
-25 -8 -4 -33 -18 -55 -31 -22 -12 -94 -54 -160 -91 -66 -38 -122 -72 -125
-75 -3 -3 -18 -12 -35 -20 -16 -8 -58 -32 -93 -52 -34 -21 -67 -38 -72 -38 -6
0 -10 -3 -10 -8 0 -4 -15 -13 -32 -21 -18 -8 -35 -17 -38 -20 -3 -3 -25 -17
-50 -30 -25 -13 -52 -30 -60 -37 -12 -12 -12 -14 3 -14 10 0 23 -5 30 -10 26
-22 87 -59 87 -53 0 3 8 -1 18 -10 10 -10 22 -14 25 -10 4 3 7 2 7 -4 0 -11
100 -69 113 -65 4 1 7 -2 7 -7 0 -5 21 -20 48 -33 26 -13 53 -29 60 -35 12
-12 21 -15 38 -12 4 0 10 -4 13 -10 6 -9 52 -37 216 -131 17 -9 54 -31 83 -49
29 -17 54 -31 56 -31 2 0 34 -18 70 -40 36 -22 70 -40 76 -40 5 0 10 -4 10 -9
0 -5 8 -11 18 -14 17 -6 63 -32 155 -88 26 -16 50 -29 53 -29 3 0 18 -8 32
-19 15 -10 54 -33 87 -51 33 -18 74 -42 90 -52 17 -10 44 -25 60 -33 17 -9 39
-21 49 -28 63 -40 126 -77 130 -77 2 0 53 -29 112 -64 l108 -64 56 30 c30 17
71 41 90 53 19 12 42 24 50 28 8 4 33 18 55 32 22 14 47 28 55 32 18 8 208
119 230 133 8 6 26 16 40 22 14 7 31 18 38 25 8 7 17 11 22 8 5 -3 10 -2 12 3
3 7 33 26 128 79 19 11 60 35 90 53 30 18 75 44 99 57 24 14 157 91 295 171
138 79 267 154 286 165 93 52 125 72 128 79 2 4 12 8 23 8 10 0 19 3 19 8 0 4
10 12 23 18 99 49 148 84 118 84 -6 0 -30 14 -54 30 -25 17 -50 30 -56 30 -6
0 -11 5 -11 10 0 6 -4 10 -10 10 -8 0 -376 209 -505 287 -22 13 -48 26 -57 30
-10 3 -18 9 -18 14 0 5 -6 9 -12 9 -7 0 -40 17 -73 38 -33 21 -76 46 -95 55
-19 10 -48 26 -65 37 -16 10 -41 25 -55 33 -46 26 -105 59 -170 97 -36 21 -85
50 -110 65 -25 14 -53 28 -62 32 -10 3 -18 9 -18 14 0 5 -5 9 -11 9 -6 0 -48
22 -93 49 -70 43 -121 71 -201 115 -11 6 -22 13 -25 16 -3 3 -21 14 -40 24
-19 11 -53 30 -76 42 l-40 24 -37 -25z"/>
<path d="M7645 9031 c-22 -15 -55 -34 -73 -41 -17 -8 -32 -18 -32 -22 0 -5 -4
-8 -9 -8 -4 0 -78 -41 -162 -90 -85 -50 -166 -96 -181 -102 -16 -7 -28 -15
-28 -19 0 -4 -11 -10 -25 -13 -14 -4 -25 -11 -25 -17 0 -6 -4 -8 -9 -5 -5 3
-14 -1 -21 -9 -7 -8 -16 -15 -21 -15 -11 0 -133 -73 -141 -85 -4 -5 -8 -6 -8
-1 0 5 -7 3 -15 -4 -21 -17 -76 -49 -97 -56 -10 -4 -18 -10 -18 -15 0 -5 -3
-8 -7 -7 -7 3 -82 -39 -93 -51 -3 -4 -11 -7 -19 -9 -8 -2 -26 -11 -40 -21 -14
-10 -57 -35 -96 -56 -38 -22 -72 -41 -75 -45 -3 -3 -23 -14 -45 -25 -22 -11
-42 -23 -45 -26 -3 -3 -30 -19 -60 -35 -85 -46 -104 -58 -112 -69 -4 -5 -8 -6
-8 -2 0 5 -12 -1 -26 -12 -15 -12 -33 -21 -40 -21 -8 0 -14 -4 -14 -9 0 -5 -8
-11 -17 -14 -10 -4 -38 -18 -63 -33 -42 -25 -68 -40 -131 -76 -67 -37 -67 -36
42 -99 55 -33 103 -59 107 -59 3 0 13 -6 21 -14 9 -8 40 -27 69 -42 29 -16 61
-34 70 -39 9 -6 63 -37 120 -69 56 -32 105 -62 108 -67 3 -5 10 -7 15 -4 5 4
9 1 9 -4 0 -6 4 -11 9 -11 7 0 173 -93 196 -110 6 -4 35 -21 65 -37 30 -17 71
-40 90 -51 19 -12 46 -27 60 -34 14 -7 27 -15 30 -18 9 -10 153 -90 161 -90 5
0 9 -5 9 -11 0 -5 4 -8 9 -5 5 3 14 -1 21 -9 7 -8 16 -15 20 -15 4 0 39 -19
76 -42 38 -23 75 -41 82 -41 6 0 12 -4 12 -9 0 -5 8 -12 17 -15 10 -4 77 -42
151 -85 73 -43 137 -78 142 -78 4 0 10 -3 12 -7 5 -12 64 -43 82 -43 8 0 39
14 68 31 136 81 271 159 276 159 3 0 20 11 39 26 18 14 33 22 33 18 0 -3 6 -2
13 4 6 5 28 19 47 30 58 32 264 152 280 162 8 5 30 17 48 26 17 9 32 20 32 25
0 5 3 8 8 7 6 -2 47 18 97 48 11 7 36 21 55 30 19 10 37 21 40 25 3 3 30 19
60 35 30 15 57 31 60 34 3 3 52 32 110 64 58 33 113 66 123 74 9 8 17 12 17 9
0 -3 36 16 80 43 44 28 82 50 84 50 2 0 61 34 131 75 69 41 129 75 131 75 3 0
12 7 20 15 12 12 12 15 2 15 -7 0 -41 18 -74 39 -34 21 -71 42 -83 46 -11 3
-21 11 -21 16 0 5 -5 9 -11 9 -6 0 -50 23 -97 52 -47 28 -91 51 -99 51 -7 0
-13 4 -13 8 0 8 -7 12 -86 55 -22 11 -106 60 -189 108 -82 49 -168 98 -190
111 -22 12 -96 54 -164 94 -68 39 -127 71 -132 71 -5 0 -9 5 -9 10 0 6 -4 10
-9 10 -5 0 -56 27 -112 61 -57 33 -107 61 -113 62 -6 1 -19 10 -30 20 -11 9
-24 17 -30 17 -5 0 -17 6 -25 14 -14 12 -52 34 -161 92 -19 11 -37 22 -40 25
-6 6 -138 81 -160 90 -9 4 -32 -4 -55 -20z"/>
<path d="M5475 7782 c-5 -6 -26 -19 -45 -30 -19 -11 -80 -46 -135 -77 -55 -32
-118 -68 -140 -80 -22 -12 -64 -36 -93 -54 -29 -17 -57 -31 -62 -31 -4 0 -10
-4 -12 -8 -1 -4 -34 -25 -73 -47 -38 -21 -73 -42 -76 -47 -3 -6 -8 -8 -10 -6
-2 1 -22 -8 -44 -21 -22 -14 -65 -38 -95 -54 -30 -17 -56 -34 -58 -38 -2 -5
-12 -9 -22 -9 -10 0 -20 -3 -22 -8 -4 -9 -286 -172 -298 -172 -5 0 -10 -4 -12
-8 -1 -5 -15 -15 -30 -23 -15 -8 -94 -52 -175 -99 -81 -47 -175 -100 -208
-119 -33 -19 -63 -39 -67 -45 -4 -6 -8 -7 -8 -3 0 4 -17 -4 -37 -18 -21 -14
-43 -25 -50 -25 -7 0 -13 -4 -13 -10 0 -5 -6 -10 -14 -10 -7 0 -19 -6 -25 -14
-9 -11 -5 -17 21 -30 18 -9 51 -27 73 -41 22 -13 56 -33 75 -43 19 -10 70 -40
113 -65 43 -26 82 -47 87 -47 5 0 15 -6 22 -13 16 -16 145 -88 154 -87 4 1 10
-2 13 -7 5 -9 127 -83 136 -83 1 0 33 -18 69 -40 36 -22 70 -40 76 -40 5 0 10
-4 10 -10 0 -5 5 -10 10 -10 6 0 27 -11 48 -23 20 -13 57 -35 82 -49 25 -14
61 -34 80 -45 128 -74 160 -91 160 -85 0 4 4 1 8 -5 7 -12 89 -60 462 -274
l156 -89 114 65 c62 36 116 68 119 72 3 5 11 9 18 10 7 2 56 29 110 61 54 32
105 61 113 65 8 4 29 16 45 27 17 11 38 23 48 26 9 4 17 10 17 15 0 5 5 9 12
9 6 0 54 25 107 56 113 67 163 96 211 122 65 35 305 176 310 181 3 3 12 7 20
9 8 2 17 8 18 13 2 5 8 9 14 9 5 0 43 20 84 45 40 25 77 45 82 45 5 0 19 10
32 23 14 12 26 21 27 19 7 -6 133 70 133 81 0 5 3 7 7 4 6 -7 116 51 121 65 2
4 7 8 12 8 4 0 27 11 50 24 l42 24 -94 55 c-51 30 -110 64 -130 76 -21 11 -55
31 -75 42 -21 12 -49 29 -63 39 -14 10 -29 18 -34 17 -4 0 -15 5 -25 11 -58
41 -91 61 -91 57 0 -3 -25 11 -55 30 -30 19 -59 35 -65 35 -5 0 -10 3 -10 8 0
4 -20 16 -45 27 -25 11 -45 23 -45 28 0 4 -5 7 -10 7 -6 0 -43 20 -83 44 -39
24 -88 53 -107 63 -19 11 -79 45 -133 76 -54 32 -102 57 -107 57 -6 0 -10 5
-10 10 0 6 -5 10 -11 10 -6 0 -23 8 -37 18 -15 11 -52 33 -82 49 -30 17 -84
47 -120 68 -36 21 -81 46 -100 57 -19 11 -60 35 -91 54 -31 19 -62 34 -68 34
-6 0 -11 4 -11 9 0 5 -8 11 -17 14 -22 7 -96 49 -103 59 -10 13 -65 20 -75 10z"/>
<path d="M1293 6623 l2 -1077 70 -41 c39 -23 90 -53 115 -67 72 -40 123 -70
155 -89 17 -10 41 -24 55 -32 14 -8 48 -26 75 -42 28 -16 59 -33 70 -39 11 -6
22 -13 25 -16 6 -6 32 -21 110 -63 30 -17 57 -33 60 -36 5 -7 81 -49 117 -66
13 -5 23 -13 23 -17 0 -5 5 -8 10 -8 6 0 40 -18 76 -40 36 -22 68 -40 70 -40
2 0 27 -14 56 -31 29 -18 67 -40 83 -49 17 -10 96 -56 177 -102 80 -47 152
-88 160 -92 7 -3 31 -17 53 -31 22 -14 50 -29 62 -35 11 -5 24 -14 28 -19 3
-6 15 -11 26 -11 10 0 19 -4 19 -9 0 -5 17 -17 38 -28 20 -10 58 -31 83 -46
l46 -27 0 1079 0 1079 -21 11 c-11 5 -43 23 -71 39 -51 30 -396 230 -495 287
-30 18 -99 57 -152 88 -54 32 -100 57 -103 57 -3 0 -11 5 -18 10 -12 10 -288
172 -392 229 -27 15 -149 85 -270 156 -121 71 -248 144 -282 162 l-63 34 3
-1078z"/>
<path d="M9680 7683 c-14 -9 -28 -21 -31 -26 -3 -5 -10 -8 -15 -8 -13 0 -208
-111 -212 -121 -2 -4 -8 -8 -13 -8 -7 0 -428 -238 -529 -299 -8 -5 -71 -42
-140 -82 -69 -39 -138 -80 -155 -89 -16 -10 -73 -42 -125 -72 -52 -30 -140
-81 -195 -113 -55 -32 -158 -92 -230 -133 -71 -41 -142 -82 -157 -91 l-28 -16
0 -1078 c0 -593 3 -1076 8 -1074 4 3 63 37 132 77 138 80 144 84 280 161 52
29 101 59 108 66 7 7 18 13 24 13 5 0 22 8 36 19 15 10 50 31 77 45 28 15 57
31 65 36 78 49 204 120 211 120 5 0 9 5 9 11 0 5 5 7 10 4 6 -3 10 -2 10 3 0
5 8 12 18 15 9 4 44 22 77 42 33 19 70 39 83 45 12 5 22 13 22 18 0 5 6 9 13
9 6 0 62 30 124 67 61 36 116 66 122 66 5 0 11 4 13 8 2 4 35 25 73 47 39 21
72 41 75 45 3 3 22 14 43 23 20 10 37 22 37 28 0 6 4 8 9 5 4 -3 29 8 55 24
26 17 49 30 52 30 2 0 22 11 43 26 l39 25 -1 1075 c0 590 -3 1074 -6 1074 -4
0 -18 -8 -31 -17z"/>
<path d="M3478 6428 c-2 -7 -3 -492 -3 -1077 l1 -1064 119 -70 c129 -75 134
-78 293 -168 20 -12 51 -30 67 -40 17 -11 37 -22 45 -26 8 -4 59 -33 112 -64
53 -31 99 -55 102 -51 3 3 6 1 6 -5 0 -6 17 -20 38 -31 20 -11 125 -70 232
-132 107 -62 207 -119 222 -127 15 -8 30 -18 33 -24 4 -5 15 -9 25 -9 10 0 20
-3 22 -7 4 -11 101 -70 127 -78 12 -3 21 -11 21 -16 0 -5 4 -9 9 -9 5 0 55
-27 111 -60 56 -33 103 -60 104 -60 2 0 40 -22 86 -50 46 -27 86 -50 89 -50 7
0 8 2147 1 2152 -18 13 -90 58 -94 58 -2 0 -91 51 -197 113 -107 62 -219 127
-249 144 -30 16 -78 44 -107 61 -28 17 -54 28 -57 25 -3 -4 -6 -1 -6 5 0 6
-12 17 -27 25 -42 21 -127 69 -138 77 -9 7 -357 208 -465 268 -25 14 -62 36
-82 49 -21 12 -42 23 -48 23 -5 0 -10 5 -10 10 0 6 -4 10 -9 10 -5 0 -64 32
-132 71 -68 40 -139 80 -157 91 -18 10 -44 25 -56 34 -19 11 -24 12 -28 2z"/>
<path d="M7510 6429 c-8 -5 -51 -30 -95 -55 -44 -26 -83 -51 -86 -56 -3 -5
-10 -9 -15 -9 -11 2 -152 -78 -160 -90 -3 -5 -10 -7 -15 -4 -5 4 -9 1 -9 -4 0
-6 -4 -11 -9 -11 -5 0 -87 -46 -182 -101 -96 -56 -190 -111 -209 -121 -19 -11
-64 -37 -100 -58 -63 -36 -98 -56 -177 -101 -70 -39 -108 -63 -114 -72 -3 -5
-9 -8 -13 -7 -11 2 -86 -43 -86 -52 0 -5 -4 -7 -9 -4 -5 3 -24 -4 -42 -17 -19
-12 -81 -49 -139 -82 -58 -33 -117 -66 -131 -75 -14 -8 -76 -44 -138 -79 -61
-35 -112 -69 -112 -75 -3 -28 -4 -2146 -1 -2146 2 0 31 16 65 36 74 44 125 73
218 126 13 7 26 15 29 18 3 3 20 13 38 23 17 9 47 25 65 35 17 9 34 20 35 25
2 4 8 7 13 7 5 0 54 27 108 59 55 33 102 57 105 53 3 -3 6 -1 6 4 0 5 25 23
55 39 30 15 55 33 55 38 0 6 3 7 6 4 4 -4 19 2 34 13 16 11 31 20 35 20 3 0
31 16 61 35 30 19 56 35 59 35 2 0 28 14 57 31 29 18 69 41 88 52 19 11 49 28
65 38 17 10 41 24 55 32 97 54 128 72 151 88 14 10 29 16 33 12 3 -3 6 -1 6 5
0 6 10 14 22 18 12 3 26 11 32 16 6 5 49 31 96 58 47 26 127 72 178 101 l92
52 0 1079 c0 593 -1 1078 -2 1077 -2 0 -10 -4 -18 -10z"/>
<path d="M1291 4100 l-1 -1079 28 -15 c15 -8 38 -21 52 -28 14 -6 37 -20 51
-30 14 -9 29 -15 33 -11 3 3 6 2 6 -4 0 -5 17 -18 38 -29 20 -10 39 -21 42
-24 10 -10 153 -90 161 -90 5 0 9 -5 9 -12 0 -6 3 -8 7 -5 3 4 13 1 22 -6 15
-12 109 -69 191 -114 19 -11 66 -37 103 -59 38 -21 80 -45 95 -53 15 -8 29
-17 32 -20 3 -4 16 -12 30 -18 14 -7 48 -26 75 -43 28 -16 57 -33 65 -37 8 -3
17 -9 20 -12 3 -3 21 -14 40 -25 98 -53 148 -81 172 -98 14 -10 30 -18 36 -18
5 0 15 -7 22 -15 7 -8 16 -12 21 -9 5 3 9 0 9 -5 0 -6 7 -11 15 -11 8 0 15 -4
15 -10 0 -5 4 -10 10 -10 8 0 323 -178 420 -238 19 -12 38 -22 41 -22 3 0 6
484 6 1075 l0 1075 -76 44 c-42 24 -92 53 -111 63 -19 11 -134 78 -255 148
-121 70 -226 128 -232 128 -7 0 -13 4 -13 8 0 7 -33 28 -122 77 -20 11 -39 18
-42 15 -3 -4 -6 -2 -6 3 0 14 -75 55 -85 46 -5 -4 -5 -2 -1 5 5 10 -31 31 -43
24 -2 -2 -7 2 -10 7 -6 9 -56 40 -152 94 -24 14 -79 46 -121 71 -43 25 -78 44
-78 41 0 -3 -10 4 -22 16 -12 11 -25 20 -29 20 -6 0 -156 86 -386 221 l-82 48
0 -1079z"/>
<path d="M9652 5140 c-34 -22 -64 -40 -66 -40 -2 0 -52 -28 -111 -62 -59 -35
-136 -79 -171 -98 -35 -20 -72 -42 -82 -50 -10 -8 -24 -16 -30 -17 -16 -4
-116 -65 -123 -76 -3 -5 -8 -7 -10 -6 -6 5 -263 -143 -271 -155 -5 -7 -8 -7
-8 -1 0 6 -6 3 -13 -5 -7 -8 -18 -16 -24 -17 -7 -2 -41 -20 -77 -42 -35 -22
-83 -50 -106 -63 -24 -13 -50 -27 -59 -33 -9 -5 -94 -54 -189 -109 -94 -54
-172 -102 -172 -106 0 -4 -6 -7 -13 -7 -7 0 -64 -30 -126 -66 -62 -37 -117
-67 -121 -67 -5 0 -14 -9 -20 -19 -11 -21 -15 -2151 -4 -2151 10 0 49 23 56
33 3 6 12 12 20 13 7 1 65 32 128 69 303 177 351 205 356 205 3 0 30 16 60 35
30 19 59 35 64 35 5 0 13 7 18 16 5 9 12 15 16 14 12 -4 106 50 106 61 0 5 3
8 8 7 11 -4 72 26 72 34 0 5 4 8 8 8 9 0 153 81 174 97 7 6 40 25 73 42 33 18
67 36 75 41 8 5 51 30 95 55 44 25 87 50 95 55 8 6 36 21 63 35 26 14 47 30
47 35 0 5 7 7 15 4 8 -4 15 -2 15 4 0 5 8 12 18 15 9 4 38 19 63 34 25 15 84
50 131 77 l86 48 -1 1079 c0 593 0 1079 -1 1079 0 0 -29 -18 -64 -40z"/>
<path d="M3478 3903 c-7 -15 -1 -2129 5 -2140 8 -13 165 -105 171 -101 2 2 12
-4 22 -13 11 -9 53 -36 94 -59 41 -23 91 -52 110 -63 19 -11 54 -31 78 -44 23
-13 59 -35 79 -48 19 -14 40 -25 44 -25 5 0 33 -16 64 -35 30 -20 63 -39 73
-42 9 -4 35 -18 57 -33 22 -15 65 -40 95 -57 63 -34 69 -38 285 -163 88 -51
170 -99 182 -108 13 -8 23 -10 23 -6 0 5 4 4 8 -1 8 -12 139 -95 149 -95 4 0
39 -20 79 -45 39 -25 74 -45 77 -45 3 0 42 -22 86 -49 48 -30 81 -45 83 -38 3
10 2 2082 -1 2129 -1 15 -110 87 -120 79 -2 -1 -7 2 -10 7 -3 5 -24 20 -46 32
-22 12 -128 74 -236 136 -107 63 -201 114 -207 114 -7 0 -12 4 -12 8 0 5 -12
15 -27 23 -16 7 -72 40 -126 71 -55 32 -101 58 -103 58 -2 0 -41 23 -85 50
-44 28 -87 50 -94 50 -7 0 -15 4 -17 8 -4 12 -200 124 -215 125 -7 0 -13 4
-13 8 0 5 -13 15 -30 24 -16 9 -30 13 -30 10 0 -3 -8 2 -17 11 -16 14 -460
274 -469 274 -1 0 -4 -3 -6 -7z"/>
<path d="M7450 3870 c-36 -21 -70 -43 -76 -48 -6 -5 -20 -13 -32 -16 -12 -4
-22 -12 -22 -17 0 -6 -4 -8 -9 -4 -5 3 -16 -2 -24 -10 -9 -8 -18 -15 -20 -15
-8 0 -181 -101 -187 -108 -3 -4 -9 -8 -15 -9 -5 -1 -73 -38 -150 -84 -77 -45
-153 -89 -170 -97 -16 -8 -41 -23 -55 -32 -14 -9 -45 -28 -70 -42 -48 -27
-139 -79 -595 -343 -159 -93 -302 -175 -317 -182 -15 -8 -31 -20 -35 -26 -4
-7 -8 -494 -8 -1082 l0 -1071 28 14 c15 7 27 17 27 21 0 4 6 8 13 8 6 0 95 49
197 108 102 59 205 119 230 133 25 14 48 29 51 34 3 6 8 9 10 7 7 -4 89 41 89
50 0 4 6 8 13 8 6 0 37 15 67 33 30 18 129 75 220 128 91 52 168 100 172 106
4 6 8 8 8 4 0 -4 35 14 78 39 80 48 123 73 182 105 19 11 49 28 65 39 17 10
37 22 45 26 8 4 38 20 65 36 28 17 65 38 83 48 17 11 47 27 65 38 17 10 59 34
92 53 l60 34 3 1077 c1 592 -1 1077 -5 1076 -5 0 -37 -18 -73 -39z"/>
</g>
</svg>
