<!-- <svg xmlns="http://www.w3.org/2000/svg" width="124" height="35" viewBox="0 0 124 35" fill="none">
<g opacity="0.5">
  <path d="M0.791016 20.4089V25.8682L17.1687 34.4356L33.5465 25.8682V20.4089L27.7684 17.4601L33.5465 14.4317V9.01227V8.97242L33.5066 9.01227L17.1687 0.564392L0.830864 8.97242H0.791016V14.4317L6.56905 17.4601L0.791016 20.4089Z" fill="#D8D7D7"/>
  <path d="M27.7684 17.4599L17.1687 22.9988L6.56905 17.4599L0.791016 20.4087L17.1687 28.9761L33.5465 20.4087L27.7684 17.4599Z" fill="white"/>
  <path d="M17.1687 0.564392L33.5465 9.01227L17.1687 17.5797L0.791016 9.01227L17.1687 0.564392Z" fill="white"/>
  <path d="M45.089 16.7301H45.1538C45.1538 16.7301 45.089 16.163 45.089 16.082V11.4636H43.7116V10.2807H46.5312V23.3902H47.86V24.5732H45.4455L45.2349 23.2282H45.1538C45.1538 23.2282 44.2788 24.7028 42.1074 24.7028C39.7415 24.7028 37.959 23.1148 37.959 20.0845C37.959 17.1353 39.8711 15.4824 42.1236 15.4824C44.4084 15.4986 45.089 16.7301 45.089 16.7301ZM45.089 22.0128V17.9941C44.8459 17.6052 44.0681 16.7139 42.3991 16.7139C40.9568 16.7139 39.385 17.7672 39.385 20.1007C39.385 22.418 40.811 23.5199 42.4153 23.5199C43.501 23.5037 44.5867 23.0013 45.089 22.0128Z" fill="white"/>
  <path d="M55.1842 23.0817C55.1842 23.0817 54.3902 24.7183 51.765 24.7183C49.9177 24.7183 48.6699 23.6326 48.6699 22.1256C48.6699 20.4565 50.2418 19.5977 52.7535 19.5977H55.0221V18.8522C55.0221 17.3128 54.1471 16.6646 52.5104 16.6646C50.9548 16.6646 50.177 17.41 50.177 18.4147V18.6092H48.8482V18.1717C48.8482 16.8753 49.9987 15.5141 52.5428 15.5141C54.9573 15.5141 56.4481 16.5836 56.4481 18.9333V23.4219H57.5176V24.6049H55.3624L55.1842 23.1141V23.0817ZM55.0221 20.6348H52.8507C51.2789 20.6348 50.0959 21.0885 50.0959 22.1256C50.0959 23.0006 50.9224 23.584 52.0729 23.584C54.1471 23.584 55.0221 22.0284 55.0221 22.0284V20.6348Z" fill="white"/>
  <path d="M60.5305 13.2299V15.6282H63.3664V16.7787H60.5305V21.6077C60.5305 22.8717 61.0815 23.4874 62.0214 23.4874C63.0261 23.4874 63.6256 23.1958 63.6256 23.1958V24.4111C63.6256 24.4111 62.8964 24.719 61.7783 24.719C60.0606 24.719 59.0721 23.7143 59.0721 21.6887V16.7787H57.7109V15.6282H59.0721L59.3152 13.2299H60.5305Z" fill="white"/>
  <path d="M70.9518 23.0817C70.9518 23.0817 70.1577 24.7183 67.5326 24.7183C65.6853 24.7183 64.4375 23.6326 64.4375 22.1256C64.4375 20.4565 66.0094 19.5977 68.5211 19.5977H70.7897V18.8522C70.7897 17.3128 69.9147 16.6646 68.278 16.6646C66.7224 16.6646 65.9445 17.41 65.9445 18.4147V18.6092H64.6158V18.1717C64.6158 16.8753 65.7663 15.5141 68.3104 15.5141C70.7249 15.5141 72.2157 16.5836 72.2157 18.9333V23.4219H73.2852V24.6049H71.13L70.9518 23.1141V23.0817ZM70.8059 20.6348H68.6345C67.0627 20.6348 65.8797 21.0885 65.8797 22.1256C65.8797 23.0006 66.7061 23.584 67.8567 23.584C69.9309 23.584 70.8059 22.0284 70.8059 22.0284V20.6348Z" fill="white"/>
  <path d="M75.9597 23.2444L75.7328 24.5894H74.6471V11.4636H73.3184V10.2807H76.0731V16.0657C76.0731 16.1468 76.0083 16.7139 76.0083 16.7139H76.0731C76.0731 16.7139 76.8834 15.4824 79.071 15.4824C81.291 15.4824 83.2194 17.1353 83.2194 20.0845C83.2194 23.1148 81.4369 24.7028 79.1034 24.7028C76.932 24.7028 76.0407 23.2282 76.0407 23.2282H75.9597V23.2444ZM76.0731 17.9941V22.0128C76.5593 22.9851 77.6612 23.5037 78.7631 23.5037C80.3512 23.5037 81.7772 22.418 81.7772 20.0845C81.7772 17.751 80.2215 16.6977 78.7793 16.6977C77.1264 16.6977 76.3486 17.589 76.0731 17.9941Z" fill="white"/>
  <path d="M90.2196 16.9569C90.0089 16.8759 89.6686 16.8273 89.1987 16.8273C86.9786 16.8273 86.5087 19.4686 86.5087 19.4686V23.4063H87.9671V24.5893H83.7539V23.4063H85.0827V16.8273H83.7539V15.6281H86.1684L86.298 17.913H86.3629C86.3629 17.913 86.8004 15.4985 89.2473 15.4985C89.6524 15.4985 89.9927 15.5633 90.2196 15.5957V16.9569Z" fill="white"/>
  <path d="M94.2866 23.3898H95.5668V24.5728H91.5156V23.3898H92.8444V16.827H91.5156V15.6278H94.2704V23.3898H94.2866ZM93.4926 14.0074C92.8768 14.0074 92.3745 13.505 92.3745 12.8568C92.3745 12.2411 92.8768 11.7387 93.4926 11.7387C94.1246 11.7387 94.6431 12.2411 94.6431 12.8568C94.6431 13.505 94.1246 14.0074 93.4926 14.0074Z" fill="white"/>
  <path d="M97.4293 20.1006C97.4293 22.434 98.9364 23.5198 100.654 23.5198C102.744 23.5198 103.587 22.5475 103.587 22.5475L104.089 23.5684C104.089 23.5684 103.085 24.7189 100.557 24.7189C97.8993 24.7189 96.0195 23.066 96.0195 20.1006C96.0195 16.9893 97.721 15.4985 100.476 15.4985C103.279 15.4985 104.284 17.0379 104.284 18.707V19.1931H102.955V18.9014C102.955 17.5565 102.193 16.7138 100.443 16.7138C98.6447 16.6976 97.4293 17.6051 97.4293 20.1006Z" fill="white"/>
  <path d="M107.608 19.3715H109.828L111.983 16.7788H110.865V15.6282H114.916V16.7788H113.538L110.929 19.9387L113.668 23.4226H115.029V24.5732H112.858L109.714 20.4896H107.608V23.3902H108.888V24.5732H104.82V23.3902H106.165V11.4636H104.82V10.2807H107.608V19.3715Z" fill="white"/>
  <path d="M117.005 21.6724V21.8831C117.005 22.8068 117.766 23.536 119.403 23.536C121.056 23.536 121.785 23.0012 121.785 22.11C121.785 21.1863 120.602 20.8784 119.306 20.6515C117.701 20.3599 115.886 19.9385 115.886 18.0102C115.886 16.4708 117.345 15.4985 119.338 15.4985C121.979 15.4985 122.968 16.5842 122.968 17.9454V18.5936H121.623V18.1722C121.623 17.2162 120.991 16.6652 119.403 16.6652C118.366 16.6652 117.312 17.0865 117.312 18.0264C117.312 19.0797 118.576 19.2741 119.889 19.5172C121.574 19.8413 123.211 20.3599 123.211 22.1262C123.211 23.5684 122.141 24.7189 119.451 24.7189C116.697 24.7189 115.676 23.4873 115.676 22.2234V21.6724H117.005Z" fill="white"/>
  </g>
</svg> -->

<?xml version="1.0" encoding="UTF-8" standalone="no"?>


<svg xmlns:dc="http://purl.org/dc/elements/1.1/" width="140" height="50" xmlns:cc="http://creativecommons.org/ns#" xmlns:rdf="http://www.w3.org/1999/02/22-rdf-syntax-ns#" xmlns:svg="http://www.w3.org/2000/svg" xmlns="http://www.w3.org/2000/svg" xmlns:sodipodi="http://sodipodi.sourceforge.net/DTD/sodipodi-0.dtd" xmlns:inkscape="http://www.inkscape.org/namespaces/inkscape" version="1.1" id="Layer_1" x="0px" y="0px" viewBox="5 13 124 40" enable-background="new 0 0 640 96" xml:space="preserve" sodipodi:docname="databricks-ar21.svg"  inkscape:version="0.92.4 (5da689c313, 2019-01-14)">
  <metadata id="metadata45">
    <rdf:RDF>
      <cc:Work rdf:about="">
        <dc:format>image/svg+xml</dc:format>
        <dc:type rdf:resource="http://purl.org/dc/dcmitype/StillImage" />
        <dc:title></dc:title>
      </cc:Work>
    </rdf:RDF>
  </metadata>
  <defs id="defs43" />
  <sodipodi:namedview pagecolor="#ffffff" bordercolor="#666666" borderopacity="1" objecttolerance="10" gridtolerance="10" guidetolerance="10" inkscape:pageopacity="0" inkscape:pageshadow="2" inkscape:window-width="1920" inkscape:window-height="1001" id="namedview41" showgrid="false" inkscape:zoom="2.996365" inkscape:cx="53.009829" inkscape:cy="48" inkscape:window-x="-9" inkscape:window-y="-9" inkscape:window-maximized="1" inkscape:current-layer="Layer_1" />



  <g id="g81" transform="translate(0.15352384)">
    <g transform="matrix(0.36351711,0,0,0.36351711,4.0072789,23.638451)" id="g50">
      <path d="M 0,24.8 V 38.5 L 41.1,60 82.2,38.5 v -13.7 0 L 67.7,17.4 82.2,9.8 v -13.6 0 0 -0.1 L 82.1,-3.8 41.1,-25 0.1,-3.9 H 0 V 9.8 L 14.5,17.4 0,24.8" id="path2" inkscape:connector-curvature="0" style="fill:#db1905" />
      <polygon points="67.7,53.4 41.1,67.3 14.5,53.4 0,60.8 41.1,82.3 82.2,60.8 " id="polygon4" style="fill:#ff5224" transform="translate(0,-36)" />
      <polygon points="41.1,11 82.2,32.2 41.1,53.7 0,32.2 " id="polygon6" style="fill:#ff5224" transform="translate(0,-36)" />
    </g>
    <g transform="matrix(0.14782641,0,0,0.14782641,23.58982,28.736084)" id="g63">
      <g id="g28" transform="translate(0,-36)">
        <path d="m 140.9,39.8 h 0.4 c 0,0 -0.4,-3.5 -0.4,-4 V 7.3 h -8.5 V 0 h 17.4 v 80.9 h 8.2 v 7.3 h -14.9 l -1.3,-8.3 h -0.5 c 0,0 -5.4,9.1 -18.8,9.1 -14.6,0 -25.6,-9.8 -25.6,-28.5 0,-18.2 11.8,-28.4 25.7,-28.4 14.1,0.1 18.3,7.7 18.3,7.7 z m 0,32.6 V 47.6 c -1.5,-2.4 -6.3,-7.9 -16.6,-7.9 -8.9,0 -18.6,6.5 -18.6,20.9 0,14.3 8.8,21.1 18.7,21.1 6.7,-0.1 13.4,-3.2 16.5,-9.3 z" id="path8" inkscape:connector-curvature="0" style="fill:#444444" />
        <path d="m 203.2,79 c 0,0 -4.9,10.1 -21.1,10.1 -11.4,0 -19.1,-6.7 -19.1,-16 0,-10.3 9.7,-15.6 25.2,-15.6 h 14 v -4.6 c 0,-9.5 -5.4,-13.5 -15.5,-13.5 -9.6,0 -14.4,4.6 -14.4,10.8 v 1.2 h -8.2 v -2.7 c 0,-8 7.1,-16.4 22.8,-16.4 14.9,0 24.1,6.6 24.1,21.1 v 27.7 h 6.6 v 7.3 h -13.3 l -1.1,-9.2 v 0 z m -1,-15.1 h -13.4 c -9.7,0 -17,2.8 -17,9.2 0,5.4 5.1,9 12.2,9 12.8,0 18.2,-9.6 18.2,-9.6 z" id="path10" inkscape:connector-curvature="0" style="fill:#444444" />
        <path d="M 236.2,18.2 V 33 h 17.5 v 7.1 h -17.5 v 29.8 c 0,7.8 3.4,11.6 9.2,11.6 6.2,0 9.9,-1.8 9.9,-1.8 v 7.5 c 0,0 -4.5,1.9 -11.4,1.9 -10.6,0 -16.7,-6.2 -16.7,-18.7 V 40.1 h -8.4 V 33 h 8.4 l 1.5,-14.8 z" id="path12" inkscape:connector-curvature="0" style="fill:#444444" />
        <path d="m 300.5,79 c 0,0 -4.9,10.1 -21.1,10.1 -11.4,0 -19.1,-6.7 -19.1,-16 0,-10.3 9.7,-15.6 25.2,-15.6 h 14 v -4.6 c 0,-9.5 -5.4,-13.5 -15.5,-13.5 -9.6,0 -14.4,4.6 -14.4,10.8 v 1.2 h -8.2 v -2.7 c 0,-8 7.1,-16.4 22.8,-16.4 14.9,0 24.1,6.6 24.1,21.1 v 27.7 h 6.6 v 7.3 h -13.3 l -1.1,-9.2 v 0 z m -0.9,-15.1 h -13.4 c -9.7,0 -17,2.8 -17,9.2 0,5.4 5.1,9 12.2,9 12.8,0 18.2,-9.6 18.2,-9.6 z" id="path14" inkscape:connector-curvature="0" style="fill:#444444" />
        <path d="m 331.4,80 -1.4,8.3 h -6.7 v -81 h -8.2 V 0 h 17 v 35.7 c 0,0.5 -0.4,4 -0.4,4 h 0.4 c 0,0 5,-7.6 18.5,-7.6 13.7,0 25.6,10.2 25.6,28.4 0,18.7 -11,28.5 -25.4,28.5 -13.4,0 -18.9,-9.1 -18.9,-9.1 h -0.5 z m 0.7,-32.4 v 24.8 c 3,6 9.8,9.2 16.6,9.2 9.8,0 18.6,-6.7 18.6,-21.1 0,-14.4 -9.6,-20.9 -18.5,-20.9 -10.2,0 -15,5.5 -16.7,8 z" id="path16" inkscape:connector-curvature="0" style="fill:#444444" />
        <path d="m 419.4,41.2 c -1.3,-0.5 -3.4,-0.8 -6.3,-0.8 -13.7,0 -16.6,16.3 -16.6,16.3 V 81 h 9 v 7.3 h -26 V 81 h 8.2 V 40.4 h -8.2 V 33 h 14.9 l 0.8,14.1 h 0.4 c 0,0 2.7,-14.9 17.8,-14.9 2.5,0 4.6,0.4 6,0.6 z" id="path18" inkscape:connector-curvature="0" style="fill:#444444" />
        <path d="m 444.5,80.9 h 7.9 v 7.3 h -25 v -7.3 h 8.2 V 40.4 h -8.2 V 33 h 17 V 80.9 Z M 439.6,23 c -3.8,0 -6.9,-3.1 -6.9,-7.1 0,-3.8 3.1,-6.9 6.9,-6.9 3.9,0 7.1,3.1 7.1,6.9 0,4 -3.2,7.1 -7.1,7.1 z" id="path20" inkscape:connector-curvature="0" style="fill:#444444" />
        <path d="m 463.9,60.6 c 0,14.4 9.3,21.1 19.9,21.1 12.9,0 18.1,-6 18.1,-6 L 505,82 c 0,0 -6.2,7.1 -21.8,7.1 -16.4,0 -28,-10.2 -28,-28.5 0,-19.2 10.5,-28.4 27.5,-28.4 17.3,0 23.5,9.5 23.5,19.8 v 3 H 498 v -1.8 c 0,-8.3 -4.7,-13.5 -15.5,-13.5 -11.1,-0.1 -18.6,5.5 -18.6,20.9 z" id="path22" inkscape:connector-curvature="0" style="fill:#444444" />
        <path d="m 526.7,56.1 h 13.7 l 13.3,-16 h -6.9 V 33 h 25 v 7.1 h -8.5 l -16.1,19.5 16.9,21.5 h 8.4 v 7.1 H 559.1 L 539.7,63 h -13 v 17.9 h 7.9 v 7.3 h -25.1 v -7.3 h 8.3 V 7.3 h -8.3 V 0 h 17.2 z" id="path24" inkscape:connector-curvature="0" style="fill:#444444" />
        <path d="m 584.7,70.3 v 1.3 c 0,5.7 4.7,10.2 14.8,10.2 10.2,0 14.7,-3.3 14.7,-8.8 0,-5.7 -7.3,-7.6 -15.3,-9 -9.9,-1.8 -21.1,-4.4 -21.1,-16.3 0,-9.5 9,-15.5 21.3,-15.5 16.3,0 22.4,6.7 22.4,15.1 v 4 h -8.3 v -2.6 c 0,-5.9 -3.9,-9.3 -13.7,-9.3 -6.4,0 -12.9,2.6 -12.9,8.4 0,6.5 7.8,7.7 15.9,9.2 10.4,2 20.5,5.2 20.5,16.1 0,8.9 -6.6,16 -23.2,16 -17,0 -23.3,-7.6 -23.3,-15.4 v -3.4 z" id="path26" inkscape:connector-curvature="0" style="fill:#444444" />
      </g>
    </g>
  </g>

</svg>
