<svg width="24" height="24" viewBox="0 0 24 24" fill="none" xmlns="http://www.w3.org/2000/svg">
<g id="Logos/github-original">
<g id="Group">
<path id="Vector" fill-rule="evenodd" clip-rule="evenodd" d="M12.0024 0.957031C5.74988 0.957031 0.679688 6.02609 0.679688 12.2798C0.679688 17.2827 3.924 21.5267 8.42288 23.0241C8.98856 23.1291 9.19631 22.7785 9.19631 22.4794C9.19631 22.2094 9.18581 21.3175 9.18094 20.3713C6.03094 21.0563 5.36625 19.0354 5.36625 19.0354C4.85119 17.7267 4.10906 17.3787 4.10906 17.3787C3.08156 16.6759 4.1865 16.6905 4.1865 16.6905C5.32331 16.7702 5.92219 17.8573 5.92219 17.8573C6.93206 19.588 8.571 19.0877 9.21712 18.7986C9.31875 18.0668 9.61219 17.5671 9.936 17.2843C7.42106 16.9984 4.77713 16.0273 4.77713 11.6888C4.77713 10.4526 5.21962 9.44253 5.94394 8.64941C5.82619 8.36441 5.43862 7.21278 6.05344 5.65316C6.05344 5.65316 7.00406 5.34884 9.16781 6.81378C10.0712 6.56272 11.04 6.43653 12.0024 6.43222C12.9643 6.43653 13.9337 6.56234 14.8387 6.81341C16.9999 5.34847 17.9494 5.65278 17.9494 5.65278C18.5657 7.21222 18.1781 8.36403 18.0606 8.64903C18.7866 9.44216 19.2259 10.4522 19.2259 11.6884C19.2259 16.0373 16.5771 16.9947 14.0557 17.2752C14.4621 17.6265 14.8239 18.3158 14.8239 19.372C14.8239 20.887 14.8108 22.1063 14.8108 22.4792C14.8108 22.7805 15.0148 23.1336 15.5886 23.0224C20.0848 21.5235 23.3254 17.2808 23.3254 12.2798C23.3252 6.02647 18.2556 0.957219 12.0024 0.957219V0.957031Z" fill="url(#paint0_linear_680_18761)"/>
<path id="Vector_2" d="M4.9675 17.2136C4.94257 17.2699 4.85407 17.2868 4.77344 17.2483C4.69094 17.2116 4.645 17.1349 4.67163 17.0785C4.696 17.0203 4.78469 17.0044 4.86663 17.0432C4.94913 17.0801 4.996 17.1576 4.96732 17.2138L4.9675 17.2136ZM5.42613 17.7253C5.37232 17.7754 5.26675 17.7521 5.19513 17.6728C5.12088 17.5941 5.107 17.4885 5.16194 17.4377C5.21782 17.3878 5.32019 17.4115 5.39444 17.4902C5.46832 17.5701 5.48294 17.6747 5.42632 17.7255L5.42613 17.7253ZM5.87275 18.3773C5.80338 18.4256 5.68975 18.3805 5.61963 18.2798C5.55025 18.1789 5.55025 18.058 5.6215 18.0098C5.69144 17.9614 5.80338 18.0051 5.87463 18.1048C5.94363 18.207 5.94363 18.328 5.87275 18.3771V18.3773ZM6.48419 19.0075C6.42232 19.0759 6.28994 19.0575 6.19319 18.9643C6.09438 18.873 6.06682 18.7431 6.12888 18.6748C6.19188 18.6062 6.32482 18.6253 6.42213 18.718C6.52094 18.8091 6.55075 18.9392 6.48457 19.0073L6.48419 19.0075ZM7.32794 19.3733C7.30038 19.462 7.17325 19.5023 7.04482 19.4644C6.91675 19.4256 6.83294 19.3219 6.85919 19.2323C6.88544 19.1428 7.0135 19.101 7.14269 19.1413C7.27075 19.18 7.35457 19.2831 7.32794 19.3733ZM8.25475 19.441C8.25794 19.5343 8.14919 19.6116 8.01475 19.6135C7.87919 19.6166 7.7695 19.5409 7.76819 19.449C7.76819 19.3547 7.87469 19.2784 8.01007 19.2758C8.1445 19.2733 8.25494 19.3483 8.25494 19.4408L8.25475 19.441ZM9.11688 19.2943C9.133 19.3853 9.03944 19.4788 8.90575 19.5038C8.7745 19.5281 8.65263 19.4715 8.63575 19.3813C8.61963 19.288 8.71488 19.1944 8.84613 19.1702C8.98 19.1471 9.1 19.2021 9.11688 19.2945V19.2943Z" fill="#181616"/>
</g>
</g>
<defs>
<linearGradient id="paint0_linear_680_18761" x1="-0.0599496" y1="1.80651" x2="16.4576" y2="16.39" gradientUnits="userSpaceOnUse">
<stop stop-color="white" stop-opacity="0"/>
<stop offset="1" stop-color="white"/>
</linearGradient>
</defs>
</svg>
