<svg width="135" height="45" viewBox="0 0 167 45" fill="none" xmlns="http://www.w3.org/2000/svg">
<g >
<path d="M50 27.7744V16.0191H53.1703V20.3957H56.7461V16.0191H59.9164V27.7744H56.7461V23.1085H53.1703V27.7744H50ZM65.1075 27.9914C64.0999 27.9914 63.3687 27.6599 62.9141 26.9968C62.4594 26.3216 62.2322 25.4234 62.2322 24.302V18.732H65.4024V23.9043C65.4024 24.483 65.4762 24.8687 65.6236 25.0616C65.7833 25.2545 66.0168 25.351 66.3241 25.351C66.6189 25.351 66.8647 25.2907 67.0614 25.1702C67.258 25.0497 67.4546 24.8446 67.6512 24.5552V18.732H70.8215V27.7744H68.2409L68.0197 26.5809H67.946C67.5774 27.0149 67.1658 27.3585 66.7111 27.6117C66.2688 27.8649 65.7343 27.9914 65.1075 27.9914ZM76.3164 31.5C75.6161 31.5 74.9709 31.4216 74.381 31.2649C73.7913 31.1201 73.3182 30.885 72.9619 30.5595C72.6177 30.2341 72.4458 29.7999 72.4458 29.2574C72.4458 28.5461 72.8757 27.9673 73.736 27.5212V27.4489C73.5004 27.278 73.2949 27.0702 73.1277 26.8341C72.968 26.5809 72.8881 26.2673 72.8881 25.8935C72.8881 25.5801 72.9803 25.2726 73.1646 24.9713C73.3612 24.6698 73.6131 24.4106 73.9203 24.1936V24.1212C73.5884 23.9043 73.2937 23.5968 73.0356 23.1988C72.7898 22.7889 72.6669 22.3247 72.6669 21.8064C72.6669 21.0588 72.8512 20.444 73.2199 19.9617C73.6008 19.4673 74.0923 19.1057 74.6944 18.8766C75.2966 18.6355 75.9355 18.5148 76.6113 18.5148C77.1519 18.5148 77.6435 18.5872 78.0858 18.732H81.5143V20.9744H80.1872C80.2239 21.083 80.2547 21.2216 80.2792 21.3903C80.3161 21.5592 80.3346 21.734 80.3346 21.9148C80.3346 22.6262 80.1688 23.205 79.8369 23.6511C79.5051 24.0851 79.0567 24.4047 78.4914 24.6095C77.9261 24.8146 77.2995 24.917 76.6113 24.917C76.3042 24.917 75.96 24.8748 75.5792 24.7903C75.4316 24.923 75.358 25.0978 75.358 25.3148C75.358 25.5077 75.4563 25.6463 75.6529 25.7308C75.8617 25.8152 76.1936 25.8574 76.6482 25.8574H78.0306C79.1857 25.8574 80.0765 26.0443 80.7033 26.418C81.3422 26.7798 81.6617 27.3765 81.6617 28.2084C81.6617 28.8596 81.4405 29.4322 80.9982 29.9266C80.5681 30.4208 79.9537 30.8067 79.1549 31.0839C78.3562 31.3614 77.41 31.5 76.3164 31.5ZM76.6113 23.0723C76.9063 23.0723 77.1459 22.9699 77.3301 22.7648C77.5146 22.56 77.6066 22.2404 77.6066 21.8064C77.6066 21.3843 77.5146 21.0769 77.3301 20.884C77.1459 20.6791 76.9063 20.5766 76.6113 20.5766C76.3164 20.5766 76.0768 20.6791 75.8925 20.884C75.7081 21.0769 75.6161 21.3843 75.6161 21.8064C75.6161 22.2404 75.7081 22.56 75.8925 22.7648C76.0768 22.9699 76.3164 23.0723 76.6113 23.0723ZM76.8325 29.5829C77.3486 29.5829 77.7787 29.5046 78.1227 29.3478C78.4669 29.2031 78.6388 29.0042 78.6388 28.751C78.6388 28.5099 78.5283 28.3592 78.3071 28.2989C78.0982 28.2386 77.7971 28.2084 77.4039 28.2084H76.6851C76.3164 28.2084 76.0338 28.1965 75.8372 28.1722C75.6529 28.1603 75.4932 28.1362 75.358 28.1C75.1369 28.317 75.0262 28.534 75.0262 28.751C75.0262 29.0404 75.192 29.2514 75.5238 29.384C75.868 29.5167 76.3042 29.5829 76.8325 29.5829ZM86.3784 31.5C85.6779 31.5 85.0329 31.4216 84.4431 31.2649C83.8532 31.1201 83.3801 30.885 83.0237 30.5595C82.6797 30.2341 82.5077 29.7999 82.5077 29.2574C82.5077 28.5461 82.9378 27.9673 83.7979 27.5212V27.4489C83.5623 27.278 83.3568 27.0702 83.1897 26.8341C83.0298 26.5809 82.95 26.2673 82.95 25.8935C82.95 25.5801 83.0422 25.2726 83.2264 24.9713C83.4231 24.6698 83.675 24.4106 83.9823 24.1936V24.1212C83.6505 23.9043 83.3556 23.5968 83.0975 23.1988C82.8517 22.7889 82.7288 22.3247 82.7288 21.8064C82.7288 21.0588 82.9132 20.444 83.2818 19.9617C83.6627 19.4673 84.1542 19.1057 84.7564 18.8766C85.3585 18.6355 85.9974 18.5148 86.6732 18.5148C87.214 18.5148 87.7055 18.5872 88.1479 18.732H91.5762V20.9744H90.2491C90.286 21.083 90.3166 21.2216 90.3413 21.3903C90.378 21.5592 90.3965 21.734 90.3965 21.9148C90.3965 22.6262 90.2306 23.205 89.8988 23.6511C89.5672 24.0851 89.1186 24.4047 88.5533 24.6095C87.9881 24.8146 87.3614 24.917 86.6732 24.917C86.3661 24.917 86.0221 24.8748 85.641 24.7903C85.4937 24.923 85.4199 25.0978 85.4199 25.3148C85.4199 25.5077 85.5182 25.6463 85.7148 25.7308C85.9238 25.8152 86.2554 25.8574 86.7101 25.8574H88.0925C89.2475 25.8574 90.1384 26.0443 90.7651 26.418C91.4041 26.7798 91.7235 27.3765 91.7235 28.2084C91.7235 28.8596 91.5024 29.4322 91.0601 29.9266C90.63 30.4208 90.0156 30.8067 89.2169 31.0839C88.4183 31.3614 87.472 31.5 86.3784 31.5ZM86.6732 23.0723C86.9681 23.0723 87.2077 22.9699 87.3922 22.7648C87.5764 22.56 87.6687 22.2404 87.6687 21.8064C87.6687 21.3843 87.5764 21.0769 87.3922 20.884C87.2077 20.6791 86.9681 20.5766 86.6732 20.5766C86.3784 20.5766 86.1387 20.6791 85.9544 20.884C85.7701 21.0769 85.6779 21.3843 85.6779 21.8064C85.6779 22.2404 85.7701 22.56 85.9544 22.7648C86.1387 22.9699 86.3784 23.0723 86.6732 23.0723ZM86.8945 29.5829C87.4106 29.5829 87.8406 29.5046 88.1847 29.3478C88.5287 29.2031 88.7008 29.0042 88.7008 28.751C88.7008 28.5099 88.5902 28.3592 88.369 28.2989C88.1602 28.2386 87.859 28.2084 87.4658 28.2084H86.747C86.3784 28.2084 86.0957 28.1965 85.8991 28.1722C85.7148 28.1603 85.5551 28.1362 85.4199 28.1C85.1987 28.317 85.0881 28.534 85.0881 28.751C85.0881 29.0404 85.2541 29.2514 85.5859 29.384C85.9299 29.5167 86.3661 29.5829 86.8945 29.5829ZM93.0858 27.7744V18.732H96.2561V27.7744H93.0858ZM94.6709 17.6106C94.1548 17.6106 93.7369 17.472 93.4174 17.1947C93.098 16.9053 92.9382 16.5255 92.9382 16.0553C92.9382 15.5851 93.098 15.2112 93.4174 14.934C93.7369 14.6446 94.1548 14.5 94.6709 14.5C95.187 14.5 95.6048 14.6446 95.9242 14.934C96.2437 15.2112 96.4034 15.5851 96.4034 16.0553C96.4034 16.5255 96.2437 16.9053 95.9242 17.1947C95.6048 17.472 95.187 17.6106 94.6709 17.6106ZM98.3957 27.7744V18.732H100.976L101.197 19.8169H101.271C101.64 19.4673 102.058 19.1659 102.524 18.9128C103.004 18.6474 103.557 18.5148 104.183 18.5148C105.203 18.5148 105.934 18.8525 106.377 19.5277C106.831 20.1908 107.059 21.083 107.059 22.2042V27.7744H103.888V22.6021C103.888 22.0234 103.815 21.6375 103.667 21.4446C103.52 21.2517 103.286 21.1552 102.967 21.1552C102.672 21.1552 102.426 21.2155 102.229 21.3362C102.033 21.4567 101.812 21.6256 101.566 21.8426V27.7744H98.3957ZM112.478 31.5C111.778 31.5 111.133 31.4216 110.543 31.2649C109.953 31.1201 109.48 30.885 109.124 30.5595C108.78 30.2341 108.608 29.7999 108.608 29.2574C108.608 28.5461 109.038 27.9673 109.898 27.5212V27.4489C109.662 27.278 109.457 27.0702 109.29 26.8341C109.13 26.5809 109.05 26.2673 109.05 25.8935C109.05 25.5801 109.142 25.2726 109.326 24.9713C109.523 24.6698 109.775 24.4106 110.082 24.1936V24.1212C109.75 23.9043 109.455 23.5968 109.197 23.1988C108.952 22.7889 108.829 22.3247 108.829 21.8064C108.829 21.0588 109.013 20.444 109.382 19.9617C109.763 19.4673 110.254 19.1057 110.856 18.8766C111.458 18.6355 112.097 18.5148 112.773 18.5148C113.314 18.5148 113.805 18.5872 114.248 18.732H117.676V20.9744H116.349C116.386 21.083 116.417 21.2216 116.441 21.3903C116.478 21.5592 116.496 21.734 116.496 21.9148C116.496 22.6262 116.331 23.205 115.999 23.6511C115.667 24.0851 115.218 24.4047 114.653 24.6095C114.088 24.8146 113.461 24.917 112.773 24.917C112.466 24.917 112.122 24.8748 111.741 24.7903C111.593 24.923 111.52 25.0978 111.52 25.3148C111.52 25.5077 111.618 25.6463 111.815 25.7308C112.024 25.8152 112.355 25.8574 112.81 25.8574H114.192C115.347 25.8574 116.238 26.0443 116.865 26.418C117.504 26.7798 117.823 27.3765 117.823 28.2084C117.823 28.8596 117.602 29.4322 117.16 29.9266C116.73 30.4208 116.116 30.8067 115.317 31.0839C114.518 31.3614 113.572 31.5 112.478 31.5ZM112.773 23.0723C113.068 23.0723 113.308 22.9699 113.492 22.7648C113.676 22.56 113.768 22.2404 113.768 21.8064C113.768 21.3843 113.676 21.0769 113.492 20.884C113.308 20.6791 113.068 20.5766 112.773 20.5766C112.478 20.5766 112.239 20.6791 112.054 20.884C111.87 21.0769 111.778 21.3843 111.778 21.8064C111.778 22.2404 111.87 22.56 112.054 22.7648C112.239 22.9699 112.478 23.0723 112.773 23.0723ZM112.994 29.5829C113.51 29.5829 113.941 29.5046 114.285 29.3478C114.629 29.2031 114.801 29.0042 114.801 28.751C114.801 28.5099 114.69 28.3592 114.469 28.2989C114.26 28.2386 113.959 28.2084 113.566 28.2084H112.847C112.478 28.2084 112.196 28.1965 111.999 28.1722C111.815 28.1603 111.655 28.1362 111.52 28.1C111.299 28.317 111.188 28.534 111.188 28.751C111.188 29.0404 111.354 29.2514 111.686 29.384C112.03 29.5167 112.466 29.5829 112.994 29.5829ZM123.134 27.7744V16.0191H130.949V18.6234H126.304V20.8659H130.285V23.4701H126.304V27.7744H123.134ZM134.416 27.9914C133.838 27.9914 133.34 27.8649 132.923 27.6117C132.524 27.3536 132.2 26.9985 131.983 26.5809C131.761 26.1589 131.651 25.7006 131.651 25.2064C131.651 24.2659 132.044 23.5305 132.83 22.9999C133.617 22.4574 134.895 22.0958 136.664 21.9148C136.591 21.2879 136.16 20.9744 135.374 20.9744C135.042 20.9744 134.692 21.0407 134.324 21.1733C133.955 21.2939 133.531 21.4808 133.052 21.734L131.946 19.7085C132.597 19.3227 133.254 19.0273 133.918 18.8223C134.593 18.6176 135.295 18.5139 136.001 18.5148C137.205 18.5148 138.145 18.8525 138.821 19.5277C139.497 20.1908 139.835 21.2638 139.835 22.7467V27.7744H137.254L137.033 26.9063H136.959C136.591 27.2319 136.197 27.4972 135.78 27.702C135.374 27.895 134.919 27.9914 134.416 27.9914ZM135.521 25.6042C135.78 25.6042 135.995 25.5499 136.167 25.4415C136.339 25.3209 136.505 25.1702 136.664 24.9894V23.7595C135.915 23.8681 135.393 24.0308 135.098 24.2478C134.815 24.4649 134.674 24.7 134.674 24.9532C134.674 25.3872 134.956 25.6042 135.521 25.6042ZM146.067 27.9914C145.195 27.9914 144.408 27.8045 143.708 27.4308C143.007 27.057 142.448 26.5205 142.03 25.8212C141.625 25.1099 141.422 24.2539 141.422 23.2531C141.422 22.2525 141.65 21.4024 142.104 20.7032C142.571 19.9917 143.179 19.4493 143.929 19.0755C144.678 18.7017 145.489 18.5148 146.362 18.5148C146.915 18.5148 147.413 18.5993 147.855 18.768C148.31 18.9368 148.709 19.1659 149.053 19.4553L147.578 21.4446C147.382 21.2759 147.204 21.1614 147.044 21.1011C146.885 21.0408 146.716 21.0103 146.546 21.0106C145.956 21.0106 145.496 21.2155 145.164 21.6256C144.832 22.0234 144.666 22.5659 144.666 23.2531C144.666 23.9404 144.838 24.489 145.182 24.8989C145.526 25.2967 145.944 25.4958 146.436 25.4958C146.694 25.4958 146.946 25.4415 147.191 25.3329C147.443 25.2159 147.684 25.0766 147.91 24.917L149.127 26.9425C148.672 27.3404 148.168 27.6177 147.615 27.7744C147.062 27.919 146.546 27.9914 146.067 27.9914ZM154.314 27.9914C153.416 27.9914 152.605 27.8045 151.881 27.4308C151.168 27.057 150.603 26.5205 150.185 25.8212C149.767 25.1099 149.558 24.2539 149.558 23.2531C149.558 22.2766 149.767 21.4386 150.185 20.7393C150.615 20.0279 151.168 19.4794 151.844 19.0936C152.52 18.7077 153.232 18.5148 153.982 18.5148C154.891 18.5148 155.641 18.7139 156.23 19.1117C156.833 19.4975 157.275 20.022 157.558 20.6851C157.852 21.3482 158 22.0836 158 22.8915C158 23.1566 157.982 23.416 157.945 23.6692C157.92 23.9102 157.895 24.0851 157.871 24.1936H152.618C152.765 24.7362 153.03 25.1159 153.41 25.3329C153.791 25.5379 154.24 25.6404 154.756 25.6404C155.346 25.6404 155.972 25.4596 156.636 25.0978L157.668 26.9425C157.177 27.28 156.624 27.5393 156.009 27.7201C155.395 27.9009 154.83 27.9914 154.314 27.9914ZM152.581 22.168H155.309C155.309 21.8183 155.217 21.517 155.032 21.2638C154.86 20.9985 154.535 20.8659 154.056 20.8659C153.711 20.8659 153.404 20.9685 153.134 21.1733C152.864 21.3784 152.679 21.7099 152.581 22.168Z" fill="white"/>
<path d="M42.8767 29.7589C42.7828 29.4091 42.6308 29.0772 42.4268 28.7765C42.4705 28.6181 42.5037 28.4572 42.5261 28.2948C42.6708 27.2634 42.3088 26.3191 41.6262 25.5884C41.2565 25.1893 40.8603 24.926 40.4406 24.7642C40.7161 23.6004 40.8556 22.4094 40.8563 21.2142C40.8563 20.6684 40.825 20.1337 40.7725 19.607C40.7451 19.3439 40.7121 19.0814 40.6734 18.8198C40.5532 18.0477 40.3749 17.2856 40.14 16.5398C39.986 16.0497 39.8078 15.5674 39.6063 15.0945C39.3041 14.3942 38.9512 13.7162 38.5504 13.0658C38.2873 12.6332 38.001 12.2149 37.6925 11.8126C37.5413 11.6095 37.3838 11.4111 37.2198 11.2179C36.7343 10.6351 36.2067 10.0878 35.6409 9.58046C35.4532 9.40991 35.2601 9.24524 35.0617 9.08667C34.8664 8.92585 34.6668 8.77017 34.4632 8.61981C34.0533 8.3186 33.6296 8.03599 33.1936 7.77289C30.7848 6.32828 27.9599 5.5 24.9407 5.5C16.1502 5.5 9.02537 12.5353 9.02537 21.2148C9.02514 22.4251 9.16715 23.6312 9.44855 24.8089C9.07099 24.9708 8.70899 25.223 8.37356 25.588C7.69116 26.3183 7.32899 27.2593 7.4739 28.2905C7.49574 28.4545 7.52896 28.6167 7.573 28.7762C7.36914 29.077 7.21712 29.4091 7.12308 29.7589C6.91333 30.5461 6.98237 31.256 7.24894 31.8779C6.9593 32.691 7.03167 33.5567 7.40905 34.3094C7.68347 34.8591 8.07624 35.2842 8.56024 35.6644C9.13584 36.1161 9.85634 36.5001 10.7256 36.8682C11.7625 37.3049 13.028 37.7152 13.6036 37.8657C15.0904 38.2459 16.516 38.4868 17.961 38.4984C20.0194 38.5174 21.7922 38.0393 23.0615 36.8161C23.685 36.8915 24.3125 36.9293 24.9407 36.9292C25.6044 36.9278 26.2674 36.8864 26.926 36.8056C28.1922 38.0365 29.9718 38.5189 32.0379 38.4994C33.4826 38.4882 34.9082 38.2473 36.3911 37.8665C36.9706 37.716 38.2357 37.3058 39.2732 36.8693C40.1424 36.5003 40.8627 36.1164 41.4424 35.6653C41.9227 35.2852 42.3151 34.8599 42.5897 34.3102C42.9709 33.5576 43.0396 32.6918 42.7537 31.8787C43.0178 31.2569 43.0863 30.5454 42.8767 29.7589ZM41.4016 31.8252C41.6937 32.3725 41.7124 32.9909 41.4546 33.5669C41.0637 34.4399 40.0929 35.1273 38.2074 35.8655C37.0351 36.3247 35.9613 36.6182 35.9519 36.6209C34.4011 37.0181 32.9986 37.2196 31.7844 37.2196C29.774 37.2196 28.2781 36.672 27.3293 35.5902C25.7248 35.86 24.0865 35.8691 22.4791 35.6173C21.5293 36.6812 20.0416 37.2196 18.0481 37.2196C16.8338 37.2196 15.4314 37.0181 13.8806 36.6209C13.871 36.6182 12.798 36.3247 11.6251 35.8655C9.73958 35.1273 8.7686 34.4402 8.37793 33.5669C8.12011 32.9909 8.13881 32.3725 8.43089 31.8252C8.45799 31.7745 8.48683 31.7248 8.51777 31.677C8.34269 31.4174 8.22528 31.124 8.17321 30.8164C8.12116 30.5089 8.13565 30.1937 8.21572 29.892C8.33179 29.4567 8.5716 29.0946 8.89707 28.8345C8.74035 28.5801 8.63748 28.2971 8.59468 28.0023C8.50099 27.3613 8.71633 26.7211 9.20121 26.1994C9.57859 25.7932 10.1122 25.5697 10.7032 25.5697H10.719C10.2735 24.1598 10.0475 22.6912 10.049 21.2143C10.049 13.159 16.6627 6.62842 24.8215 6.62842C32.9806 6.62842 39.5941 13.1585 39.5941 21.2143C39.5951 22.6952 39.3677 24.1676 38.9195 25.5808C38.9909 25.5739 39.0608 25.5703 39.1293 25.5703C39.7201 25.5703 40.2539 25.7936 40.6313 26.1997C41.1158 26.7211 41.3317 27.3618 41.2378 28.0026C41.195 28.2974 41.0922 28.5806 40.9354 28.835C41.2609 29.095 41.5007 29.4571 41.6168 29.8925C41.6967 30.1942 41.7112 30.5092 41.6591 30.8169C41.607 31.1245 41.4897 31.4177 41.3148 31.6775C41.3457 31.7248 41.3749 31.7745 41.4016 31.8252Z" fill="white"/>
<path d="M41.6311 31.0644C41.8033 30.8096 41.9186 30.5221 41.9699 30.2205C42.0211 29.9187 42.0068 29.6098 41.9283 29.3139C41.8141 28.8871 41.5782 28.532 41.258 28.2769C41.4121 28.0274 41.5134 27.7498 41.5555 27.4608C41.6476 26.8321 41.4358 26.2044 40.9588 25.6927C40.5876 25.2945 40.0625 25.0753 39.4813 25.0753C39.4138 25.0753 39.3452 25.0786 39.275 25.0856C39.7154 23.6997 39.9387 22.2558 39.9373 20.8038C39.9373 12.9044 33.4315 6.5 25.4064 6.5C17.3813 6.5 10.8748 12.9038 10.8748 20.8038C10.8734 22.2521 11.0956 23.6923 11.5339 25.0749H11.5184C10.9372 25.0749 10.4123 25.2941 10.0411 25.6924C9.56443 26.2037 9.35226 26.8318 9.44442 27.4604C9.48649 27.7495 9.58768 28.0271 9.74188 28.2766C9.42172 28.5316 9.18582 28.8867 9.07182 29.3138C8.9931 29.6096 8.9789 29.9187 9.03017 30.2205C9.08145 30.5221 9.19701 30.8098 9.36928 31.0644C9.3385 31.1112 9.3103 31.16 9.28382 31.2098C8.99668 31.7465 8.97811 32.3529 9.23172 32.9177C9.61602 33.7736 10.5712 34.4481 12.4259 35.1719C13.5791 35.6222 14.6354 35.91 14.6447 35.9127C16.1701 36.3021 17.5496 36.5 18.744 36.5C20.7051 36.5 22.1684 35.9719 23.1029 34.9285C24.6841 35.1754 26.2957 35.1664 27.874 34.9019C28.8071 35.9628 30.2788 36.5 32.2565 36.5C33.4508 36.5 34.8304 36.3021 36.3559 35.9127C36.3652 35.91 37.4209 35.6222 38.5747 35.1719C40.4294 34.4481 41.3846 33.7736 41.7689 32.9177C42.0225 32.3529 42.0041 31.7465 41.7168 31.2098C41.6905 31.1595 41.6616 31.1109 41.6311 31.0644ZM22.4342 33.2951C22.3537 33.4338 22.2676 33.569 22.1758 33.7005C21.9342 34.0487 21.6164 34.3146 21.2478 34.5124C20.5427 34.8907 19.6504 35.0231 18.7438 35.0231C17.3118 35.0231 15.8438 34.6932 15.0209 34.483C14.9805 34.4727 9.9771 33.0816 10.6105 31.8974C10.7171 31.6984 10.8927 31.6188 11.1135 31.6188C12.0053 31.6188 13.6294 32.9262 14.3274 32.9262C14.4832 32.9262 14.5933 32.8607 14.6381 32.7014C14.9356 31.6512 10.1172 31.2098 10.523 29.6892C10.5947 29.42 10.7888 29.3109 11.0621 29.3109C12.2411 29.3107 14.8876 31.3519 15.4411 31.3519C15.4836 31.3519 15.514 31.3397 15.5305 31.314L15.5377 31.3023C15.7974 30.88 15.6485 30.573 13.8685 29.4999L13.6976 29.3975C11.7392 28.2305 10.3643 27.5285 11.1463 26.6906C11.2362 26.5938 11.3636 26.551 11.5186 26.551C11.7024 26.551 11.9247 26.6116 12.1695 26.713C13.204 27.1424 14.6376 28.3135 15.2365 28.8243C15.4131 28.9756 15.5171 29.068 15.5171 29.068C15.5171 29.068 16.2754 29.8442 16.7339 29.8442C16.8395 29.8442 16.9289 29.8034 16.9896 29.702C17.3149 29.1624 13.9698 26.6673 13.7812 25.6379C13.6534 24.9402 13.8709 24.587 14.2734 24.587C14.4646 24.587 14.6981 24.667 14.9559 24.828C15.7554 25.3276 17.2991 27.9389 17.8643 28.9546C18.0538 29.2951 18.3772 29.439 18.6687 29.439C19.2469 29.439 19.6989 28.8732 18.7216 28.1542C17.2527 27.0721 17.7682 25.3038 18.4692 25.1949C18.4991 25.1904 18.5294 25.188 18.5595 25.1878C19.197 25.1878 19.4783 26.2694 19.4783 26.2694C19.4783 26.2694 20.3025 28.3069 21.7184 29.6995C23.0033 30.9637 23.1827 32.0012 22.4342 33.2951ZM27.0129 33.5338L26.9395 33.5424L26.8141 33.5567C26.7483 33.5633 26.6824 33.5697 26.6162 33.5758L26.5516 33.5815L26.4928 33.5864L26.409 33.593C26.3782 33.5952 26.3475 33.5976 26.3167 33.5995L26.2245 33.6056L26.2042 33.6067L26.1317 33.611L26.1009 33.6125L26.0149 33.6167L25.915 33.6208L25.8242 33.6238L25.7637 33.6255H25.7331C25.7142 33.6255 25.6954 33.6266 25.6765 33.6267H25.6464C25.6275 33.6267 25.6088 33.6267 25.5899 33.6277L25.513 33.6286H25.4054C25.321 33.6286 25.2369 33.6277 25.1528 33.6262L25.0847 33.6247C25.0655 33.6247 25.046 33.6237 25.0268 33.6232L24.9547 33.621L24.865 33.6176L24.7843 33.6142L24.7633 33.6133L24.6865 33.6093C24.6652 33.6081 24.6438 33.6071 24.6227 33.6057L24.573 33.6029C24.5106 33.599 24.4482 33.5946 24.3858 33.5898L24.3204 33.5847L24.2379 33.5778L24.1414 33.569C24.0876 33.5641 24.0338 33.5587 23.98 33.5528H23.9774C24.7632 31.8272 24.3658 30.2157 22.7779 28.6538C21.7366 27.6302 21.0437 26.1182 20.9001 25.7863C20.6092 24.8038 19.8391 23.7116 18.5603 23.7116C18.4522 23.7117 18.3444 23.7202 18.2376 23.7368C17.6772 23.8235 17.1875 24.141 16.8381 24.6186C16.4607 24.1564 16.0936 23.7889 15.7618 23.5812C15.2614 23.2691 14.7623 23.1107 14.2757 23.1107C13.6687 23.1107 13.1259 23.3561 12.7476 23.8013L12.7382 23.8126L12.7168 23.7244L12.716 23.7207C12.644 23.4177 12.5836 23.1121 12.5348 22.8047C12.5348 22.8025 12.5348 22.8005 12.5337 22.7984L12.5231 22.7289C12.5173 22.6913 12.5117 22.6536 12.5062 22.616C12.5017 22.5847 12.4973 22.5534 12.4931 22.5222C12.489 22.4911 12.4845 22.4598 12.4808 22.4285C12.4766 22.397 12.4729 22.3657 12.4691 22.3343C12.4654 22.3046 12.462 22.2748 12.4586 22.245L12.4576 22.2374C12.4421 22.0999 12.4288 21.9623 12.4177 21.8245L12.4116 21.7448C12.4099 21.723 12.4084 21.701 12.407 21.6788C12.407 21.6737 12.4063 21.6685 12.406 21.6638L12.4003 21.5754C12.3982 21.5434 12.3967 21.5114 12.395 21.4794C12.3932 21.4476 12.3915 21.4156 12.3901 21.3835L12.3867 21.2997L12.3857 21.2743L12.3831 21.1968L12.3812 21.1311C12.3812 21.1049 12.38 21.0785 12.3795 21.0522L12.3781 20.9695C12.3778 20.9419 12.3781 20.9145 12.3774 20.8869C12.3766 20.8591 12.3774 20.8315 12.3774 20.8038C12.3774 13.7201 18.2116 7.97707 25.4085 7.97707C32.6053 7.97707 38.4394 13.7197 38.4394 20.8038V20.9695C38.4394 20.9971 38.4387 21.0248 38.438 21.0522C38.438 21.0753 38.4371 21.0978 38.4364 21.1208C38.4364 21.1413 38.4356 21.1616 38.4347 21.1814C38.4347 21.2073 38.4332 21.233 38.4323 21.2589V21.2611C38.4301 21.3173 38.4277 21.3735 38.4253 21.4297L38.4242 21.4483L38.4198 21.5322L38.4156 21.5988C38.406 21.7563 38.3935 21.9139 38.3781 22.0712V22.0734C38.3754 22.1028 38.3723 22.1324 38.369 22.1619C38.3615 22.2304 38.3537 22.299 38.346 22.3675L38.3372 22.4364L38.3264 22.5173C38.3226 22.5469 38.3185 22.5764 38.3142 22.6058C38.3095 22.6388 38.3046 22.6717 38.2997 22.7045L38.2877 22.782L38.2736 22.87C38.2688 22.8993 38.264 22.9284 38.2583 22.9577C38.2525 22.9868 38.248 23.0159 38.2428 23.0452C38.2325 23.1034 38.2219 23.1615 38.2103 23.2196C38.1875 23.3352 38.1636 23.4504 38.1383 23.5655C38.1319 23.5941 38.1254 23.6229 38.1187 23.6515C37.7519 23.3006 37.2664 23.1095 36.7306 23.1095C36.2445 23.1095 35.7448 23.2678 35.2447 23.5801C34.9126 23.7876 34.5459 24.1552 34.1681 24.6174C33.8182 24.1396 33.3285 23.8223 32.7688 23.7354C32.6621 23.719 32.5541 23.7106 32.4459 23.7104C31.1669 23.7104 30.3972 24.8026 30.1061 25.7851C29.9619 26.117 29.2689 27.6288 28.2265 28.6542C26.6398 30.211 26.2393 31.8154 27.0129 33.5338ZM40.4657 30.0796L40.4606 30.0947C40.4569 30.1043 40.4533 30.114 40.4494 30.1235C40.4432 30.1379 40.4367 30.1519 40.4298 30.166C40.4131 30.1995 40.3942 30.232 40.3734 30.2631C40.3447 30.3053 40.3132 30.3455 40.279 30.3835C40.2711 30.3923 40.2635 30.4009 40.2546 30.4095C40.2425 30.4225 40.2296 30.4352 40.2169 30.4479C39.9853 30.6739 39.6325 30.8718 39.2336 31.0535C39.1883 31.0737 39.1426 31.0938 39.0962 31.114L39.0501 31.1341C39.0193 31.1475 38.9887 31.1608 38.9564 31.1739C38.9249 31.1871 38.8933 31.2001 38.8617 31.213L38.7657 31.2521C38.5413 31.343 38.3114 31.4294 38.087 31.5151L37.9913 31.5517L37.8964 31.5882C37.8334 31.6124 37.7712 31.6366 37.7098 31.6608L37.6185 31.697L37.5289 31.7333L37.4847 31.7514C37.4555 31.7636 37.4266 31.7754 37.3981 31.7876C36.7382 32.0662 36.2636 32.3497 36.3633 32.7016C36.3661 32.7116 36.3692 32.721 36.3726 32.7302C36.3815 32.7562 36.3938 32.781 36.4089 32.804C36.4178 32.8179 36.4281 32.8309 36.4397 32.8427C36.5569 32.9626 36.7703 32.9436 37.0394 32.8485C37.0612 32.8407 37.0836 32.8324 37.1061 32.8236C37.1216 32.8179 37.1369 32.8118 37.1524 32.8057L37.1756 32.796C37.2371 32.7703 37.3023 32.7417 37.369 32.7104C37.3857 32.7028 37.4025 32.6953 37.4194 32.6865C37.7483 32.5283 38.1213 32.3148 38.4913 32.1207C38.548 32.0904 38.6049 32.0614 38.6615 32.0327C38.754 31.9855 38.8474 31.9399 38.9416 31.8964C39.292 31.7343 39.6213 31.6192 39.8863 31.6192C40.0104 31.6192 40.1203 31.6442 40.2116 31.7018L40.2269 31.7118C40.2731 31.7439 40.3134 31.7834 40.3462 31.8287C40.3538 31.8394 40.3617 31.8504 40.3684 31.8617C40.3756 31.8734 40.3825 31.8854 40.389 31.8976C40.5199 32.142 40.4103 32.3954 40.1542 32.6437C39.9081 32.882 39.5254 33.1157 39.0902 33.3322C39.058 33.3483 39.0255 33.3644 38.9928 33.3799C37.6979 34.0059 36.0026 34.4772 35.9789 34.4832C35.527 34.5984 34.8808 34.7499 34.153 34.8631L34.0452 34.8795L34.0276 34.8821C33.8626 34.9065 33.697 34.928 33.5311 34.9466L33.5158 34.9481C33.214 34.9819 32.9045 35.0065 32.5945 35.0168H32.5899C32.4784 35.0209 32.3672 35.0227 32.2558 35.0227H32.1275C31.9576 35.0204 31.7879 35.0129 31.6185 35.0001C31.6146 35.0001 31.6105 35.0001 31.6063 34.9992C31.5458 34.9946 31.4851 34.9891 31.4248 34.9825C31.3209 34.9715 31.2172 34.9579 31.1139 34.942C31.0737 34.9354 31.0307 34.9285 30.9892 34.9214C30.9703 34.918 30.9516 34.9146 30.9328 34.9109L30.9284 34.91C30.8687 34.8988 30.8094 34.8865 30.7502 34.8731C30.716 34.8655 30.6816 34.8579 30.6478 34.8489L30.6275 34.8437C30.6106 34.8396 30.5941 34.8352 30.5776 34.8308L30.5685 34.8284L30.5154 34.8134C30.4961 34.808 30.477 34.8024 30.4578 34.7968L30.4509 34.7948L30.4008 34.7797C30.3819 34.7739 30.3632 34.7678 30.3445 34.7619C30.329 34.7568 30.3137 34.7516 30.2982 34.7467L30.2643 34.735C30.2317 34.7238 30.1993 34.712 30.167 34.6998L30.1364 34.6881L30.1111 34.6781C30.0625 34.6588 30.014 34.6387 29.966 34.6175L29.934 34.6025L29.9287 34.6001C29.9173 34.5949 29.9062 34.5896 29.8948 34.5849C29.8726 34.5744 29.8506 34.5635 29.8288 34.5525L29.8223 34.5493L29.7906 34.5329C29.7344 34.5041 29.6792 34.4733 29.6252 34.4405L29.5956 34.4227C29.5803 34.4136 29.5664 34.4043 29.5518 34.395L29.5133 34.3698C29.4993 34.3606 29.4854 34.3513 29.4718 34.3417L29.4471 34.3244C29.4209 34.3059 29.3953 34.2872 29.37 34.2677C29.3566 34.2575 29.3434 34.247 29.3302 34.2374C29.3008 34.2142 29.272 34.1903 29.2437 34.1658L29.2425 34.1648C29.2148 34.1413 29.1878 34.1169 29.1615 34.092L29.1601 34.0903C29.1464 34.0774 29.1329 34.0646 29.1195 34.0512C29.1063 34.0378 29.0929 34.0246 29.08 34.0113C29.0669 33.9977 29.0538 33.984 29.0411 33.97C29.0287 33.9568 29.0167 33.9434 29.0047 33.9299L29.0005 33.9253C28.9385 33.8544 28.8804 33.7801 28.8265 33.7027L28.8052 33.6717C28.7911 33.6513 28.7772 33.6306 28.7634 33.61L28.7229 33.5485C28.7029 33.5186 28.6835 33.4883 28.6646 33.4578C28.651 33.4361 28.6376 33.4145 28.6243 33.3926C28.6132 33.374 28.602 33.3556 28.5913 33.3373C28.5853 33.3273 28.5796 33.3172 28.574 33.307C28.5683 33.2965 28.5616 33.2858 28.5556 33.2752L28.5459 33.2584C28.5427 33.2528 28.5416 33.2511 28.5399 33.2474C28.5282 33.2273 28.5169 33.2068 28.5059 33.186C28.5009 33.177 28.4959 33.1679 28.4906 33.1589L28.4751 33.1298L28.4598 33.1008L28.4302 33.0421C28.4254 33.0325 28.4208 33.0228 28.4161 33.0132C28.406 32.9924 28.3963 32.9719 28.3867 32.9514C28.3829 32.9431 28.379 32.9348 28.3755 32.9265C28.3623 32.8982 28.3497 32.8696 28.3379 32.8407C28.3298 32.8216 28.3224 32.8026 28.3145 32.7837C28.2923 32.7278 28.2715 32.6714 28.2524 32.6144C28.2467 32.5975 28.2411 32.5807 28.2361 32.5638C28.2237 32.5254 28.2125 32.4866 28.2026 32.4475C28.1903 32.402 28.1795 32.356 28.1704 32.3097C28.1646 32.2825 28.1594 32.2551 28.1551 32.2275C28.1505 32.2002 28.1465 32.173 28.1432 32.1459C28.1362 32.0919 28.1312 32.0378 28.1283 31.9834C28.1283 31.9744 28.1274 31.9653 28.1272 31.9563C28.1264 31.9384 28.1259 31.9205 28.1257 31.9025C28.1161 31.1795 28.488 30.484 29.2829 29.7019C30.6987 28.3094 31.5229 26.2717 31.5229 26.2717C31.5229 26.2717 31.5451 26.1863 31.5914 26.0634C31.6069 26.0226 31.623 25.982 31.64 25.9419C31.6595 25.8965 31.6803 25.8516 31.7026 25.8076L31.7092 25.7948C31.7379 25.7386 31.769 25.6839 31.8029 25.6306C31.8106 25.6182 31.8182 25.6059 31.8271 25.5937C31.8522 25.5568 31.8789 25.5211 31.9069 25.4864C31.9286 25.4598 31.9516 25.4341 31.9758 25.4097C32.058 25.3264 32.1517 25.2584 32.2578 25.222L32.2712 25.2178C32.2802 25.2149 32.289 25.2122 32.2981 25.2097C32.3087 25.2069 32.3194 25.2044 32.33 25.2022L32.3349 25.2014C32.3574 25.197 32.3799 25.1939 32.4028 25.1924H32.4048C32.4167 25.1924 32.4286 25.1912 32.4408 25.1912C32.4712 25.1914 32.5015 25.1937 32.5316 25.1983C32.6591 25.2181 32.7807 25.2929 32.8853 25.4084L32.8994 25.4246C32.9334 25.4639 32.9643 25.5059 32.9919 25.5499C33.0125 25.5825 33.0319 25.6169 33.0503 25.6529C33.0577 25.6682 33.0648 25.682 33.0718 25.6969C33.0753 25.7046 33.0787 25.712 33.082 25.7198C33.0888 25.7349 33.0952 25.7501 33.1016 25.766C33.1375 25.8567 33.1653 25.9503 33.185 26.0458C33.2058 26.1489 33.2178 26.2535 33.2212 26.3586C33.2224 26.4048 33.2224 26.4515 33.2212 26.4989C33.2204 26.5168 33.2195 26.5349 33.2181 26.553C33.204 26.7543 33.1595 26.9523 33.0859 27.1407C33.0785 27.1593 33.0704 27.1783 33.0629 27.1972C33.0259 27.2842 32.9829 27.3685 32.9344 27.4497C32.9067 27.4961 32.8768 27.5422 32.8448 27.5879L32.8252 27.6153C32.7494 27.7195 32.6648 27.8174 32.5723 27.9078C32.4812 27.9976 32.3835 28.0807 32.2802 28.1567C32.1765 28.232 32.0794 28.3157 31.9896 28.4065C31.7312 28.6736 31.671 28.9091 31.7291 29.0876C31.736 29.1078 31.7441 29.1276 31.7534 29.1467C31.7748 29.1882 31.8027 29.2263 31.8361 29.2594L31.8452 29.2684C31.8546 29.2774 31.8646 29.286 31.8747 29.2943L31.8851 29.3026C31.9102 29.3215 31.9366 29.3385 31.9643 29.3532C31.9722 29.3574 31.9796 29.3617 31.9887 29.3657C32.0267 29.3843 32.0665 29.3992 32.1074 29.4106L32.1187 29.4134L32.134 29.4175L32.1474 29.4207L32.1617 29.4238L32.176 29.4267L32.1896 29.4289C32.1997 29.4307 32.21 29.4322 32.2202 29.4336L32.2302 29.4349L32.2479 29.4368L32.2589 29.4378L32.2771 29.4392H32.2876L32.3065 29.44H32.3662L32.3832 29.4392L32.4028 29.438L32.4267 29.4358L32.449 29.4331C32.454 29.4331 32.4592 29.4317 32.4643 29.4309C32.5431 29.4195 32.6198 29.3977 32.6923 29.3659C32.7078 29.3595 32.7231 29.3523 32.7372 29.3449C32.7675 29.33 32.7969 29.3132 32.8251 29.2948C32.8644 29.2694 32.9016 29.2408 32.9365 29.2097L32.9607 29.187C32.9645 29.1833 32.9685 29.1797 32.9721 29.1758C32.9958 29.1525 33.0182 29.1277 33.039 29.1019C33.0758 29.0562 33.1084 29.0076 33.1368 28.9565C33.4733 28.3542 33.826 27.7608 34.1944 27.1771L34.245 27.0974L34.296 27.0175C34.3217 26.9772 34.3473 26.9372 34.3729 26.8978L34.3989 26.858L34.4506 26.7787C34.5201 26.6729 34.5897 26.5683 34.6599 26.4647L34.7123 26.3875C34.8176 26.2342 34.9226 26.0849 35.0265 25.9429L35.0784 25.8728C35.1914 25.7191 35.3091 25.569 35.4314 25.4224L35.48 25.3652C35.488 25.3556 35.4953 25.3462 35.5041 25.3369L35.5517 25.2826C35.5597 25.2736 35.5672 25.2648 35.5755 25.2562L35.6216 25.2049L35.6448 25.1802C35.6671 25.1563 35.6898 25.1328 35.7129 25.1095C35.7283 25.0944 35.7426 25.0792 35.7576 25.0651C35.8447 24.9773 35.9409 24.8986 36.0445 24.8304L36.0684 24.8153L36.0927 24.8001C36.1082 24.7906 36.1238 24.7814 36.1398 24.7728C36.5463 24.5458 36.8829 24.5291 37.0765 24.7197C37.194 24.8353 37.2588 25.0267 37.2554 25.2929C37.2554 25.3048 37.2554 25.3165 37.2543 25.3286V25.3418C37.2543 25.3539 37.2533 25.3662 37.2524 25.3786C37.2524 25.3936 37.2505 25.4089 37.249 25.4239C37.2474 25.4392 37.2468 25.4507 37.2452 25.464C37.2452 25.4679 37.2444 25.4718 37.2438 25.4757C37.2426 25.4876 37.2411 25.4996 37.2395 25.5114C37.2395 25.5152 37.2395 25.5187 37.238 25.5224C37.2363 25.5385 37.2339 25.5546 37.2309 25.5705C37.2291 25.5852 37.2266 25.6 37.2237 25.6147C37.2225 25.6231 37.2208 25.6314 37.2194 25.6399C37.215 25.6639 37.2091 25.6878 37.2021 25.7112C37.1888 25.7548 37.1727 25.7976 37.1536 25.8393C37.1453 25.8574 37.1365 25.8755 37.1276 25.8933C37.109 25.93 37.0881 25.9676 37.065 26.0065C37.0535 26.0256 37.0416 26.0454 37.0289 26.0652L37.0097 26.0954C36.9901 26.1257 36.9696 26.1563 36.9483 26.1873C36.9269 26.2182 36.9041 26.2499 36.8795 26.2819C36.8477 26.3245 36.8142 26.368 36.7787 26.412L36.7519 26.4454C36.6761 26.5383 36.5984 26.6297 36.5189 26.7196L36.4558 26.7898L36.4237 26.8254C36.3798 26.8736 36.3358 26.9215 36.2914 26.9691L36.2574 27.0053C36.2349 27.0293 36.2113 27.0537 36.1888 27.0779C36.1658 27.1024 36.1424 27.1268 36.119 27.1512L36.0481 27.2246L35.9764 27.2983C35.9525 27.3228 35.9285 27.3477 35.9042 27.3722L35.7582 27.5203C35.061 28.2243 34.3263 28.9258 34.0777 29.3632C34.0612 29.3918 34.0462 29.4211 34.0326 29.451C33.9974 29.5306 33.9826 29.5986 33.9926 29.6536C33.9958 29.6717 34.0024 29.6892 34.0118 29.7049C34.0259 29.7288 34.0429 29.7508 34.0625 29.7704C34.0717 29.7792 34.0811 29.7875 34.0914 29.795C34.1425 29.8308 34.2044 29.8493 34.2672 29.8474H34.2868L34.3069 29.8461L34.3272 29.8437L34.3438 29.8413C34.3461 29.8412 34.3483 29.8406 34.3506 29.8401L34.3659 29.8373L34.37 29.8362L34.3868 29.8327L34.3929 29.8312L34.4109 29.8266L34.4324 29.8203C34.4465 29.8161 34.4606 29.8114 34.475 29.8061C34.5062 29.7953 34.5366 29.7828 34.5663 29.7687C34.5739 29.7652 34.5816 29.7618 34.589 29.7579L34.6119 29.7467C34.6418 29.7318 34.6716 29.7157 34.7015 29.6983C34.7254 29.6844 34.7491 29.6702 34.7728 29.6551L34.7959 29.6401C34.8034 29.6353 34.8112 29.6304 34.8188 29.6248L34.8416 29.6098L34.8537 29.6015L34.8867 29.5788C34.9174 29.5578 34.9462 29.5363 34.9754 29.5145L34.978 29.5126L35.0241 29.4774C35.0872 29.4283 35.1472 29.3789 35.2013 29.3324L35.2374 29.3011L35.2409 29.298L35.2596 29.2816C35.304 29.2425 35.3435 29.2059 35.3765 29.1756L35.3899 29.1628L35.4224 29.1325L35.4419 29.1139L35.4486 29.1071L35.4505 29.1052C35.467 29.089 35.467 29.089 35.4835 29.0726L35.4849 29.0712L35.4911 29.0658C35.4929 29.0638 35.4955 29.0617 35.4984 29.0592L35.5009 29.057L35.5074 29.0512L35.5423 29.0209L35.5619 29.0035C35.5715 28.9954 35.582 28.9861 35.5927 28.9761L35.6162 28.9558C35.6204 28.9524 35.6245 28.9485 35.6288 28.9448L35.6534 28.9236L35.6896 28.8925L35.7087 28.8761C35.7835 28.8119 35.8747 28.7346 35.979 28.6474L36.0218 28.6119L36.0927 28.5535L36.1649 28.4939C36.2595 28.4167 36.3613 28.3346 36.4689 28.2493L36.5396 28.1935C36.5997 28.1464 36.6616 28.0982 36.7242 28.0498C36.7493 28.0303 36.775 28.0108 36.8011 27.9915C36.8652 27.9428 36.9297 27.8942 36.9944 27.8463C37.1419 27.7366 37.294 27.6268 37.4479 27.5197L37.5141 27.4745C37.5602 27.443 37.6063 27.4117 37.6525 27.381L37.6943 27.3531C37.777 27.2983 37.8604 27.2446 37.9445 27.1921L37.9863 27.1662L38.0277 27.1409C38.0692 27.1156 38.1106 27.0906 38.1515 27.0664L38.1926 27.0424L38.275 26.9951C38.302 26.9797 38.3288 26.9647 38.3556 26.9498L38.3718 26.9408L38.4357 26.9064C38.4622 26.8922 38.4889 26.8785 38.5152 26.8651L38.5547 26.8452L38.5929 26.826C38.6803 26.7829 38.7691 26.7429 38.8596 26.7064C38.872 26.7013 38.8842 26.6964 38.8964 26.6911C38.9206 26.6812 38.9447 26.672 38.9686 26.6639C38.9925 26.6559 39.0161 26.6476 39.0393 26.6395C39.0604 26.6326 39.0809 26.6262 39.1008 26.6201L39.1075 26.618C39.1182 26.6148 39.1289 26.6118 39.1395 26.6091L39.1426 26.6082C39.1643 26.6021 39.1859 26.5965 39.2078 26.5915H39.2095C39.2416 26.5838 39.2729 26.5774 39.3035 26.5723C39.314 26.5706 39.3244 26.5689 39.3343 26.5676C39.3641 26.5632 39.394 26.5601 39.4239 26.5581C39.4428 26.5568 39.4619 26.5562 39.4808 26.5562H39.4953C39.5145 26.5562 39.5331 26.5574 39.5515 26.5593C39.5599 26.5593 39.5683 26.5608 39.5766 26.562H39.58C39.5883 26.5629 39.5967 26.5642 39.6048 26.5659C39.6129 26.5676 39.6211 26.5688 39.629 26.5706H39.6318C39.6397 26.5723 39.6471 26.5745 39.6553 26.5767C39.721 26.5942 39.7814 26.627 39.8314 26.6724L39.8359 26.6768L39.8447 26.6852L39.8533 26.6942C39.9222 26.7656 39.9793 26.8474 40.0223 26.9364L40.029 26.9515C40.0436 26.9853 40.0551 27.0203 40.0632 27.0562C40.0855 27.1563 40.0795 27.2605 40.0457 27.3573C40.031 27.3995 40.0132 27.4404 39.992 27.4797L39.9779 27.5048C39.9243 27.5933 39.861 27.6757 39.7889 27.7505L39.7735 27.7666C39.7396 27.802 39.7043 27.8363 39.6681 27.8693C39.6565 27.88 39.6447 27.8907 39.6326 27.9013L39.6144 27.9176C39.5766 27.9506 39.5379 27.9827 39.4987 28.0142C39.4918 28.0196 39.4848 28.025 39.4781 28.0308C39.4507 28.0525 39.4225 28.0745 39.3933 28.0965C39.2925 28.1723 39.1899 28.2454 39.0854 28.316C39.0238 28.3575 38.9602 28.3993 38.8945 28.4418C38.7721 28.5208 38.6488 28.5981 38.5243 28.674C38.4884 28.6958 38.4523 28.718 38.4155 28.74C38.0772 28.9448 37.7022 29.1638 37.3023 29.4019L37.1988 29.4639C37.0855 29.5319 36.9785 29.5969 36.8779 29.6587L36.8272 29.6902L36.7313 29.7508C36.6933 29.7745 36.6563 29.7978 36.6204 29.8208C36.5932 29.8379 36.5667 29.8549 36.5408 29.8716L36.4895 29.9048C36.4646 29.9209 36.4398 29.937 36.4151 29.9534L36.391 29.9684C36.3656 29.9852 36.3408 30.0016 36.3167 30.0179L36.2773 30.0443L36.2311 30.0759L36.1885 30.1052C36.121 30.1517 36.0545 30.1993 35.9885 30.2477L35.9654 30.265C35.9395 30.2843 35.9144 30.3036 35.8901 30.3223L35.8585 30.3472C35.8052 30.3894 35.7569 30.4298 35.7132 30.4684L35.6919 30.4877C35.6797 30.4987 35.6676 30.5097 35.6563 30.5205C35.6482 30.528 35.6408 30.5356 35.6327 30.5431L35.6216 30.5539C35.597 30.5781 35.5731 30.603 35.5499 30.6285L35.5385 30.6414C35.5132 30.6702 35.4912 30.6978 35.4718 30.7247L35.4632 30.7369C35.4408 30.769 35.4211 30.803 35.4042 30.8384L35.3984 30.8508L35.3948 30.8594L35.3918 30.8668L35.3879 30.8772C35.3867 30.8807 35.3843 30.887 35.3829 30.8924C35.3758 30.9125 35.3707 30.9334 35.3673 30.9545L35.3655 30.9659L35.3642 30.9762L35.3633 30.9862V31.0393C35.3633 31.0437 35.3633 31.0483 35.3643 31.0529C35.3645 31.0556 35.3648 31.0583 35.3652 31.061C35.3652 31.0654 35.3664 31.0698 35.3669 31.0744L35.3702 31.093V31.0938C35.3714 31.0997 35.3726 31.1057 35.3741 31.1116C35.3757 31.1175 35.3772 31.1241 35.3791 31.1304C35.3846 31.1495 35.3913 31.1685 35.3991 31.1869C35.3991 31.1883 35.4003 31.1898 35.4008 31.1911C35.4028 31.1957 35.4047 31.2004 35.407 31.205C35.4154 31.2243 35.4249 31.2431 35.4352 31.2615L35.446 31.2807L35.4573 31.3L35.4692 31.3193C35.4713 31.3225 35.4735 31.3254 35.4761 31.3282L35.48 31.3323L35.4842 31.336L35.4888 31.3396C35.4919 31.3418 35.4952 31.3436 35.4986 31.3455C35.5021 31.347 35.5058 31.3487 35.5096 31.3501C35.5137 31.3514 35.5179 31.3526 35.522 31.3536C35.6212 31.3756 35.8251 31.2947 36.0959 31.1539L36.1446 31.1285L36.227 31.0843L36.2674 31.0623C36.2959 31.0471 36.3253 31.0302 36.3551 31.0134L36.4096 30.9831C36.7677 30.7802 37.1957 30.5194 37.6379 30.2648C37.6792 30.2409 37.7208 30.2172 37.7624 30.1935L37.846 30.1411C37.8878 30.1174 37.9294 30.094 37.9712 30.071C38.1489 29.9715 38.3291 29.8759 38.5112 29.7843L38.5929 29.7435C38.6472 29.7171 38.7011 29.6914 38.7542 29.6663C38.8572 29.6182 38.9612 29.5727 39.0663 29.5296L39.1239 29.5065L39.1309 29.5038C39.4359 29.3848 39.7126 29.3112 39.9365 29.3112C39.985 29.3109 40.0333 29.3148 40.0811 29.3229H40.0824C40.0979 29.3256 40.1119 29.3287 40.126 29.3322H40.1285C40.1492 29.3371 40.1695 29.3434 40.1891 29.3512C40.2047 29.3567 40.2198 29.3633 40.2344 29.3711C40.2986 29.4031 40.3534 29.4503 40.3944 29.5086C40.3978 29.5135 40.4011 29.5186 40.4042 29.5238C40.4193 29.5465 40.4324 29.5703 40.443 29.5954C40.4494 29.6098 40.4552 29.6247 40.4607 29.6408C40.4662 29.657 40.471 29.6726 40.476 29.6893C40.5125 29.8176 40.5089 29.9534 40.4657 30.0796Z" fill="#1F2225"/>
<path fill-rule="evenodd" clip-rule="evenodd" d="M37.9357 21.3878V21.305C37.9357 14.2329 32.1043 8.5 24.9078 8.5C17.7118 8.5 11.8781 14.2333 11.8781 21.305L11.8779 21.3327C11.8777 21.3511 11.8776 21.3693 11.8779 21.3878C11.8787 21.4153 11.879 21.4428 11.8788 21.4704L11.8798 21.5312L11.8801 21.5532L11.881 21.5833C11.8813 21.5995 11.8819 21.6155 11.8819 21.6318L11.8836 21.6975L11.8863 21.7747L11.8872 21.8L11.8906 21.88V21.8837L11.8954 21.9771V21.9795C11.8972 22.0114 11.8989 22.0434 11.9009 22.0751C11.9027 22.1047 11.9045 22.1341 11.9066 22.1635L11.9071 22.1687C11.9086 22.1939 11.9104 22.2193 11.9123 22.2444L11.9128 22.251C11.9145 22.2754 11.9164 22.2999 11.9185 22.324L11.9188 22.3288L11.9223 22.371C11.9326 22.4928 11.9446 22.6146 11.9584 22.7361L11.9592 22.7437L11.9695 22.833L11.9814 22.9269C11.9894 22.9894 11.9978 23.0518 12.0068 23.1141C12.0122 23.1518 12.0178 23.1893 12.0235 23.2268L12.0244 23.2314C12.0372 23.3162 12.0511 23.401 12.066 23.4855C12.1087 23.7307 12.159 23.9747 12.2166 24.217L12.2175 24.2209L12.223 24.2437C12.2281 24.2653 12.2333 24.2869 12.2388 24.3087L12.2482 24.2974C12.6265 23.853 13.1691 23.608 13.7762 23.608C14.2627 23.608 14.762 23.766 15.2621 24.0777C15.594 24.2849 15.9609 24.6519 16.3384 25.1134C16.6878 24.6364 17.1774 24.3195 17.7376 24.233C17.8445 24.2165 17.9525 24.208 18.0604 24.2079C19.3391 24.2079 20.1091 25.2984 20.4 26.2791C20.5436 26.6106 21.2365 28.1197 22.2811 29.1406C23.8689 30.6996 24.2662 32.3086 23.4805 34.0312H23.4831C23.5367 34.0369 23.5905 34.0423 23.6445 34.0472C23.6767 34.0503 23.7088 34.0533 23.741 34.056L23.7523 34.057C23.7759 34.0592 23.7996 34.0613 23.8233 34.063L23.8886 34.0682C23.9509 34.0729 24.0133 34.0772 24.076 34.0812L24.1256 34.0841L24.1649 34.0863L24.1895 34.0876L24.2662 34.0917L24.2872 34.0925L24.368 34.0959L24.4576 34.0993L24.5298 34.1013L24.5418 34.1018C24.5569 34.1023 24.5724 34.103 24.5877 34.103L24.604 34.1033C24.7055 34.1057 24.8067 34.1069 24.9082 34.1069H25.0158L25.0928 34.1061C25.1117 34.105 25.1305 34.105 25.1494 34.105H25.1793L25.2053 34.1045C25.2154 34.1042 25.2257 34.1039 25.2359 34.1039H25.2667L25.327 34.1022L25.4178 34.0991L25.5178 34.0949C25.5466 34.0937 25.5751 34.0924 25.6038 34.0908L25.6346 34.0892L25.6801 34.0866L25.7071 34.0851L25.7272 34.0839L25.8196 34.0778C25.8504 34.076 25.8811 34.0736 25.9119 34.0712L25.9955 34.0648L26.0544 34.0599L26.1189 34.0542C26.1851 34.0481 26.2511 34.0417 26.3168 34.0349C26.3587 34.0304 26.4004 34.0258 26.4421 34.0209L26.5155 34.0123C25.742 32.2967 26.1425 30.6951 27.7239 29.1421C28.7661 28.1186 29.459 26.6092 29.6034 26.2779C29.8945 25.297 30.6638 24.2067 31.9428 24.2067C32.051 24.2068 32.1589 24.2151 32.2657 24.2318C32.8253 24.3184 33.3151 24.6353 33.665 25.1122C34.0428 24.6507 34.4095 24.2837 34.7413 24.0766C35.2414 23.7648 35.7411 23.6068 36.2271 23.6068C36.7628 23.6068 37.2485 23.7978 37.6153 24.1479C37.6354 24.0597 37.6548 23.9715 37.6734 23.8829C37.6847 23.8277 37.6959 23.7723 37.7069 23.7167C37.7203 23.6484 37.733 23.5798 37.7447 23.5112C37.7478 23.4926 37.7511 23.474 37.7547 23.4553C37.7604 23.426 37.7654 23.3971 37.77 23.3677L37.7719 23.3566L37.7841 23.28L37.7961 23.2025L37.7963 23.2016C37.8011 23.1692 37.8061 23.1366 37.8106 23.104C37.8142 23.0793 37.8176 23.0546 37.8209 23.0298L37.8229 23.0156L37.8336 22.9348L37.8424 22.8661C37.8477 22.8208 37.8529 22.7755 37.8579 22.7301C37.8601 22.712 37.862 22.6937 37.8639 22.6755L37.8656 22.6608C37.8689 22.6305 37.8718 22.6005 37.8745 22.5702L37.8814 22.4999C37.8957 22.3441 37.9072 22.1883 37.9161 22.0322V22.0312L37.9208 21.9484L37.9216 21.9298L37.9251 21.8512C37.9264 21.8217 37.9277 21.7918 37.9287 21.7615V21.7593L37.9295 21.7375C37.9304 21.7189 37.9311 21.7004 37.9311 21.6819L37.9314 21.6743C37.9321 21.6571 37.9328 21.6392 37.9328 21.6214L37.9333 21.6062C37.9338 21.5885 37.9344 21.5709 37.9344 21.5532L37.9347 21.5381C37.9352 21.5155 37.9357 21.493 37.9357 21.4704V21.3878ZM21.6763 34.1799C22.708 32.6926 22.6349 31.5764 21.2191 30.1858C19.8033 28.7952 18.9792 26.7615 18.9792 26.7615C18.9792 26.7615 18.6716 25.5801 17.9702 25.6887C17.2687 25.7972 16.7541 27.5624 18.2227 28.643C19.6913 29.7235 17.9306 30.4562 17.3653 29.4422C16.7999 28.428 15.2566 25.8213 14.4563 25.3227C13.6562 24.8241 13.0934 25.1036 13.282 26.1312C13.3757 26.6413 14.2471 27.5119 15.0612 28.3253C15.8871 29.1507 16.6541 29.917 16.4902 30.1882C16.1648 30.7268 15.0185 29.5554 15.0185 29.5554C15.0185 29.5554 11.4293 26.3455 10.6479 27.182C9.92771 27.953 11.0384 28.6085 12.7501 29.6186C12.8957 29.7046 13.0456 29.7931 13.1992 29.8844C15.1574 31.0496 15.3098 31.3569 15.0319 31.7978C14.9293 31.9607 14.2737 31.5739 13.4674 31.0981C12.0928 30.287 10.2802 29.2176 10.0243 30.1748C9.80272 31.0033 11.1362 31.5109 12.3455 31.9713C13.353 32.3549 14.2746 32.7056 14.1391 33.1818C13.9986 33.6754 13.2372 33.2637 12.4047 32.8136C11.4703 32.3082 10.4464 31.7545 10.1115 32.3794C9.47811 33.5605 14.4802 34.9509 14.5213 34.961C16.1374 35.373 20.2417 36.2459 21.6763 34.1799ZM28.3237 34.1799C27.2918 32.6926 27.365 31.5764 28.7809 30.1858C30.1967 28.7952 31.0209 26.7615 31.0209 26.7615C31.0209 26.7615 31.3283 25.5801 32.0298 25.6887C32.7313 25.7972 33.246 27.5624 31.7772 28.643C30.3085 29.7235 32.0694 30.4562 32.6348 29.4422C33.2001 28.428 34.7427 25.8213 35.5428 25.3227C36.343 24.8241 36.9059 25.1036 36.7173 26.1312C36.6236 26.6413 35.7522 27.512 34.938 28.3255C34.1122 29.1507 33.3452 29.917 33.5091 30.1882C33.8344 30.7268 34.9817 29.5547 34.9817 29.5547C34.9817 29.5547 38.5707 26.3448 39.3521 27.1814C40.0723 27.9524 38.9615 28.608 37.2497 29.6182C37.1041 29.7041 36.9544 29.7924 36.8008 29.8839C34.8424 31.0489 34.6902 31.3564 34.9681 31.7971C35.0707 31.96 35.7263 31.5732 36.5325 31.0976C37.9072 30.2865 39.7198 29.2169 39.9757 30.1741C40.1973 31.0026 38.8638 31.5103 37.6543 31.9708C36.6468 32.3543 35.7254 32.705 35.8607 33.1813C36.0012 33.6748 36.7623 33.2631 37.5945 32.8129C38.5289 32.3075 39.5529 31.7537 39.888 32.3787C40.5214 33.5606 35.5186 34.9495 35.478 34.9599C33.8619 35.373 29.7576 36.2459 28.3237 34.1799Z" fill="white"/>
<path fill-rule="evenodd" clip-rule="evenodd" d="M28.8749 18.1906C29.0761 18.2639 29.2258 18.4873 29.3681 18.6997C29.5606 18.987 29.7398 19.2541 30.0147 19.1035C30.3391 18.9259 30.605 18.6532 30.7789 18.3197C30.9528 17.9864 31.0267 17.6073 30.9914 17.2305C30.9652 16.9488 30.8787 16.6766 30.738 16.4335C30.5973 16.1905 30.406 15.9826 30.1782 15.8248C29.9501 15.667 29.6909 15.5634 29.4194 15.5213C29.1478 15.4792 28.8705 15.4997 28.6075 15.5813C28.2558 15.6905 27.9434 15.9046 27.7098 16.1966C27.4763 16.4886 27.3318 16.8454 27.2949 17.2219C27.2581 17.5986 27.3305 17.978 27.5028 18.3122C27.6302 18.5591 27.913 18.4428 28.2114 18.3197C28.4454 18.2234 28.6889 18.123 28.8749 18.1906ZM20.1248 18.1907C19.9236 18.2641 19.7737 18.4875 19.6314 18.6999C19.4389 18.987 19.2597 19.2543 18.9848 19.1037C18.7425 18.9709 18.5318 18.7841 18.3678 18.5572C18.2038 18.3303 18.0907 18.0688 18.0365 17.7913C17.9824 17.5139 17.9885 17.2277 18.0546 16.953C18.1208 16.6784 18.2452 16.4223 18.4187 16.2031C18.5926 15.9841 18.8113 15.8075 19.0593 15.686C19.3072 15.5645 19.5784 15.5011 19.8529 15.5005C20.1275 15.4999 20.3988 15.562 20.6473 15.6824C20.8958 15.8027 21.1153 15.9784 21.2901 16.1966C21.5237 16.4887 21.6682 16.8455 21.7051 17.2222C21.7419 17.5988 21.6695 17.9782 21.497 18.3124C21.3693 18.5593 21.0865 18.4428 20.7881 18.3197C20.5543 18.2234 20.3107 18.123 20.1248 18.1907ZM27.5212 26.3958C28.9081 25.2697 29.4175 23.4317 29.4175 22.2993C29.4175 21.4042 28.833 21.6859 27.8975 22.1631L27.8448 22.1901C26.9859 22.6284 25.8428 23.2117 24.5879 23.2117C23.3328 23.2117 22.1897 22.6282 21.3311 22.19C20.3652 21.697 19.7594 21.3877 19.7594 22.2995C19.7594 23.4675 20.3014 25.3855 21.7891 26.5C21.9853 26.0893 22.2615 25.7248 22.6008 25.4292C22.9399 25.1337 23.3347 24.9136 23.7603 24.7825C23.9088 24.7369 24.0618 25.0003 24.2185 25.2699C24.3695 25.5302 24.5238 25.7962 24.681 25.7962C24.8483 25.7962 25.0128 25.534 25.1734 25.278C25.3412 25.0105 25.5047 24.7497 25.6629 24.8018C26.4593 25.0653 27.1254 25.6365 27.5212 26.3958Z" fill="#32343D"/>
<path d="M28 26.3687C27.2439 27.0459 26.2388 27.5 24.9302 27.5C23.7005 27.5 22.7387 27.0992 22 26.489C22.2056 26.0151 22.4949 25.5942 22.8499 25.2531C23.2049 24.9119 23.6182 24.6576 24.0635 24.506C24.3689 24.4024 24.6924 25.6764 25.0272 25.6764C25.3857 25.6764 25.7311 24.4105 26.0552 24.5283C26.8885 24.8326 27.5857 25.4922 28 26.3687Z" fill="#D5D3D3"/>
<path fill-rule="evenodd" clip-rule="evenodd" d="M16.9112 19.3296C16.7773 19.4031 16.6269 19.4544 16.4687 19.4803C16.3105 19.5063 16.1475 19.5066 15.9892 19.4812C15.8309 19.4556 15.6802 19.405 15.546 19.332C15.4117 19.259 15.2964 19.1651 15.2068 19.0557C15.1171 18.9463 15.0548 18.8234 15.0234 18.6945C14.992 18.5654 14.9922 18.4325 15.0239 18.3034C15.0556 18.1744 15.1183 18.0518 15.2082 17.9425C15.2982 17.8333 15.4138 17.7396 15.5482 17.6668C15.8187 17.5205 16.1492 17.4675 16.4675 17.5195C16.7857 17.5715 17.0657 17.7243 17.2461 17.9443C17.4264 18.1644 17.4925 18.4338 17.4297 18.6934C17.3669 18.9531 17.1804 19.1819 16.9112 19.3296ZM34.4583 19.3296C34.3243 19.4031 34.174 19.4544 34.0158 19.4803C33.8577 19.5063 33.6947 19.5066 33.5364 19.4812C33.3781 19.4556 33.2273 19.405 33.0931 19.332C32.9588 19.259 32.8436 19.1651 32.7539 19.0557C32.6641 18.9463 32.6018 18.8234 32.5705 18.6945C32.5392 18.5654 32.5394 18.4325 32.571 18.3034C32.6027 18.1744 32.6653 18.0518 32.7553 17.9425C32.8453 17.8333 32.9609 17.7396 33.0953 17.6668C33.3658 17.5205 33.6964 17.4675 34.0146 17.5195C34.3328 17.5715 34.6128 17.7243 34.7932 17.9443C34.9735 18.1644 35.0396 18.4338 34.9768 18.6934C34.914 18.9531 34.7275 19.1819 34.4583 19.3296Z" fill="#D3D3D3"/>
</g>
</svg>
