<?xml version="1.0" encoding="UTF-8"?>
<svg xmlns="http://www.w3.org/2000/svg" xmlns:xlink="http://www.w3.org/1999/xlink" width="150px" height="150px" viewBox="0 0 150 150" version="1.1">
<g id="surface1">
<path style=" stroke:none;fill-rule:evenodd;fill:rgb(45.098039%,16.862745%,95.294118%);fill-opacity:1;" d="M 62.292969 16.5625 C 55.265625 20.617188 49.558594 23.972656 49.609375 24.019531 C 49.664062 24.070312 55.410156 27.402344 62.386719 31.425781 C 74.671875 38.519531 75.078125 38.742188 75.410156 38.546875 C 75.597656 38.4375 81.304688 35.144531 88.089844 31.226562 C 94.878906 27.3125 100.472656 24.070312 100.523438 24.019531 C 100.578125 23.972656 96.257812 21.414062 90.925781 18.339844 C 85.59375 15.265625 79.847656 11.949219 78.152344 10.972656 L 75.066406 9.191406 L 62.292969 16.5625 M 32.453125 33.757812 C 25.515625 37.769531 19.839844 41.109375 19.839844 41.183594 C 19.839844 41.253906 25.546875 44.601562 32.515625 48.625 L 45.191406 55.933594 L 45.695312 55.683594 C 46.59375 55.234375 70.765625 41.253906 70.765625 41.183594 C 70.769531 41.082031 45.574219 26.570312 45.300781 26.515625 C 45.171875 26.488281 39.390625 29.75 32.453125 33.757812 M 92.082031 33.78125 C 85.089844 37.8125 79.367188 41.144531 79.367188 41.183594 C 79.371094 41.304688 104.636719 55.824219 104.859375 55.832031 C 105.085938 55.839844 130.363281 41.320312 130.363281 41.183594 C 130.363281 41.097656 105.195312 26.546875 104.949219 26.484375 C 104.863281 26.464844 99.074219 29.75 92.082031 33.78125 M 62.324219 50.941406 C 55.390625 54.949219 49.675781 58.273438 49.617188 58.328125 C 49.546875 58.402344 74.875 73.160156 75.070312 73.160156 C 75.078125 73.160156 80.832031 69.84375 87.855469 65.796875 C 97.332031 60.328125 100.578125 58.394531 100.457031 58.28125 C 100.222656 58.070312 75.148438 43.632812 75.03125 43.644531 C 74.976562 43.652344 69.257812 46.933594 62.324219 50.941406 M 17.625 59.660156 L 17.660156 74.472656 L 22.089844 77.03125 C 24.527344 78.4375 30.25 81.742188 34.808594 84.371094 L 43.09375 89.15625 L 43.058594 74.359375 L 43.023438 59.558594 L 30.476562 52.308594 C 23.578125 48.324219 17.855469 45.015625 17.761719 44.953125 C 17.625 44.867188 17.597656 47.808594 17.625 59.660156 M 119.894531 52.15625 C 112.972656 56.15625 107.21875 59.503906 107.109375 59.59375 C 106.9375 59.738281 106.910156 61.714844 106.910156 74.402344 C 106.910156 84.527344 106.953125 89.046875 107.050781 89.046875 C 107.128906 89.046875 112.898438 85.75 119.871094 81.722656 L 132.546875 74.402344 L 132.546875 59.632812 C 132.546875 51.511719 132.53125 44.867188 132.511719 44.871094 C 132.492188 44.875 126.8125 48.152344 119.894531 52.15625 M 47.316406 76.816406 L 47.316406 91.597656 L 60.035156 98.933594 C 67.027344 102.96875 72.796875 106.296875 72.851562 106.324219 C 72.910156 106.355469 72.953125 99.734375 72.953125 91.609375 L 72.953125 76.839844 L 60.792969 69.816406 C 54.105469 65.957031 48.339844 62.625 47.976562 62.417969 L 47.316406 62.039062 L 47.316406 76.816406 M 89.828125 69.511719 L 77.183594 76.828125 L 77.183594 91.601562 C 77.183594 99.730469 77.226562 106.351562 77.285156 106.320312 C 90.242188 98.859375 102.398438 91.816406 102.578125 91.664062 C 102.804688 91.46875 102.816406 90.589844 102.816406 76.820312 C 102.816406 65.195312 102.78125 62.183594 102.648438 62.191406 C 102.554688 62.195312 96.785156 65.488281 89.828125 69.511719 M 17.59375 94.113281 L 17.597656 108.886719 L 29.886719 115.976562 C 36.640625 119.878906 42.378906 123.175781 42.632812 123.308594 L 43.089844 123.550781 L 43.085938 108.789062 L 43.082031 94.023438 L 31.140625 87.136719 C 24.570312 83.347656 18.835938 80.042969 18.394531 79.792969 L 17.589844 79.339844 L 17.59375 94.113281 M 119.726562 86.714844 L 106.976562 94.078125 L 106.941406 108.8125 C 106.921875 116.914062 106.949219 123.546875 106.996094 123.546875 C 107.117188 123.546875 132.164062 109.085938 132.375 108.894531 C 132.511719 108.769531 132.539062 105.691406 132.511719 94.046875 L 132.476562 79.355469 L 119.726562 86.714844 M 47.351562 111.300781 L 47.386719 126.066406 L 60.171875 133.453125 L 72.953125 140.835938 L 72.953125 111.300781 L 60.441406 104.078125 C 53.5625 100.109375 47.792969 96.785156 47.625 96.695312 L 47.316406 96.535156 L 47.351562 111.300781 M 89.933594 103.90625 L 77.25 111.246094 L 77.214844 125.988281 C 77.195312 134.09375 77.226562 140.722656 77.285156 140.722656 C 77.339844 140.71875 83.09375 137.414062 90.066406 133.382812 L 102.75 126.050781 L 102.785156 111.296875 C 102.804688 103.183594 102.773438 96.550781 102.714844 96.554688 C 102.660156 96.5625 96.90625 99.871094 89.933594 103.90625 "/>
</g>
</svg>
