<svg xmlns="http://www.w3.org/2000/svg" color-interpolation-filters="sRGB" version="1.0" width="149" height="32" style="scale:9.4" viewBox="60.45 108.19 219.1 33.61">
  <g fill="#fff" class="icon-text-wrapper icon-svg-group iconsvg">
    <g class="iconsvg-imagesvg" transform="translate(60.45 108.193)">
      <path fill="none" d="M0 0h33.6v33.613H0z" class="image-rect"/>
      <svg width="33.6" height="33.613" class="image-svg-svg primary" filter="url(#a)" overflow="visible">
        <svg xmlns="http://www.w3.org/2000/svg" viewBox="0 0 748 748.29">
          <path fill="#f15a24" fill-rule="evenodd" d="M748 260.62V.53H316.58c-115.47 0-210.19 93.33-212.46 208.28h-.06v117.81h51.81V208.81h.06c2.27-86.36 73.78-156.47 160.65-156.47h379.57v156.47h-320.8c-30.8 0-59.18 16.51-59.18 51.81zM0 487.67v260.1h431.38c115.47 0 210.19-93.33 212.46-208.28h.06V421.67h-51.81v117.81H592C589.77 625.84 518.25 696 431.38 696H51.81V539.48h320.8c30.8 0 59.18-16.51 59.18-51.81zM103.62 591.3h321.89c45.88 0 62.35-28.08 62.35-71.37V313.79H748v230.35c0 96.48-65.14 178.46-153.61 204.15 59.12-47.12 101.8-118.84 101.8-204.15V365.6H539.67v154.33c0 70-40.28 124.21-114.16 124.21H103.62V591.3zM644.34 157H322.45c-45.88 0-62.35 28.08-62.35 71.36v206.15H0V204.15C0 107.68 65.14 25.7 153.61 0 94.49 47.12 51.81 118.84 51.81 204.15v178.54h156.48V228.36c0-70 40.28-124.21 114.16-124.21h321.89z"/>
        </svg>
      </svg>
      <defs>
        <filter id="a">
          <feColorMatrix class="icon-feColorMatrix" values="0 0 0 0 0.99609375 0 0 0 0 0.99609375 0 0 0 0 0.99609375 0 0 0 1 0"/>
        </filter>
      </defs>
    </g>
    <path d="M114.8 126.565q0 1.34-.43 2.42-.44 1.08-1.25 1.83-.8.76-1.95 1.17-1.15.41-2.57.41-2.27 0-4.05-.73-1.77-.72-2.92-1.65l2.27-2.27q.9.82 2.02 1.26.68.27 1.28.35.61.08.99.08.71 0 1.3-.17.58-.18 1.02-.48.93-.69.93-1.81 0-.68-.49-1.23-.38-.43-.99-.71-.49-.27-1.03-.44-.55-.16-.99-.3-.13-.05-.24-.06-.11-.02-.2-.07-.05 0-.16-.06-.57-.16-1.65-.57-1.08-.41-2.15-1.12-2.49-1.67-2.49-4.1 0-1.61.56-2.72t1.47-1.81q.9-.69 2.01-.99 1.1-.3 2.17-.3 1.97 0 3.31.46t2.13.93q.41.25.7.48.28.23.5.42l-2.32 2.35q-.74-.74-1.51-1.12-1.14-.54-2.4-.54-.55 0-1.09.13-.55.14-.96.36-1.2.74-1.2 1.94 0 .74.49 1.26.35.41.98.73.52.28 1.1.44.57.16 1.06.3l.33.08q.14.06.52.17.38.11.9.33.52.21 1.13.51.62.31 1.22.72 2.65 1.74 2.65 4.12Zm11.05-8.2h3.28v13.67h-3.28v-1.04q-.74.63-1.67 1.03-.93.39-2.08.39-1.34 0-2.43-.5-1.09-.51-1.87-1.38-.78-.88-1.21-2.05-.42-1.18-.42-2.52v-7.6h3.28v7.6q0 1.29.96 2.24.93.93 2.24.93 1.34 0 2.27-.93.93-.93.93-2.24v-7.6Zm12.54-.38q1.51 0 2.78.56 1.27.56 2.2 1.54.93.99 1.45 2.3.52 1.31.52 2.82 0 1.47-.52 2.78-.52 1.32-1.45 2.3-.93.98-2.2 1.54-1.27.57-2.78.57-1.66 0-2.92-.63l1.17-2.93q.66.28 1.48.28.79 0 1.5-.29t1.29-.86q1.15-1.15 1.15-2.76 0-1.64-1.15-2.79-1.21-1.15-2.79-1.15-1.64 0-2.79 1.15-1.15 1.15-1.15 2.79v12.3h-3.28v-19.16h3.28v1.09q.8-.63 1.83-1.04 1.04-.41 2.38-.41Zm22.28 8.86h-10.61q.28.63.8 1.12.57.57 1.28.86.71.29 1.51.29 1.12 0 1.99-.52l3.42 1.36q-.99 1.15-2.38 1.79-1.39.65-3.03.65-1.51 0-2.82-.57-1.31-.56-2.3-1.54-.98-.98-1.54-2.3-.56-1.31-.56-2.78 0-1.51.56-2.82.56-1.31 1.54-2.3.99-.98 2.3-1.54 1.31-.56 2.82-.56 1.5 0 2.81.56t2.3 1.54q.98.99 1.54 2.3.56 1.31.56 2.82 0 .87-.19 1.64Zm-7.02-5.58q-1.59 0-2.79 1.15-.52.52-.8 1.15h7.17q-.28-.63-.8-1.15-1.14-1.15-2.78-1.15Zm12-1.86q.76-.63 1.73-1.04.97-.41 2.2-.41v3.28q-1.64 0-2.79 1.15-1.14 1.2-1.14 2.79v6.86h-3.28v-13.69h3.28v1.06Zm13.36-6.5q1.97 0 3.72.75 1.75.75 3.05 2.05 1.3 1.3 2.05 3.05.75 1.74.75 3.71t-.75 3.72q-.75 1.75-2.05 3.05-1.3 1.3-3.05 2.05-1.75.75-3.72.75h-3.39l1.34-3.28h2.05q1.26 0 2.41-.48 1.15-.48 2.05-1.35.87-.9 1.35-2.04.48-1.13.48-2.42 0-1.25-.48-2.4t-1.35-2.05q-.9-.88-2.05-1.36-1.15-.47-2.41-.47h-4.64v15.85h-3.28v-19.13h7.92Zm20.61 5.46h3.28v13.67h-3.28v-1.04q-.74.63-1.66 1.03-.93.39-2.08.39-1.34 0-2.43-.5-1.1-.51-1.88-1.38-.78-.88-1.2-2.05-.42-1.18-.42-2.52v-7.6h3.28v7.6q0 1.29.95 2.24.93.93 2.24.93 1.34 0 2.27-.93.93-.93.93-2.24v-7.6Zm12.55-.38q1.5 0 2.77.56 1.28.56 2.2 1.54.93.99 1.45 2.3.52 1.31.52 2.82 0 1.47-.52 2.78-.52 1.32-1.45 2.3-.92.98-2.2 1.54-1.27.57-2.77.57-1.67 0-2.93-.63l1.18-2.93q.66.28 1.48.28.79 0 1.5-.29t1.28-.86q1.15-1.15 1.15-2.76 0-1.64-1.15-2.79-1.2-1.15-2.78-1.15-1.64 0-2.79 1.15-1.15 1.15-1.15 2.79v12.3h-3.28v-19.16h3.28v1.09q.79-.63 1.83-1.04 1.04-.41 2.38-.41Zm22.28 8.86h-10.61q.27.63.79 1.12.58.57 1.29.86.71.29 1.5.29 1.12 0 2-.52l3.41 1.36q-.98 1.15-2.37 1.79-1.4.65-3.04.65-1.5 0-2.81-.57-1.32-.56-2.3-1.54-.98-.98-1.54-2.3-.56-1.31-.56-2.78 0-1.51.56-2.82.56-1.31 1.54-2.3.98-.98 2.3-1.54 1.31-.56 2.81-.56 1.51 0 2.82.56 1.31.56 2.29 1.54.99.99 1.55 2.3.56 1.31.56 2.82 0 .87-.19 1.64Zm-7.03-5.58q-1.58 0-2.79 1.15-.52.52-.79 1.15H231q-.27-.63-.79-1.15-1.15-1.15-2.79-1.15Zm12-1.86q.77-.63 1.74-1.04.97-.41 2.2-.41v3.28q-1.64 0-2.79 1.15-1.15 1.2-1.15 2.79v6.86h-3.28v-13.69h3.28v1.06Zm13.37-6.5q1.97 0 3.72.75 1.75.75 3.04 2.05 1.3 1.3 2.05 3.05.76 1.74.76 3.71t-.76 3.72q-.75 1.75-2.05 3.05-1.29 1.3-3.04 2.05-1.75.75-3.72.75h-3.39l1.34-3.28h2.05q1.26 0 2.4-.48 1.15-.48 2.05-1.35.88-.9 1.36-2.04.48-1.13.48-2.42 0-1.25-.48-2.4t-1.36-2.05q-.9-.88-2.05-1.36-1.14-.47-2.4-.47h-4.65v15.85h-3.28v-19.13h7.93Zm24.35 8.91q1.1.76 1.75 1.96.66 1.21.66 2.63v.05q0 1.15-.44 2.18-.43 1.02-1.2 1.77-.77.76-1.78 1.19-1.01.44-2.16.44h-5.44l1.32-3.28h4.12q.96 0 1.63-.67.67-.67.67-1.63v-.05q0-.96-.67-1.63-.67-.67-1.63-.67h-6.69v7.93H264v-19.13h8.63q1.15 0 2.18.43 1.02.44 1.77 1.21.76.76 1.19 1.77.44 1.01.44 2.16v.06q0 .93-.29 1.76-.28.83-.78 1.52Zm-2.21-3.28v-.06q0-.95-.67-1.62-.67-.67-1.63-.67h-5.35v4.64h5.35q.96 0 1.63-.67.67-.67.67-1.62Z" class="tp-name iconsvg-namesvg"/>
  </g>
</svg>
