

<svg height="100%"  style="fill-rule:nonzero;clip-rule:evenodd;stroke-linecap:round;stroke-linejoin:round;" version="1.1" viewBox="0 0 1617.58 253.12" width="100%" xml:space="preserve" xmlns="http://www.w3.org/2000/svg"  xmlns:xlink="http://www.w3.org/1999/xlink">
<defs/>
<clipPath id="ArtboardFrame">
<rect height="253.12" width="1617.58" x="0" y="0"/>
</clipPath>
<g clip-path="url(#ArtboardFrame)" id="Layer-1" >
<g opacity="1" >
<g opacity="1" >
<path d="M-3.55271e-14 4.26326e-14L248.064 4.26326e-14L248.064 4.26326e-14L248.064 253.123L248.064 253.123L-3.55271e-14 253.123L-3.55271e-14 253.123L-3.55271e-14 4.26326e-14L-3.55271e-14 4.26326e-14Z" fill="#444444" fill-opacity="0" fill-rule="nonzero" opacity="1" stroke="none"/>
<path d="M248.064 88.1598L248.064 0.1793L104.99 0.1793C66.6956 0.1793 35.2828 31.7498 34.5299 70.6338L34.51 70.6338L34.51 110.486L51.6916 110.486L51.6916 70.6338L51.7116 70.6338C52.4646 41.4208 76.1797 17.705 104.99 17.705L230.868 17.705L230.868 70.6338L124.48 70.6338C114.265 70.6338 104.854 76.2188 104.854 88.1598L248.064 88.1598ZM-3.55271e-14 164.964L-3.55271e-14 252.947L143.061 252.947C181.355 252.947 212.768 221.377 213.521 182.493L213.54 182.493L213.54 142.638L196.358 142.638L196.358 182.489L196.329 182.489C195.589 211.702 171.87 235.435 143.061 235.435L17.182 235.435L17.182 182.489L123.571 182.489C133.785 182.489 143.197 176.905 143.197 164.964L-3.55271e-14 164.964ZM34.3641 200.019L141.115 200.019C156.33 200.019 161.792 190.52 161.792 175.876L161.792 106.146L248.064 106.146L248.064 184.066C248.064 216.702 226.461 244.433 197.121 253.123C216.727 237.184 230.882 212.923 230.882 184.066L230.882 123.671L178.974 123.671L178.974 175.876C178.974 199.555 165.616 217.893 141.115 217.893L34.3641 217.893L34.3641 200.019ZM213.686 53.1078L106.936 53.1078C91.7207 53.1078 86.2587 62.6068 86.2587 77.2468L86.2587 146.981L-3.55271e-14 146.981L-3.55271e-14 69.0578C-3.55271e-14 36.4248 21.6027 8.6935 50.9426 4.26326e-14C31.3363 15.9392 17.182 40.1998 17.182 69.0578L17.182 129.452L69.0766 129.452L69.0766 77.2468C69.0766 53.5678 82.4347 35.2308 106.936 35.2308L213.686 35.2308L213.686 53.1078Z" fill="#4527a4" fill-rule="evenodd" opacity="1" stroke="none" />
</g>
<path d="M401.257 138.347L401.257 138.347C401.257 145.074 400.199 151.149 398.083 156.571C395.917 161.993 392.841 166.586 388.854 170.352C384.917 174.167 380.118 177.104 374.458 179.162C368.798 181.221 362.473 182.25 355.484 182.25L355.484 182.25C344.311 182.25 334.344 180.417 325.583 176.752C316.872 173.138 309.686 168.996 304.026 164.327L304.026 164.327L320.785 147.233C325.214 151.35 330.185 154.512 335.698 156.721L335.698 156.721C339.045 158.077 342.195 158.955 345.148 159.357C348.15 159.759 350.587 159.96 352.457 159.96L352.457 159.96C355.952 159.96 359.151 159.533 362.055 158.679C364.909 157.776 367.42 156.571 369.585 155.065L369.585 155.065C374.162 151.601 376.451 147.057 376.451 141.434L376.451 141.434C376.451 138.021 375.245 134.933 372.834 132.172L372.834 132.172C370.963 130.013 368.527 128.231 365.525 126.825L365.525 126.825C363.113 125.47 360.578 124.365 357.92 123.512C355.213 122.709 352.777 121.956 350.611 121.253L350.611 121.253C349.971 121.002 349.381 120.851 348.839 120.801C348.298 120.701 347.806 120.525 347.363 120.274L347.363 120.274C347.117 120.274 346.723 120.123 346.182 119.822L346.182 119.822C343.376 119.019 339.316 117.588 334 115.53C328.684 113.471 323.393 110.66 318.127 107.095L318.127 107.095C305.871 98.7118 299.744 88.4198 299.744 76.2198L299.744 76.2198C299.744 68.1378 301.122 61.3098 303.878 55.7378C306.634 50.1648 310.252 45.6218 314.731 42.1068C319.16 38.6428 324.107 36.1578 329.57 34.6518C334.984 33.1458 340.325 32.3928 345.591 32.3928L345.591 32.3928C355.287 32.3928 363.433 33.5478 370.028 35.8568C376.623 38.1658 381.865 40.5008 385.754 42.8598L385.754 42.8598C387.772 44.1148 389.494 45.3198 390.922 46.4748C392.3 47.6298 393.53 48.6838 394.613 49.6378L394.613 49.6378L377.485 67.3338C373.843 63.6188 370.127 60.8078 366.337 58.8998L366.337 58.8998C360.726 56.1888 354.819 54.8338 348.618 54.8338L348.618 54.8338C345.911 54.8338 343.228 55.1598 340.571 55.8128C337.864 56.5158 335.501 57.4188 333.483 58.5238L333.483 58.5238C327.577 62.2388 324.624 67.1088 324.624 73.1328L324.624 73.1328C324.624 76.8478 325.83 80.0108 328.241 82.6208L328.241 82.6208C329.964 84.6798 332.376 86.5118 335.476 88.1188L335.476 88.1188C338.036 89.5238 340.743 90.6288 343.598 91.4318C346.403 92.2348 349.012 92.9878 351.423 93.6908L351.423 93.6908L353.86 94.2938C354.549 94.5948 355.828 95.0218 357.699 95.5738C359.569 96.1258 361.784 96.9538 364.343 98.0588C366.903 99.1128 369.684 100.393 372.686 101.899C375.737 103.456 378.74 105.263 381.693 107.321L381.693 107.321C394.736 116.057 401.257 126.399 401.257 138.347ZM482.839 76.5968L507.055 76.5968L507.055 179.539L482.839 179.539L482.839 171.707C479.197 174.87 475.087 177.455 470.509 179.463C465.932 181.421 460.812 182.4 455.152 182.4L455.152 182.4C448.557 182.4 442.577 181.145 437.212 178.635C431.847 176.075 427.245 172.611 423.406 168.243C419.567 163.825 416.589 158.679 414.473 152.806C412.406 146.882 411.372 140.556 411.372 133.829L411.372 133.829L411.372 76.5968L435.588 76.5968L435.588 133.829C435.588 140.305 437.95 145.928 442.675 150.697L442.675 150.697C447.253 155.366 452.765 157.7 459.213 157.7L459.213 157.7C465.809 157.7 471.395 155.366 475.973 150.697L475.973 150.697C480.55 146.028 482.839 140.405 482.839 133.829L482.839 133.829L482.839 76.5968ZM575.42 73.7348L575.42 73.7348C582.852 73.7348 589.693 75.1408 595.944 77.9518C602.195 80.7638 607.609 84.6288 612.186 89.5488C616.763 94.5198 620.332 100.293 622.891 106.87C625.451 113.446 626.73 120.525 626.73 128.106L626.73 128.106C626.73 135.485 625.451 142.464 622.891 149.04C620.332 155.667 616.763 161.44 612.186 166.36C607.609 171.28 602.195 175.146 595.944 177.957C589.693 180.819 582.852 182.25 575.42 182.25L575.42 182.25C567.249 182.25 560.063 180.668 553.862 177.506L553.862 177.506L562.5 155.441C565.748 156.847 569.39 157.55 573.426 157.55L573.426 157.55C577.314 157.55 581.006 156.822 584.5 155.366C587.995 153.91 591.17 151.751 594.024 148.89L594.024 148.89C599.684 143.116 602.515 136.188 602.515 128.106L602.515 128.106C602.515 119.872 599.684 112.869 594.024 107.095L594.024 107.095C588.069 101.322 581.203 98.4348 573.426 98.4348L573.426 98.4348C565.354 98.4348 558.488 101.322 552.828 107.095L552.828 107.095C547.168 112.869 544.338 119.872 544.338 128.106L544.338 128.106L544.338 171.331L544.338 220.731L520.122 220.731L520.122 76.4458L544.338 76.4458L544.338 84.6548C548.275 81.4918 552.779 78.8808 557.848 76.8228C562.967 74.7648 568.824 73.7348 575.42 73.7348ZM739.909 140.456L714.512 140.456L661.577 140.456C662.955 143.618 664.924 146.43 667.483 148.89L667.483 148.89C670.289 151.751 673.439 153.91 676.934 155.366C680.428 156.822 684.144 157.55 688.082 157.55L688.082 157.55C693.594 157.55 698.491 156.244 702.773 153.634L702.773 153.634L728.023 163.875C723.15 169.649 717.293 174.142 710.452 177.355C703.61 180.618 696.153 182.25 688.082 182.25L688.082 182.25C680.65 182.25 673.71 180.819 667.262 177.957C660.814 175.146 655.154 171.28 650.281 166.36C645.458 161.44 641.668 155.667 638.912 149.04C636.156 142.464 634.778 135.485 634.778 128.106L634.778 128.106C634.778 120.525 636.156 113.446 638.912 106.87C641.668 100.293 645.458 94.5198 650.281 89.5488C655.154 84.6288 660.814 80.7638 667.262 77.9518C673.71 75.1408 680.65 73.7348 688.082 73.7348L688.082 73.7348C695.464 73.7348 702.38 75.1408 708.827 77.9518C715.275 80.7638 720.935 84.6288 725.808 89.5488C730.631 94.5198 734.421 100.293 737.177 106.87C739.934 113.446 741.312 120.525 741.312 128.106L741.312 128.106C741.312 132.473 740.844 136.59 739.909 140.456L739.909 140.456ZM688.082 98.4348L688.082 98.4348C680.256 98.4348 673.39 101.322 667.483 107.095L667.483 107.095C664.924 109.706 662.955 112.593 661.577 115.756L661.577 115.756L714.512 115.756C713.134 112.593 711.165 109.706 708.606 107.095L708.606 107.095C702.995 101.322 696.153 98.4348 688.082 98.4348ZM776.676 84.4288L776.676 84.4288C780.416 81.2658 784.674 78.6548 789.448 76.5968C794.222 74.5388 799.636 73.5088 805.69 73.5088L805.69 73.5088L805.69 98.2088C797.618 98.2088 790.752 101.096 785.092 106.87L785.092 106.87C779.481 112.894 776.676 119.897 776.676 127.88L776.676 127.88L776.676 179.539L752.46 179.539L752.46 127.88L752.46 76.4458L776.676 76.4458L776.676 84.4288ZM875.31 35.4798L875.31 35.4798C885.006 35.4798 894.161 37.3628 902.774 41.1278C911.388 44.8938 918.894 50.0388 925.293 56.5658C931.692 63.0918 936.736 70.7478 940.428 79.5338C944.119 88.2688 945.965 97.5818 945.965 107.472L945.965 107.472C945.965 117.362 944.119 126.7 940.428 135.485C936.736 144.271 931.692 151.927 925.293 158.453C918.894 164.98 911.388 170.126 902.774 173.891C894.161 177.656 885.006 179.539 875.31 179.539L875.31 179.539L850.282 179.539L860.175 154.839L875.31 154.839C881.512 154.839 887.443 153.634 893.103 151.224C898.763 148.814 903.808 145.426 908.238 141.058L908.238 141.058C912.52 136.54 915.842 131.419 918.205 125.696C920.567 120.023 921.748 113.948 921.748 107.472L921.748 107.472C921.748 101.197 920.567 95.1718 918.205 89.3988C915.842 83.6248 912.52 78.4798 908.238 73.9608L908.238 73.9608C903.808 69.5428 898.763 66.1298 893.103 63.7198C887.443 61.3598 881.512 60.1798 875.31 60.1798L875.31 60.1798L841.054 60.1798L841.054 119.822L841.054 154.839L841.054 179.539L816.838 179.539L816.838 35.4798L875.31 35.4798ZM1027.47 76.5968L1051.69 76.5968L1051.69 179.539L1027.47 179.539L1027.47 171.707C1023.83 174.87 1019.75 177.455 1015.22 179.463C1010.64 181.421 1005.52 182.4 999.859 182.4L999.859 182.4C993.269 182.4 987.289 181.145 981.919 178.635C976.509 176.075 971.879 172.611 968.039 168.243C964.199 163.825 961.249 158.679 959.179 152.806C957.109 146.882 956.079 140.556 956.079 133.829L956.079 133.829L956.079 76.5968L980.299 76.5968L980.299 133.829C980.299 140.305 982.629 145.928 987.309 150.697L987.309 150.697C991.889 155.366 997.399 157.7 1003.85 157.7L1003.85 157.7C1010.44 157.7 1016.03 155.366 1020.61 150.697L1020.61 150.697C1025.18 146.028 1027.47 140.405 1027.47 133.829L1027.47 133.829L1027.47 76.5968ZM1120.13 73.7348L1120.13 73.7348C1127.51 73.7348 1134.33 75.1408 1140.58 77.9518C1146.88 80.7638 1152.29 84.6288 1156.82 89.5488C1161.4 94.5198 1164.97 100.293 1167.52 106.87C1170.08 113.446 1171.36 120.525 1171.36 128.106L1171.36 128.106C1171.36 135.485 1170.08 142.464 1167.52 149.04C1164.97 155.667 1161.4 161.44 1156.82 166.36C1152.29 171.28 1146.88 175.146 1140.58 177.957C1134.33 180.819 1127.51 182.25 1120.13 182.25L1120.13 182.25C1111.91 182.25 1104.7 180.668 1098.5 177.506L1098.5 177.506L1107.21 155.441C1110.46 156.847 1114.1 157.55 1118.13 157.55L1118.13 157.55C1122.02 157.55 1125.71 156.822 1129.21 155.366C1132.7 153.91 1135.85 151.751 1138.66 148.89L1138.66 148.89C1144.32 143.116 1147.15 136.188 1147.15 128.106L1147.15 128.106C1147.15 119.872 1144.32 112.869 1138.66 107.095L1138.66 107.095C1132.75 101.322 1125.91 98.4348 1118.13 98.4348L1118.13 98.4348C1110.06 98.4348 1103.2 101.322 1097.54 107.095L1097.54 107.095C1091.88 112.869 1089.05 119.872 1089.05 128.106L1089.05 128.106L1089.05 171.331L1089.05 220.731L1064.83 220.731L1064.83 76.4458L1089.05 76.4458L1089.05 84.6548C1092.93 81.4918 1097.44 78.8808 1102.56 76.8228C1107.67 74.7648 1113.53 73.7348 1120.13 73.7348ZM1284.62 140.456L1259.15 140.456L1206.28 140.456C1207.61 143.618 1209.56 146.43 1212.12 148.89L1212.12 148.89C1214.97 151.751 1218.15 153.91 1221.64 155.366C1225.14 156.822 1228.83 157.55 1232.72 157.55L1232.72 157.55C1238.23 157.55 1243.15 156.244 1247.48 153.634L1247.48 153.634L1272.66 163.875C1267.83 169.649 1262 174.142 1255.16 177.355C1248.27 180.618 1240.79 182.25 1232.72 182.25L1232.72 182.25C1225.33 182.25 1218.42 180.819 1211.97 177.957C1205.47 175.146 1199.81 171.28 1194.99 166.36C1190.17 161.44 1186.38 155.667 1183.62 149.04C1180.86 142.464 1179.49 135.485 1179.49 128.106L1179.49 128.106C1179.49 120.525 1180.86 113.446 1183.62 106.87C1186.38 100.293 1190.17 94.5198 1194.99 89.5488C1199.81 84.6288 1205.47 80.7638 1211.97 77.9518C1218.42 75.1408 1225.33 73.7348 1232.72 73.7348L1232.72 73.7348C1240.15 73.7348 1247.09 75.1408 1253.53 77.9518C1259.98 80.7638 1265.62 84.6288 1270.44 89.5488C1275.31 94.5198 1279.13 100.293 1281.88 106.87C1284.64 113.446 1286.02 120.525 1286.02 128.106L1286.02 128.106C1286.02 132.473 1285.55 136.59 1284.62 140.456L1284.62 140.456ZM1232.72 98.4348L1232.72 98.4348C1224.94 98.4348 1218.07 101.322 1212.12 107.095L1212.12 107.095C1209.56 109.706 1207.61 112.593 1206.28 115.756L1206.28 115.756L1259.15 115.756C1257.82 112.593 1255.87 109.706 1253.31 107.095L1253.31 107.095C1247.65 101.322 1240.79 98.4348 1232.72 98.4348ZM1321.31 84.4288L1321.31 84.4288C1325.1 81.2658 1329.38 78.6548 1334.16 76.5968C1338.93 74.5388 1344.34 73.5088 1350.4 73.5088L1350.4 73.5088L1350.4 98.2088C1342.33 98.2088 1335.46 101.096 1329.8 106.87L1329.8 106.87C1324.14 112.894 1321.31 119.897 1321.31 127.88L1321.31 127.88L1321.31 179.539L1297.09 179.539L1297.09 127.88L1297.09 76.4458L1321.31 76.4458L1321.31 84.4288ZM1420.02 35.4798L1420.02 35.4798C1429.71 35.4798 1438.87 37.3628 1447.48 41.1278C1456.1 44.8938 1463.58 50.0388 1469.93 56.5658C1476.32 63.0918 1481.37 70.7478 1485.06 79.5338C1488.8 88.2688 1490.67 97.5818 1490.67 107.472L1490.67 107.472C1490.67 117.362 1488.8 126.7 1485.06 135.485C1481.37 144.271 1476.32 151.927 1469.93 158.453C1463.58 164.98 1456.1 170.126 1447.48 173.891C1438.87 177.656 1429.71 179.539 1420.02 179.539L1420.02 179.539L1394.99 179.539L1404.88 154.839L1420.02 154.839C1426.22 154.839 1432.13 153.634 1437.74 151.224C1443.4 148.814 1448.44 145.426 1452.87 141.058L1452.87 141.058C1457.2 136.54 1460.55 131.419 1462.91 125.696C1465.27 120.023 1466.46 113.948 1466.46 107.472L1466.46 107.472C1466.46 101.197 1465.27 95.1718 1462.91 89.3988C1460.55 83.6248 1457.2 78.4798 1452.87 73.9608L1452.87 73.9608C1448.44 69.5428 1443.4 66.1298 1437.74 63.7198C1432.13 61.3598 1426.22 60.1798 1420.02 60.1798L1420.02 60.1798L1385.69 60.1798L1385.69 119.822L1385.69 154.839L1385.69 179.539L1361.47 179.539L1361.47 35.4798L1420.02 35.4798ZM1599.79 102.577L1599.79 102.577C1605.2 106.393 1609.51 111.313 1612.71 117.337C1615.96 123.412 1617.58 130.013 1617.58 137.142L1617.58 137.142L1617.58 137.519C1617.58 143.292 1616.5 148.764 1614.33 153.935C1612.22 159.056 1609.26 163.499 1605.47 167.264C1601.68 171.08 1597.3 174.067 1592.33 176.225C1587.36 178.434 1582.05 179.539 1576.39 179.539L1576.39 179.539L1536.22 179.539L1545.97 154.839L1576.39 154.839C1581.11 154.839 1585.12 153.157 1588.42 149.793C1591.72 146.43 1593.37 142.338 1593.37 137.519L1593.37 137.519L1593.37 137.142C1593.37 132.323 1591.72 128.231 1588.42 124.867C1585.12 121.504 1581.11 119.822 1576.39 119.822L1576.39 119.822L1566.49 119.822L1527 119.822L1527 154.839L1527 179.539L1502.78 179.539L1502.78 119.822L1502.78 95.1218L1502.78 35.4798L1566.49 35.4798C1572.15 35.4798 1577.52 36.5598 1582.59 38.7188C1587.61 40.9278 1591.96 43.9648 1595.66 47.8298C1599.4 51.6458 1602.32 56.0888 1604.44 61.1588C1606.61 66.2298 1607.69 71.6518 1607.69 77.4248L1607.69 77.4248L1607.69 77.8768C1607.69 82.5458 1606.98 86.9638 1605.55 91.1308C1604.17 95.2978 1602.25 99.1128 1599.79 102.577ZM1583.47 77.8768L1583.47 77.4248C1583.47 72.6558 1581.82 68.5898 1578.53 65.2258C1575.23 61.8618 1571.22 60.1798 1566.49 60.1798L1566.49 60.1798L1527 60.1798L1527 95.1218L1566.49 95.1218C1571.22 95.1218 1575.23 93.4398 1578.53 90.0768C1581.82 86.7128 1583.47 82.6458 1583.47 77.8768L1583.47 77.8768Z" fill="#ffffff" fill-rule="evenodd" opacity="1" stroke="none" />
</g>
</g>
</svg>
