<!-- <svg width="131" height="35" viewBox="0 0 131 35" fill="none" xmlns="http://www.w3.org/2000/svg">
<g opacity="0.5">
<path d="M34.9747 17.58H30.2605V12.839H35.2306C37.0498 12.839 37.9594 13.6414 37.9594 15.2465C37.9594 16.8024 36.9641 17.5808 34.9747 17.5808M38.3628 12.7838C37.7128 12.2053 36.8129 11.916 35.6515 11.916L28.9004 11.9534V23.2959H30.2605L30.2483 18.4672H35.272C36.5314 18.4672 37.5235 18.178 38.247 17.5995C38.9705 17.021 39.3325 16.2182 39.3325 15.1916C39.3325 14.165 39.0095 13.3627 38.3636 12.7838H38.3628ZM47.1671 20.9141C47.037 21.2851 46.8149 21.6171 46.5215 21.8789C45.9122 22.4737 44.9826 22.7706 43.7322 22.7706C42.6028 22.7706 41.7367 22.4863 41.1322 21.9037C40.5277 21.3211 40.225 20.5521 40.225 19.5828C40.225 19.0782 40.3043 18.6301 40.4623 18.2393C40.6203 17.8485 40.8499 17.5186 41.1505 17.2497C41.7761 16.6797 42.6366 16.3945 43.7326 16.3945C46.1604 16.3945 47.3747 17.4573 47.3747 19.5828C47.3747 20.0878 47.3056 20.5314 47.1715 20.9141M47.4181 16.7297C46.5894 15.9741 45.3625 15.5922 43.7367 15.5922C42.201 15.5922 41.014 15.9781 40.1771 16.75C39.4215 17.4487 39.0396 18.3913 39.0396 19.5783C39.0396 20.7564 39.4296 21.7071 40.2096 22.4302C40.6402 22.8202 41.142 23.1029 41.7152 23.2776C42.2884 23.4523 42.9607 23.5397 43.7326 23.5397C45.3495 23.5397 46.5764 23.1659 47.4262 22.4184C48.1819 21.7359 48.5638 20.7934 48.5638 19.5779C48.5638 18.3592 48.1819 17.4085 47.4181 16.7252V16.7297ZM57.7036 21.2419C57.7036 22.7686 56.3357 23.532 53.6005 23.532C52.7644 23.532 52.0599 23.4791 51.4879 23.3727C50.9159 23.2663 50.4508 23.0904 50.0937 22.8454C49.8181 22.6589 49.5923 22.4079 49.436 22.1141C49.2735 21.8135 49.1678 21.4357 49.1191 20.9766L50.3919 20.9644C50.3919 21.5657 50.6145 22.0077 51.0602 22.2921C51.5383 22.6333 52.3845 22.8039 53.6005 22.8039C55.5123 22.8039 56.4686 22.3246 56.4686 21.3666C56.4686 20.806 56.1436 20.4209 55.5066 20.2088C55.3766 20.1682 54.6035 20.0605 53.1909 19.8863C51.7784 19.712 50.8916 19.5552 50.543 19.417C49.7882 19.1164 49.4108 18.5761 49.4108 17.7969C49.4108 17.0332 49.748 16.4644 50.4264 16.0915C50.7595 15.9371 51.1759 15.8177 51.676 15.7319C52.1761 15.6462 52.755 15.604 53.4132 15.604C56.0465 15.604 57.3631 16.4303 57.3631 18.0821H56.1525C56.1525 16.9202 55.2263 16.3352 53.3758 16.3352C52.4341 16.3352 51.7317 16.4571 51.269 16.6887C50.8063 16.9202 50.5751 17.2858 50.5751 17.7733C50.5751 18.2283 50.8879 18.5574 51.5127 18.7605C51.8784 18.8662 52.7185 18.988 54.0339 19.1262C55.2112 19.2318 56.0193 19.3821 56.4576 19.573C57.2945 19.898 57.7121 20.4505 57.7121 21.2293L57.7036 21.2419ZM62.7029 23.311L62.1849 23.3841L61.862 23.4085C61.0332 23.4085 60.4401 23.2886 60.0692 23.0481C59.6983 22.8076 59.5195 22.3871 59.5195 21.7887V16.607H58.014V15.8457H59.5118L59.524 13.4001H60.6843V15.8457H62.7049V16.6192L60.6843 16.607V21.6433C60.6843 22.0183 60.7838 22.277 60.9828 22.4152C61.1819 22.5533 61.537 22.6289 62.0488 22.6289C62.122 22.637 62.2032 22.6345 62.2926 22.6207C62.4281 22.5966 62.5623 22.566 62.6948 22.5289L62.707 23.3008L62.7029 23.311ZM70.7284 21.5925C70.4115 21.8525 70.0508 22.0508 69.6449 22.1897C69.2391 22.3286 68.7723 22.3928 68.245 22.3928C65.818 22.3928 64.605 21.3906 64.605 19.3866C64.605 18.4534 64.9154 17.723 65.5365 17.1952C66.1577 16.6675 67.0315 16.4039 68.1601 16.4039C69.2964 16.4039 70.1588 16.67 70.7471 17.2013C71.3353 17.7327 71.6299 18.4453 71.6299 19.3382C71.6299 20.312 71.3293 21.0628 70.7288 21.5901M72.7905 15.8477H71.6303L71.6181 17.1274C71.1062 16.6074 70.7406 16.2796 70.5212 16.1414C69.8712 15.7839 69.0311 15.606 67.9996 15.606C66.4892 15.606 65.3354 15.9513 64.54 16.6411C63.7844 17.2749 63.4074 18.1918 63.4074 19.3931C63.4074 19.9862 63.5028 20.5151 63.6938 20.9774C63.8847 21.4398 64.1634 21.8399 64.5294 22.1645C65.3265 22.8299 66.453 23.1631 67.9094 23.1631C69.6579 23.1631 70.8982 22.6849 71.6307 21.7282V23.0526C71.6307 23.8976 71.3646 24.5508 70.8328 25.014C70.301 25.4771 69.426 25.7046 68.2076 25.7046C67.062 25.7046 66.2462 25.5421 65.7591 25.2317C65.3935 24.9892 65.1416 24.5687 65.0035 23.9703H63.8091C63.9391 24.806 64.2966 25.4105 64.8654 25.7834C65.5316 26.2132 66.6529 26.4281 68.2373 26.4281C71.2679 26.4281 72.7873 25.3016 72.7873 23.0481V15.851L72.7905 15.8477ZM79.0671 16.6005C78.7177 16.5436 78.3935 16.5192 78.0937 16.5192C76.1864 16.5192 75.2329 17.5653 75.2329 19.6567V23.2943H74.0848L74.0727 15.851L75.2333 15.8623V17.1908H75.2943C75.4893 16.6675 75.798 16.2706 76.2197 16.0005C76.682 15.7388 77.3718 15.608 78.2891 15.608H79.0679V16.6074L79.0671 16.6005ZM80.1465 19.1022C80.2928 18.2564 80.6218 17.6015 81.1325 17.1376C81.4656 16.8694 81.8434 16.6675 82.2651 16.5335C82.6868 16.3994 83.1589 16.332 83.6902 16.332C84.7213 16.332 85.559 16.6147 86.2171 17.1802C86.8753 17.7457 87.197 18.3868 87.197 19.1018L80.1465 19.1022ZM87.3099 16.8057C86.9037 16.3982 86.3999 16.0972 85.7987 15.9013C85.1974 15.7055 84.4987 15.608 83.6862 15.608C82.1831 15.608 81.0171 15.9574 80.1875 16.6562C79.358 17.3549 78.9444 18.3055 78.9444 19.5088C78.9444 20.7122 79.3425 21.662 80.1388 22.3729C81.0001 23.1529 82.2107 23.5429 83.7821 23.5429C84.4077 23.5429 84.9858 23.4718 85.518 23.3305C86.0502 23.1891 86.5153 22.9884 86.913 22.7292C87.6118 22.2275 88.0538 21.6079 88.2415 20.8726H86.987C86.5563 22.1454 85.4851 22.782 83.7719 22.782C82.5621 22.782 81.6322 22.4708 80.983 21.8484C80.4224 21.315 80.1429 20.624 80.1429 19.7749H88.4154C88.4154 18.5123 88.0497 17.5223 87.3063 16.8093L87.3099 16.8057Z" fill="white"/>
<path d="M100.679 20.2539C100.679 22.4639 98.897 23.5689 95.3321 23.5689C93.1965 23.5689 91.6373 23.1882 90.655 22.4314C89.8506 21.8058 89.4492 20.8519 89.4492 19.5681H90.8841C90.8841 21.6311 92.3669 22.6626 95.3317 22.6626C96.7536 22.6626 97.7814 22.4513 98.4192 22.0296C98.9555 21.6567 99.2236 21.0721 99.2236 20.2771C99.2236 19.4897 98.858 18.938 98.1267 18.6212C97.7124 18.4505 96.7049 18.2352 95.092 17.976C93.0689 17.6673 91.7575 17.3594 91.1563 17.051C90.2869 16.596 89.8563 15.8254 89.8563 14.7378C89.8563 13.7234 90.2219 12.9686 90.9653 12.4734C91.7616 11.9298 93.1266 11.6576 95.0595 11.6576C98.5533 11.6576 100.3 12.8179 100.3 15.1384H98.8527C98.8527 13.3996 97.5556 12.5311 94.9616 12.5311C93.6604 12.5311 92.709 12.7058 92.1073 13.0592C91.5378 13.4329 91.2542 13.9814 91.2542 14.7045C91.2542 15.4601 91.6198 15.9923 92.3511 16.3011C92.7411 16.4798 93.8867 16.7276 95.788 17.0445C97.5755 17.3126 98.782 17.6255 99.4036 17.9789C100.257 18.4176 100.683 19.1773 100.683 20.2539H100.679ZM112.339 21.3816C111.802 21.8111 111.196 22.1332 110.521 22.3485C109.847 22.5638 109.09 22.6707 108.253 22.6707C106.545 22.6707 105.165 22.2104 104.112 21.2902C103.058 20.3701 102.533 19.1436 102.533 17.6108C102.533 16.0134 103.055 14.7687 104.099 13.8766C105.144 12.9844 106.529 12.5388 108.253 12.5388C110.001 12.5388 111.375 13.0052 112.375 13.9375C112.903 14.3925 113.293 14.9231 113.546 15.5312C113.799 16.1394 113.924 16.8329 113.924 17.6112C113.924 19.2005 113.395 20.4574 112.338 21.3812M113.101 22.1336C113.848 21.6063 114.402 20.9677 114.759 20.2169C115.117 19.4662 115.297 18.6 115.297 17.6177C115.297 15.8566 114.712 14.449 113.542 13.3813C112.916 12.7972 112.16 12.3629 111.275 12.0789C110.389 11.7949 109.377 11.6523 108.24 11.6523C106.03 11.6523 104.299 12.1886 103.04 13.2591C101.781 14.3295 101.151 15.7827 101.151 17.6169C101.151 19.402 101.786 20.8426 103.057 21.9378C104.329 23.0331 106.065 23.5811 108.266 23.5811C109.127 23.5811 109.878 23.523 110.519 23.4064C111.16 23.2898 111.705 23.1111 112.152 22.8702L114.272 24.3396L115.158 23.5262L113.105 22.134L113.101 22.1336ZM126.04 23.2943H116.231V11.9355L117.578 11.9111V22.3424H126.048L126.036 23.2906L126.04 23.2943Z" fill="#98A2AD"/>
<path d="M19.599 21.3871C19.7355 20.4243 19.6945 20.2829 20.5407 20.4389L20.756 20.4552C21.4068 20.4803 22.2579 20.3666 22.758 20.1696C23.8346 19.7462 24.4724 19.0394 23.4113 19.225C20.99 19.6483 20.8235 18.9528 20.8235 18.9528C23.38 15.7374 24.4489 11.6554 23.5267 10.656C21.0059 7.93125 16.6549 9.21988 16.5777 9.25359L16.5546 9.25766C16.076 9.17356 15.5406 9.12359 14.9393 9.11547C13.8437 9.10003 13.0125 9.35922 12.3816 9.76425C12.3816 9.76425 4.61161 7.0505 4.97318 13.1768C5.05036 14.48 7.17709 23.0377 9.71331 20.4527C10.6404 19.5074 11.5366 18.7083 11.5366 18.7083C12.0039 18.97 12.5389 19.0857 13.0726 19.0406L13.1157 19.0093C13.1023 19.1271 13.1075 19.2409 13.1331 19.3774C12.4799 19.9961 12.6716 20.1046 11.3651 20.3329C10.0436 20.5636 10.8199 20.9747 11.3269 21.0824C11.9416 21.2124 13.3635 21.3973 14.3243 20.2577L14.2861 20.3877C14.542 20.5616 14.525 21.6369 14.5615 22.4056C14.5981 23.1742 14.659 23.8912 14.8435 24.3141C15.0279 24.737 15.2465 25.8254 16.9633 25.5142C18.3981 25.2534 19.4954 24.8784 19.5958 21.3887" fill="#231F20"/>
<path d="M19.599 21.3871C19.7355 20.4243 19.6945 20.2829 20.5407 20.4389L20.756 20.4552C21.4068 20.4803 22.2579 20.3666 22.758 20.1696C23.8346 19.7462 24.4724 19.0394 23.4113 19.225C20.99 19.6483 20.8235 18.9528 20.8235 18.9528C23.38 15.7374 24.4488 11.6554 23.5267 10.656C21.0059 7.93125 16.6549 9.21988 16.5777 9.25359L16.5546 9.25766C16.076 9.17356 15.5406 9.12359 14.9393 9.11547C13.8437 9.10003 13.0125 9.35922 12.3816 9.76425C12.3816 9.76425 4.61161 7.0505 4.97318 13.1768C5.05036 14.48 7.17709 23.0377 9.71331 20.4527C10.6404 19.5074 11.5366 18.7083 11.5366 18.7083C12.0039 18.97 12.5389 19.0857 13.0726 19.0406L13.1157 19.0093C13.1023 19.1271 13.1075 19.2409 13.1331 19.3774C12.4799 19.9961 12.6716 20.1046 11.3651 20.3329C10.0436 20.5636 10.8199 20.9747 11.3269 21.0824C11.9416 21.2124 13.3635 21.3972 14.3243 20.2577L14.2861 20.3877C14.542 20.5616 14.525 21.6369 14.5615 22.4056C14.5981 23.1742 14.659 23.8912 14.8435 24.3141C15.0279 24.737 15.2465 25.8254 16.9633 25.5142C18.3981 25.2534 19.4954 24.8784 19.5958 21.3887" stroke="#231F20" stroke-width="1.66888"/>
<path d="M23.4097 19.225C20.9885 19.6483 20.8219 18.9528 20.8219 18.9528C23.3785 15.7369 24.4473 11.6549 23.5251 10.6559C21.0088 7.93122 16.6538 9.22026 16.5766 9.25397L16.553 9.25804C16.0745 9.17394 15.539 9.12397 14.9374 9.11585C13.8417 9.10082 13.0105 9.3596 12.38 9.76463C12.38 9.76463 4.60966 7.05088 4.97122 13.1771C5.04841 14.4804 7.17473 23.0385 9.71136 20.4531C10.6384 19.5077 11.5342 18.7087 11.5342 18.7087C12.0015 18.9704 12.5365 19.0861 13.0702 19.041L13.1137 19.0097C13.1003 19.1275 13.1064 19.2412 13.1312 19.3777C12.4779 19.9965 12.6697 20.1049 11.364 20.3333C10.042 20.564 10.8188 20.9751 11.3258 21.0828C11.9405 21.2128 13.3623 21.3976 14.3231 20.2581L14.2849 20.3881C14.5409 20.562 14.7208 21.5187 14.6912 22.3868C14.6615 23.255 14.6408 23.8494 14.8427 24.3149C15.0446 24.7805 15.2457 25.8262 16.9633 25.515C18.3982 25.2542 19.1421 24.579 19.2453 23.452C19.3184 22.6509 19.4849 22.7695 19.4951 22.0533L19.6284 21.7145C19.7819 20.6286 19.6527 20.2784 20.5367 20.4413L20.752 20.4576C21.4029 20.4828 22.2544 20.369 22.754 20.172C23.8306 19.7487 24.4684 19.0418 23.4073 19.2274L23.4097 19.225Z" fill="#5A5F65"/>
<path d="M14.4308 19.8475C14.3641 21.8678 14.447 23.9027 14.6806 24.3975C14.9142 24.8923 15.4135 25.8539 17.1311 25.5419C18.566 25.2811 19.088 24.7765 19.3143 23.6626C19.4768 22.8432 19.803 20.5669 19.8441 20.101M12.3719 9.718C12.3719 9.718 4.59218 7.02456 4.95781 13.1537C5.03906 14.4569 7.16131 23.015 9.69876 20.4256C10.6258 19.4802 11.4639 18.7388 11.4639 18.7388M16.5766 9.22644C16.3072 9.29794 20.9019 7.80294 23.5129 10.6309C24.4351 11.6302 23.3667 15.7122 20.8097 18.9281" stroke="white" stroke-width="0.556158" stroke-linecap="round" stroke-linejoin="round"/>
<path d="M20.8075 18.9277C20.8075 18.9277 20.97 19.6224 23.3953 19.1991C24.4565 19.0134 23.8178 19.7203 22.7413 20.144C21.8581 20.4914 19.878 20.5803 19.8459 20.1005C19.7626 18.8615 20.8879 19.2381 20.8067 18.9277C20.7336 18.6482 20.2298 18.374 19.8967 17.6899C19.6062 17.0927 15.9114 12.5134 20.9213 13.1935C21.1049 13.161 19.6143 9.15371 14.925 9.08871C10.2356 9.02371 10.3912 13.9759 10.3912 13.9759" stroke="white" stroke-width="0.556158" stroke-linecap="round" stroke-linejoin="bevel"/>
<path d="M13.118 19.3525C12.4639 19.9712 12.6565 20.0797 11.35 20.308C10.0281 20.5395 10.8048 20.9498 11.3118 21.0575C11.9265 21.1875 13.3483 21.3723 14.3091 20.232C14.6016 19.8847 14.3075 19.3301 13.9057 19.1896C13.7115 19.1213 13.4519 19.036 13.1176 19.3521L13.118 19.3525Z" stroke="white" stroke-width="0.556158" stroke-linejoin="round"/>
<path d="M13.0754 19.3427C13.0096 18.9786 13.2164 18.5464 13.4382 18.0394C13.7713 17.2797 14.5399 16.5192 13.9257 14.1081C13.4674 12.3113 10.3925 13.7344 10.3913 13.9781C10.3901 14.2219 10.5302 15.2131 10.3397 16.3669C10.0911 17.8732 11.4703 19.1468 13.0583 19.0168" stroke="white" stroke-width="0.556158" stroke-linecap="round" stroke-linejoin="round"/>
<path d="M12.3444 13.9382C12.3306 14.0215 12.5244 14.2429 12.7767 14.273C13.029 14.303 13.2439 14.1291 13.2581 14.0463C13.2723 13.9634 13.0785 13.8716 12.8259 13.8415C12.5732 13.8115 12.3579 13.8553 12.3444 13.9382Z" fill="white" stroke="white" stroke-width="0.18525"/>
<path d="M20.0183 13.7691C20.0321 13.8524 19.8387 14.0738 19.586 14.1039C19.3333 14.134 19.118 13.9601 19.1042 13.8764C19.0904 13.7927 19.2842 13.7017 19.5365 13.6716C19.7887 13.6416 20.0037 13.685 20.0179 13.7683L20.0183 13.7691Z" fill="white" stroke="white" stroke-width="0.0926252"/>
<path d="M20.9211 13.1934C20.9625 13.8462 20.7553 14.2902 20.7289 14.9857C20.6903 15.9957 21.2969 17.1511 20.3828 18.3089" stroke="white" stroke-width="0.556158" stroke-linecap="round" stroke-linejoin="round"/>
</g>
</svg> -->


<svg xmlns="http://www.w3.org/2000/svg" width="220" height="80" viewBox="18 5 131 80">
  <style>
    <![CDATA[
    .B {
      stroke-width: .866
    }

    .C {
      stroke: #fff
    }

    .D {
      stroke-linecap: round
    }

    .E {
      stroke-linejoin: round
    }
    ]]>
  </style>
  <path d="M13.56 43.927H8.34v-5.25h5.504c2.014 0 3.022.9 3.022 2.666 0 1.723-1.102 2.585-3.305 2.585m3.752-5.312c-.715-.64-1.716-.96-3.003-.96l-7.476.04v12.56H8.34l-.014-5.347h5.563c1.395 0 2.493-.32 3.294-.96s1.202-1.53 1.202-2.666-.358-2.026-1.073-2.666zm9.747 9.004a2.56 2.56 0 0 1-.715 1.068c-.675.66-1.704.987-3.1.987-1.25 0-2.2-.32-2.88-.96s-1.005-1.497-1.005-2.57c0-.56.088-1.055.263-1.488a2.92 2.92 0 0 1 .762-1.096c.692-.63 1.646-.947 2.86-.947 2.7 0 4.033 1.177 4.033 3.53 0 .56-.077 1.05-.23 1.474m.273-4.633c-.918-.837-2.277-1.256-4.077-1.256-1.7 0-3.015.428-3.942 1.283-.837.774-1.255 1.818-1.255 3.132 0 1.305.432 2.358 1.296 3.16.477.432 1.033.745 1.667.938s1.38.3 2.234.3c1.8 0 3.154-.414 4.1-1.242.837-.756 1.255-1.804 1.255-3.145 0-1.35-.423-2.403-1.27-3.16zm11.4 4.997c0 1.7-1.515 2.536-4.544 2.536-.926 0-1.706-.06-2.34-.176s-1.148-.313-1.544-.584a2.31 2.31 0 0 1-.728-.8c-.18-.323-.297-.75-.35-1.255l1.4-.013c0 .665.247 1.155.74 1.47.53.378 1.467.567 2.813.567 2.117 0 3.176-.53 3.176-1.592 0-.62-.355-1.047-1.065-1.28-.144-.045-1-.164-2.57-.357s-2.546-.367-2.933-.52c-.836-.333-1.254-.93-1.254-1.794a2.02 2.02 0 0 1 1.12-1.889c.37-.17.83-.303 1.384-.398s1.195-.142 1.924-.142c2.916 0 4.374.915 4.374 2.745h-1.34c0-1.286-1.025-1.93-3.075-1.93-1.043 0-1.82.13-2.333.4s-.77.66-.77 1.2c0 .504.346.868 1.038 1.093.405.117 1.335.252 2.792.405 1.304.117 2.198.283 2.684.5.926.36 1.4.97 1.4 1.834zm5.536 2.3l-.573.08-.358.027c-.918 0-1.58-.133-1.985-.4s-.6-.732-.6-1.4v-5.73h-1.67v-.843h1.66l.013-2.708h1.285v2.708h2.238v.857l-2.238-.014v5.577c0 .415.1.702.33.86s.614.237 1.18.237c.08.01.17.006.27-.01s.247-.05.445-.102l.014.86zm8.887-1.912a3.81 3.81 0 0 1-1.2.661c-.45.153-.966.23-1.55.23-2.688 0-4.03-1.1-4.03-3.33 0-1.033.344-1.842 1.03-2.426s1.656-.876 2.905-.876c1.258 0 2.213.294 2.865.883s.978 1.377.978 2.366c0 1.078-.333 1.9-.998 2.494m2.283-6.36h-1.285l-.014 1.417c-.566-.575-.97-.94-1.214-1.092-.72-.395-1.65-.593-2.792-.593-1.673 0-2.95.382-3.83 1.146-.836.7-1.254 1.717-1.254 3.047 0 .656.106 1.243.317 1.76s.52.955.925 1.314c.883.737 2.13 1.106 3.742 1.106 1.936 0 3.3-.53 4.12-1.6v1.467c0 .935-.295 1.66-.884 2.172s-1.558.77-2.907.77c-1.268 0-2.172-.175-2.7-.524-.405-.268-.684-.734-.836-1.397H45.5c.144.925.535 1.595 1.174 2.008.738.476 1.984.714 3.738.714 3.356 0 5.034-1.247 5.034-3.742v-7.983zm6.95.835a6.72 6.72 0 0 0-1.078-.094c-2.112 0-3.168 1.158-3.168 3.475v4.028h-1.27l-.014-8.243 1.285.013v1.47h.067c.216-.58.557-1.02 1.025-1.318.512-.3 1.276-.435 2.292-.435h.863v1.103zm1.196 2.766c.162-.937.526-1.662 1.092-2.176.37-.297.787-.52 1.254-.67s.994-.223 1.578-.223c1.142 0 2.074.313 2.798.94s1.095 1.336 1.095 2.13h-7.807m7.933-2.543a4.12 4.12 0 0 0-1.674-1.001c-.666-.217-1.444-.325-2.335-.325-1.665 0-2.956.387-3.874 1.16s-1.377 1.827-1.377 3.16.44 2.4 1.322 3.172c.953.864 2.298 1.296 4.035 1.296.692 0 1.333-.08 1.922-.235s1.104-.38 1.545-.665c.774-.556 1.263-1.24 1.47-2.056h-1.4c-.477 1.4-1.663 2.114-3.56 2.114-1.34 0-2.37-.344-3.1-1.034-.62-.6-.93-1.356-.93-2.296h9.16c0-1.398-.4-2.495-1.228-3.3z" fill="#fff" />
  <path d="M86.32 46.888c0 2.447-1.974 3.67-5.92 3.67-2.365 0-4.092-.42-5.18-1.265-.9-.693-1.335-1.75-1.335-3.17h1.6c0 2.285 1.64 3.427 4.925 3.427 1.574 0 2.713-.234 3.414-.7.594-.413.9-1.06.9-1.94 0-.872-.405-1.483-1.215-1.834-.46-.2-1.58-.427-3.36-.715-2.24-.342-3.693-.683-4.358-1.024-.962-.503-1.444-1.357-1.444-2.562 0-1.123.4-1.96 1.228-2.508.88-.602 2.393-.903 4.534-.903 3.87 0 5.803 1.285 5.803 3.855H84.3c0-1.925-1.437-2.887-4.3-2.887-1.44 0-2.494.194-3.16.58-.63.414-.945 1.02-.945 1.822 0 .837.405 1.426 1.215 1.768.43.198 1.7.472 3.806.824 1.98.297 3.315.643 4 1.04.945.486 1.417 1.327 1.417 2.524zm12.908 1.25a6.2 6.2 0 0 1-2.012 1.071c-.748.238-1.585.357-2.512.357-1.9 0-3.42-.5-4.586-1.53s-1.75-2.377-1.75-4.074c0-1.77.578-3.147 1.735-4.135s2.7-1.482 4.6-1.482c1.936 0 3.458.516 4.565 1.55.585.503 1.017 1.1 1.297 1.765s.42 1.44.42 2.303c0 1.76-.586 3.152-1.756 4.176m.845.833c.828-.584 1.44-1.3 1.837-2.123s.595-1.8.595-2.878c0-1.95-.648-3.514-1.944-4.7-.693-.647-1.53-1.128-2.5-1.442s-2.1-.472-3.36-.472c-2.447 0-4.368.593-5.763 1.78s-2.092 2.795-2.092 4.826c0 1.977.703 3.572 2.1 4.785s3.33 1.82 5.768 1.82c.953 0 1.785-.065 2.496-.193s1.313-.327 1.808-.594l2.348 1.627.98-.9-2.273-1.542zm14.33 1.283h-10.858V37.68l1.493-.027v11.55h9.38l-.014 1.05z" fill="#367faf" />
  <path d="M67.415 27.556c.197-1.64.138-1.88 1.36-1.614l.3.027c.94.043 2.167-.15 2.89-.486 1.553-.72 2.474-1.924.943-1.608-3.494.72-3.734-.462-3.734-.462 3.69-5.474 5.23-12.423 3.9-14.123-3.63-4.64-9.916-2.445-10.02-2.388l-.033.006c-.69-.143-1.463-.23-2.33-.243-1.58-.026-2.78.414-3.7 1.105 0 0-11.212-4.62-10.7 5.81.11 2.218 3.18 16.786 6.84 12.386 1.338-1.61 2.63-2.97 2.63-2.97.642.427 1.4.644 2.217.566l.062-.053a2.43 2.43 0 0 0 .025.626c-.943 1.053-.666 1.24-2.55 1.627-1.907.393-.787 1.093-.055 1.276.887.222 2.94.536 4.325-1.405l-.055.222c.37.296.345 2.127.397 3.435s.14 2.53.407 3.25.58 2.574 3.06 2.043c2.07-.444 3.654-1.082 3.798-7.023" fill="#231f20" stroke="#231f20" stroke-width="2.598" />
  <path d="M72.916 23.875c-3.494.72-3.734-.462-3.734-.462 3.69-5.474 5.23-12.423 3.9-14.124-3.63-4.64-9.916-2.445-10.02-2.388l-.034.006c-.69-.143-1.463-.23-2.33-.243-1.58-.026-2.78.414-3.7 1.105 0 0-11.212-4.62-10.7 5.81.11 2.22 3.18 16.786 6.84 12.386 1.338-1.61 2.63-2.97 2.63-2.97.642.427 1.41.644 2.216.566l.063-.053c-.02.2-.01.395.025.626-.943 1.053-.666 1.24-2.55 1.627-1.907.393-.787 1.093-.055 1.276.887.222 2.94.536 4.325-1.405l-.055.222c.37.296.63 1.925.585 3.4s-.072 2.49.22 3.282.58 2.574 3.06 2.043c2.07-.444 3.144-1.594 3.293-3.512.106-1.364.346-1.162.36-2.38l.192-.577c.222-1.85.035-2.445 1.31-2.167l.3.027c.94.043 2.168-.15 2.89-.486 1.553-.72 2.474-1.924.943-1.608z" fill="#417ba2" />
  <g fill="none" class="C B">
    <g class="D">
      <path d="M59.96 24.935c-.096 3.44.024 6.903.36 7.745s1.057 2.48 3.536 1.948c2.07-.444 2.824-1.303 3.15-3.2l.765-6.063M57 7.692s-11.22-4.586-10.7 5.842c.1 2.22 3.18 16.787 6.84 12.387 1.338-1.6 2.547-2.87 2.547-2.87M63.05 6.855c-.4.122 6.24-2.423 10.008 2.4 1.33 1.7-.2 8.65-3.9 14.124" class="E" />
      <path d="M69.157 23.37s.24 1.183 3.735.462c1.53-.316.6.887-.943 1.608-1.274.59-4.13.743-4.178-.074-.12-2.11 1.504-1.468 1.386-1.996-.106-.476-.832-.943-1.312-2.107-.42-1.017-5.75-8.812 1.48-7.654.265-.055-1.886-6.877-8.652-6.988s-6.542 8.32-6.542 8.32" stroke-linejoin="bevel" />
    </g>
    <g class="E">
      <path d="M58.066 24.09c-.943 1.053-.666 1.24-2.55 1.627-1.907.393-.787 1.093-.055 1.276.887.222 2.94.536 4.325-1.405.422-.59-.002-1.534-.582-1.775-.28-.116-.655-.26-1.136.277z" />
      <path d="M58.004 24.072c-.095-.62.204-1.356.523-2.22.48-1.294 1.6-2.588.703-6.692-.66-3.058-5.098-.637-5.1-.222s.2 2.102-.074 4.067c-.36 2.564 1.63 4.733 3.923 4.51" class="D" />
    </g>
  </g>
  <g fill="#fff" class="C">
    <path d="M56.948 14.877c-.02.142.26.52.623.57s.675-.245.694-.386-.26-.298-.624-.35-.675.023-.694.165z" stroke-width=".289" />
    <path d="M68.022 14.588c.02.142-.26.52-.623.57s-.675-.245-.695-.386.26-.298.624-.348.675.023.695.165z" stroke-width=".144" />
  </g>
  <path d="M69.323 13.608c.06 1.11-.24 1.868-.277 3.05-.056 1.72.82 3.687-.5 5.657" fill="none" class="B C D E" />
</svg>


