<svg xmlns="http://www.w3.org/2000/svg" width="25" height="24" viewBox="0 0 25 24" fill="none">
<path d="M12.3858 2.29654C11.5942 2.30029 10.8386 2.3676 10.1734 2.48535C8.21398 2.83147 7.85848 3.55597 7.85848 4.89229V6.65685H12.4884V7.24504H6.12073C4.77523 7.24504 3.59698 8.05372 3.22835 9.59272C2.8031 11.3562 2.78435 12.4568 3.22835 14.2982C3.55741 15.669 4.34341 16.6455 5.6891 16.6455H7.28116V14.5302C7.28116 13.0018 8.60323 11.6539 10.1735 11.6539H14.7982C16.0856 11.6539 17.1131 10.5938 17.1131 9.30116V4.89247C17.1131 3.63754 16.0545 2.69497 14.7982 2.48554C14.0025 2.35316 13.1773 2.29297 12.3858 2.29654ZM9.88198 3.71572C10.3601 3.71572 10.7509 4.11266 10.7509 4.60091C10.7509 5.0871 10.3603 5.48029 9.88198 5.48029C9.40198 5.48029 9.01329 5.0871 9.01329 4.60091C9.0131 4.11266 9.40198 3.71572 9.88198 3.71572Z" fill="url(#paint0_linear_677_18044)"/>
<path d="M17.6913 7.24506V9.30119C17.6913 10.8949 16.3398 12.2365 14.7989 12.2365H10.1743C8.9075 12.2365 7.85938 13.3208 7.85938 14.5894V18.9985C7.85938 20.2531 8.95025 20.9912 10.1743 21.3511C11.6398 21.7817 13.0452 21.8597 14.7989 21.3511C15.9644 21.0134 17.1138 20.3342 17.1138 18.9985V17.2337H12.4893V16.6454H19.4291C20.7746 16.6454 21.2763 15.7069 21.7443 14.2981C22.2277 12.8477 22.2069 11.4529 21.7443 9.59256C21.4117 8.25287 20.7766 7.24487 19.4291 7.24487H17.6913V7.24506ZM15.0901 18.4101C15.5703 18.4101 15.959 18.8033 15.959 19.2899C15.959 19.7777 15.5701 20.1747 15.0901 20.1747C14.612 20.1747 14.2214 19.7777 14.2214 19.2899C14.2214 18.8033 14.612 18.4101 15.0901 18.4101Z" fill="url(#paint1_linear_677_18044)"/>
<defs>
<linearGradient id="paint0_linear_677_18044" x1="2.4382" y1="2.84828" x2="13.117" y2="11.9551" gradientUnits="userSpaceOnUse">
<stop stop-color="white" stop-opacity="0"/>
<stop offset="1" stop-color="white"/>
</linearGradient>
<linearGradient id="paint1_linear_677_18044" x1="17.1357" y1="17.6161" x2="12.4232" y2="8.28933" gradientUnits="userSpaceOnUse">
<stop stop-color="white"/>
<stop offset="1" stop-color="white" stop-opacity="0"/>
</linearGradient>
</defs>
</svg>
