<svg width="51" height="51" viewBox="0 0 51 51" fill="none" xmlns="http://www.w3.org/2000/svg">
<path d="M22.251 8.01134C23.7984 6.43471 26.331 6.41104 27.9076 7.95848L43.4351 23.1984C45.0221 24.756 45.034 27.3091 43.4616 28.8815L27.8284 44.5147C26.2663 46.0768 23.7337 46.0768 22.1716 44.5147L6.93266 29.2758C5.38087 27.724 5.36913 25.2117 6.90635 23.6455L22.251 8.01134Z" stroke="#00684A" stroke-width="8"/>
<mask id="path-2-inside-1_1057_281" fill="white">
<path fill-rule="evenodd" clip-rule="evenodd" d="M29.3848 7.75736C27.0416 5.41421 23.2426 5.41421 20.8995 7.75736L6.75736 21.8995C4.41421 24.2426 4.41421 28.0416 6.75736 30.3848L20.8995 44.5269C23.2426 46.8701 27.0416 46.8701 29.3848 44.5269L43.5269 30.3848C45.8701 28.0416 45.8701 24.2426 43.5269 21.8995L29.3848 7.75736ZM18.5569 22.9289C17.7759 22.1479 16.5096 22.1479 15.7285 22.9289L14.3143 24.3431C13.5333 25.1242 13.5333 26.3905 14.3143 27.1716L15.7285 28.5858C16.5096 29.3668 17.7759 29.3668 18.5569 28.5858L19.9712 27.1716C20.7522 26.3905 20.7522 25.1242 19.9712 24.3431L18.5569 22.9289ZM35.5569 22.9289C34.7759 22.1479 33.5096 22.1479 32.7285 22.9289L31.3143 24.3431C30.5333 25.1242 30.5333 26.3905 31.3143 27.1716L32.7285 28.5858C33.5096 29.3668 34.7759 29.3668 35.5569 28.5858L36.9712 27.1716C37.7522 26.3905 37.7522 25.1242 36.9712 24.3431L35.5569 22.9289Z"/>
</mask>
<path fill-rule="evenodd" clip-rule="evenodd" d="M29.3848 7.75736C27.0416 5.41421 23.2426 5.41421 20.8995 7.75736L6.75736 21.8995C4.41421 24.2426 4.41421 28.0416 6.75736 30.3848L20.8995 44.5269C23.2426 46.8701 27.0416 46.8701 29.3848 44.5269L43.5269 30.3848C45.8701 28.0416 45.8701 24.2426 43.5269 21.8995L29.3848 7.75736ZM18.5569 22.9289C17.7759 22.1479 16.5096 22.1479 15.7285 22.9289L14.3143 24.3431C13.5333 25.1242 13.5333 26.3905 14.3143 27.1716L15.7285 28.5858C16.5096 29.3668 17.7759 29.3668 18.5569 28.5858L19.9712 27.1716C20.7522 26.3905 20.7522 25.1242 19.9712 24.3431L18.5569 22.9289ZM35.5569 22.9289C34.7759 22.1479 33.5096 22.1479 32.7285 22.9289L31.3143 24.3431C30.5333 25.1242 30.5333 26.3905 31.3143 27.1716L32.7285 28.5858C33.5096 29.3668 34.7759 29.3668 35.5569 28.5858L36.9712 27.1716C37.7522 26.3905 37.7522 25.1242 36.9712 24.3431L35.5569 22.9289Z" fill="#C4F801"/>
<path d="M20.8995 7.75736L27.9706 14.8284V14.8284L20.8995 7.75736ZM29.3848 7.75736L22.3137 14.8284V14.8284L29.3848 7.75736ZM6.75736 21.8995L13.8284 28.9706H13.8284L6.75736 21.8995ZM6.75736 30.3848L13.8284 23.3137H13.8284L6.75736 30.3848ZM20.8995 44.5269L27.9706 37.4558V37.4558L20.8995 44.5269ZM29.3848 44.5269L22.3137 37.4558L22.3137 37.4558L29.3848 44.5269ZM43.5269 30.3848L36.4558 23.3137L36.4558 23.3137L43.5269 30.3848ZM43.5269 21.8995L36.4558 28.9706H36.4558L43.5269 21.8995ZM15.7285 22.9289L22.7996 30L22.7996 30L15.7285 22.9289ZM18.5569 22.9289L11.4859 30L11.4859 30L18.5569 22.9289ZM14.3143 24.3431L21.3854 31.4142L21.3854 31.4142L14.3143 24.3431ZM14.3143 27.1716L21.3854 20.1005L21.3854 20.1005L14.3143 27.1716ZM15.7285 28.5858L8.65744 35.6568L8.65745 35.6568L15.7285 28.5858ZM18.5569 28.5858L25.628 35.6568L25.628 35.6568L18.5569 28.5858ZM19.9712 27.1716L12.9001 20.1005L12.9001 20.1005L19.9712 27.1716ZM19.9712 24.3431L12.9001 31.4142L12.9001 31.4142L19.9712 24.3431ZM32.7285 22.9289L39.7996 30L39.7996 30L32.7285 22.9289ZM35.5569 22.9289L28.4859 30L28.4859 30L35.5569 22.9289ZM31.3143 27.1716L38.3854 20.1005L38.3854 20.1005L31.3143 27.1716ZM32.7285 28.5858L25.6574 35.6568L25.6574 35.6568L32.7285 28.5858ZM35.5569 28.5858L42.628 35.6568L42.628 35.6568L35.5569 28.5858ZM36.9712 27.1716L29.9001 20.1005L29.9001 20.1005L36.9712 27.1716ZM36.9712 24.3431L29.9001 31.4142L29.9001 31.4142L36.9712 24.3431ZM27.9706 14.8284C26.4085 16.3905 23.8758 16.3905 22.3137 14.8284L36.4558 0.686293C30.2075 -5.5621 20.0768 -5.5621 13.8284 0.686292L27.9706 14.8284ZM13.8284 28.9706L27.9706 14.8284L13.8284 0.686291L-0.313708 14.8284L13.8284 28.9706ZM13.8284 23.3137C15.3905 24.8758 15.3905 27.4085 13.8284 28.9706L-0.313707 14.8284C-6.5621 21.0768 -6.5621 31.2075 -0.313708 37.4558L13.8284 23.3137ZM27.9706 37.4558L13.8284 23.3137L-0.31371 37.4558L13.8284 51.598L27.9706 37.4558ZM22.3137 37.4558C23.8758 35.8937 26.4085 35.8937 27.9706 37.4558L13.8284 51.598C20.0768 57.8464 30.2075 57.8464 36.4558 51.598L22.3137 37.4558ZM36.4558 23.3137L22.3137 37.4558L36.4558 51.598L50.598 37.4558L36.4558 23.3137ZM36.4558 28.9706C34.8937 27.4085 34.8937 24.8758 36.4558 23.3137L50.598 37.4558C56.8464 31.2075 56.8464 21.0768 50.598 14.8284L36.4558 28.9706ZM22.3137 14.8284L36.4558 28.9706L50.598 14.8284L36.4558 0.686292L22.3137 14.8284ZM22.7996 30C19.6754 33.1242 14.6101 33.1242 11.4859 30L25.628 15.8579C20.9417 11.1716 13.3437 11.1716 8.65744 15.8579L22.7996 30ZM21.3854 31.4142L22.7996 30L8.65745 15.8579L7.24323 17.2721L21.3854 31.4142ZM21.3854 20.1005C24.5096 23.2247 24.5096 28.29 21.3854 31.4142L7.24324 17.2721C2.55694 21.9584 2.55694 29.5563 7.24324 34.2426L21.3854 20.1005ZM22.7996 21.5147L21.3854 20.1005L7.24323 34.2426L8.65744 35.6568L22.7996 21.5147ZM11.4859 21.5147C14.6101 18.3905 19.6754 18.3905 22.7996 21.5147L8.65745 35.6568C13.3437 40.3431 20.9417 40.3431 25.628 35.6568L11.4859 21.5147ZM12.9001 20.1005L11.4859 21.5147L25.628 35.6568L27.0422 34.2426L12.9001 20.1005ZM12.9001 31.4142C9.77589 28.29 9.77589 23.2247 12.9001 20.1005L27.0422 34.2426C31.7285 29.5563 31.7285 21.9584 27.0422 17.2721L12.9001 31.4142ZM11.4859 30L12.9001 31.4142L27.0422 17.2721L25.628 15.8579L11.4859 30ZM39.7996 30C36.6754 33.1242 31.6101 33.1242 28.4859 30L42.628 15.8579C37.9417 11.1716 30.3437 11.1716 25.6574 15.8579L39.7996 30ZM38.3854 31.4142L39.7996 30L25.6574 15.8579L24.2432 17.2721L38.3854 31.4142ZM38.3854 20.1005C41.5096 23.2247 41.5096 28.29 38.3854 31.4142L24.2432 17.2721C19.5569 21.9584 19.5569 29.5563 24.2432 34.2426L38.3854 20.1005ZM39.7996 21.5147L38.3854 20.1005L24.2432 34.2426L25.6574 35.6568L39.7996 21.5147ZM28.4859 21.5147C31.6101 18.3905 36.6754 18.3905 39.7996 21.5147L25.6574 35.6568C30.3437 40.3431 37.9417 40.3431 42.628 35.6568L28.4859 21.5147ZM29.9001 20.1005L28.4859 21.5147L42.628 35.6568L44.0422 34.2426L29.9001 20.1005ZM29.9001 31.4142C26.7759 28.29 26.7759 23.2247 29.9001 20.1005L44.0422 34.2426C48.7285 29.5563 48.7285 21.9584 44.0422 17.2721L29.9001 31.4142ZM28.4859 30L29.9001 31.4142L44.0422 17.2721L42.628 15.8579L28.4859 30Z" fill="#C4F800" mask="url(#path-2-inside-1_1057_281)"/>
</svg>
