<svg xmlns="http://www.w3.org/2000/svg" width="24" height="24" viewBox="0 0 24 24" fill="none">
  <path d="M5.10938 15.1349C5.10938 16.5093 3.9885 17.6318 2.61394 17.6318C1.23956 17.6318 0.117188 16.5093 0.117188 15.1349C0.117188 13.7605 1.23975 12.6379 2.61412 12.6379H5.10956L5.10938 15.1349ZM6.36731 15.1349C6.36731 13.7605 7.48987 12.6379 8.86425 12.6379C10.2386 12.6379 11.3612 13.7603 11.3612 15.1349V21.3852C11.3612 22.7596 10.2388 23.8821 8.86425 23.8821C7.48987 23.8821 6.36731 22.7596 6.36731 21.3852V15.1349Z" fill="url(#paint0_linear_680_18754)"/>
  <path d="M8.86425 5.11035C7.48987 5.11035 6.36731 3.98948 6.36731 2.61491C6.36731 1.24054 7.48987 0.118164 8.86425 0.118164C10.2386 0.118164 11.3612 1.24073 11.3612 2.6151V5.11054L8.86425 5.11035ZM8.86425 6.36829C10.2386 6.36829 11.3612 7.49085 11.3612 8.86523C11.3612 10.2396 10.2388 11.3622 8.86425 11.3622H2.61394C1.23956 11.3622 0.117188 10.2398 0.117188 8.86523C0.117188 7.49085 1.23975 6.36829 2.61412 6.36829H8.86425Z" fill="url(#paint1_linear_680_18754)"/>
  <path d="M18.8885 8.86523C18.8885 7.49085 20.0094 6.36829 21.384 6.36829C22.7583 6.36829 23.8809 7.49085 23.8809 8.86523C23.8809 10.2396 22.7583 11.3622 21.384 11.3622H18.8885V8.86523ZM17.6306 8.86523C17.6306 10.2396 16.508 11.3622 15.1337 11.3622C13.7593 11.3622 12.6367 10.2398 12.6367 8.86523V2.61491C12.6367 1.24054 13.7591 0.118164 15.1337 0.118164C16.508 0.118164 17.6306 1.24073 17.6306 2.6151V8.86523Z" fill="url(#paint2_linear_680_18754)"/>
  <path d="M15.1337 18.8898C16.508 18.8898 17.6306 20.0106 17.6306 21.3852C17.6306 22.7596 16.508 23.8821 15.1337 23.8821C13.7593 23.8821 12.6367 22.7596 12.6367 21.3852V18.8898H15.1337ZM15.1337 17.6318C13.7593 17.6318 12.6367 16.5093 12.6367 15.1349C12.6367 13.7605 13.7591 12.6379 15.1337 12.6379H21.384C22.7583 12.6379 23.8809 13.7603 23.8809 15.1349C23.8809 16.5093 22.7583 17.6318 21.384 17.6318H15.1337Z" fill="url(#paint3_linear_680_18754)"/>
  <defs>
    <linearGradient id="paint0_linear_680_18754" x1="-0.250056" y1="13.0704" x2="8.13043" y2="20.2867" gradientUnits="userSpaceOnUse">
      <stop stop-color="white" stop-opacity="0"/>
      <stop offset="1" stop-color="white"/>
    </linearGradient>
    <linearGradient id="paint1_linear_680_18754" x1="-0.250056" y1="0.550627" x2="8.13031" y2="7.76696" gradientUnits="userSpaceOnUse">
      <stop stop-color="white" stop-opacity="0"/>
      <stop offset="1" stop-color="white"/>
    </linearGradient>
    <linearGradient id="paint2_linear_680_18754" x1="12.2695" y1="0.550627" x2="20.6499" y2="7.7671" gradientUnits="userSpaceOnUse">
      <stop stop-color="white" stop-opacity="0"/>
      <stop offset="1" stop-color="white"/>
    </linearGradient>
    <linearGradient id="paint3_linear_680_18754" x1="12.2695" y1="13.0704" x2="20.65" y2="20.2869" gradientUnits="userSpaceOnUse">
      <stop stop-color="white" stop-opacity="0"/>
      <stop offset="1" stop-color="white"/>
    </linearGradient>
  </defs>
</svg>
