<!-- <svg xmlns="http://www.w3.org/2000/svg" width="130" height="33" viewBox="0 0 130 33" fill="none">
  <g opacity="0.5">
  <g clip-path="url(#clip0_676_16434)">
    <path d="M26.3249 24.7354L19.842 20.9902C18.9312 20.4659 17.7665 20.7777 17.2394 21.6885C17.0352 22.0473 16.9551 22.4419 16.9938 22.8255V30.1447C16.9938 31.1907 17.8438 32.0407 18.8926 32.0407C19.9386 32.0407 20.7886 31.1907 20.7886 30.1447V25.9359L24.4206 28.0334C25.3313 28.5605 26.4987 28.2459 27.0231 27.3352C27.5503 26.4244 27.2384 25.2597 26.3249 24.7354Z" fill="white"/>
    <path d="M10.2027 16.7093C10.2137 16.0331 9.8577 15.4039 9.27261 15.0644L2.7897 11.3221C2.50819 11.1592 2.18529 11.0737 1.86239 11.0737C1.19726 11.0737 0.57905 11.4297 0.247866 12.0037C-0.265467 12.8924 0.0408774 14.0322 0.929552 14.5456L4.6664 16.701L0.929552 18.8592C0.499014 19.1076 0.18991 19.5078 0.0629563 19.988C-0.0667573 20.4682 -0.000520639 20.9705 0.247866 21.4011C0.57905 21.9751 1.19726 22.3311 1.85962 22.3311C2.18529 22.3311 2.50819 22.2456 2.7897 22.0828L9.27261 18.3404C9.85218 18.0037 10.2082 17.38 10.2027 16.7093Z" fill="white"/>
    <path d="M4.25862 8.67076L10.7415 12.4131C11.4977 12.8519 12.4306 12.7084 13.0267 12.1261C13.4048 11.7784 13.6394 11.2816 13.6394 10.7296V3.22831C13.6394 2.17957 12.7894 1.32953 11.7434 1.32953C10.6946 1.32953 9.84458 2.17957 9.84458 3.22831V7.49782L6.16293 5.37272C5.25217 4.84559 4.08751 5.15745 3.56038 6.06821C3.03324 6.97896 3.34787 8.14362 4.25862 8.67076Z" fill="white"/>
    <path d="M18.8371 17.014C18.8371 17.1575 18.7543 17.3562 18.6522 17.4611L16.0827 20.0305C15.9806 20.1326 15.7791 20.2154 15.6356 20.2154H14.9815C14.838 20.2154 14.6366 20.1326 14.5344 20.0305L11.9623 17.4611C11.8601 17.3562 11.7773 17.1575 11.7773 17.014V16.3599C11.7773 16.2136 11.8601 16.0149 11.9623 15.9128L14.5344 13.3406C14.6366 13.2385 14.838 13.1557 14.9815 13.1557H15.6356C15.7791 13.1557 15.9806 13.2385 16.0827 13.3406L18.6522 15.9128C18.7543 16.0149 18.8371 16.2136 18.8371 16.3599V17.014ZM16.5436 16.6994V16.6718C16.5436 16.5669 16.4829 16.4206 16.4084 16.3433L15.6494 15.5871C15.5749 15.5099 15.4286 15.4491 15.321 15.4491H15.2934C15.1885 15.4491 15.0423 15.5099 14.965 15.5871L14.2088 16.3433C14.1343 16.4179 14.0735 16.5641 14.0735 16.6718V16.6994C14.0735 16.807 14.1343 16.9533 14.2088 17.0278L14.965 17.7867C15.0423 17.8613 15.1885 17.922 15.2934 17.922H15.321C15.4286 17.922 15.5749 17.8613 15.6494 17.7867L16.4084 17.0278C16.4829 16.9533 16.5436 16.807 16.5436 16.6994Z" fill="white"/>
    <path d="M19.8412 12.4131L26.3241 8.67076C27.2349 8.14638 27.5495 6.97896 27.0224 6.06821C26.4952 5.15745 25.3306 4.84559 24.4198 5.37272L20.7878 7.47022V3.22831C20.7878 2.17957 19.9378 1.32953 18.8918 1.32953C17.8431 1.32953 16.993 2.17957 16.993 3.22831V10.5806C16.9571 10.9614 17.0317 11.3589 17.2387 11.7176C17.7658 12.6284 18.9304 12.9403 19.8412 12.4131Z" fill="white"/>
    <path d="M12.0414 20.7694C11.6109 20.6866 11.15 20.7556 10.7415 20.9902L4.25862 24.7353C3.34787 25.2597 3.03324 26.4243 3.56038 27.3351C4.08751 28.2486 5.25217 28.5605 6.16293 28.0333L9.84458 25.9082V30.1446C9.84458 31.1906 10.6946 32.0406 11.7434 32.0406C12.7894 32.0406 13.6394 31.1906 13.6394 30.1446V22.6433C13.6394 21.6967 12.9467 20.9129 12.0414 20.7694Z" fill="white"/>
    <path d="M30.3777 11.9813C29.8533 11.0678 28.6859 10.756 27.7752 11.2831L21.2923 15.0255C20.6713 15.3842 20.3291 16.0411 20.3401 16.709C20.3346 17.3741 20.6768 18.0227 21.2923 18.3759L27.7752 22.1211C28.6859 22.6454 29.8506 22.3336 30.3777 21.4228C30.9048 20.5121 30.5902 19.3474 29.6795 18.8203L26.0089 16.7007L29.6795 14.5811C30.593 14.0567 30.9048 12.8921 30.3777 11.9813Z" fill="white"/>
    <path d="M129.998 16.2634V16.2662V16.3352C129.998 16.6884 129.702 16.9506 129.338 16.9506H120.231C120.247 17.1659 120.275 17.3756 120.319 17.5826C120.741 19.5559 122.43 21.0242 124.437 21.0407C124.442 21.0407 124.544 21.0407 124.702 21.0407C124.726 21.0407 124.751 21.0407 124.776 21.0407H124.967C125.008 21.0407 125.049 21.0407 125.094 21.038C125.132 21.038 125.171 21.0352 125.209 21.0324C125.212 21.0324 125.215 21.0324 125.218 21.0297C125.883 20.9772 126.553 20.7095 127.152 20.279C127.152 20.279 127.152 20.279 127.155 20.279C127.185 20.2569 127.219 20.2321 127.249 20.2072C127.254 20.2045 127.26 20.199 127.268 20.1934C127.293 20.1741 127.321 20.152 127.348 20.13C127.359 20.1217 127.368 20.1134 127.379 20.1051C127.401 20.0886 127.423 20.0692 127.445 20.0499C127.459 20.0389 127.475 20.0251 127.489 20.014C127.506 19.9975 127.522 19.9809 127.542 19.9671C127.558 19.9506 127.577 19.934 127.594 19.9174C127.608 19.9064 127.622 19.8926 127.635 19.8788C127.657 19.8595 127.677 19.8402 127.699 19.8209C127.71 19.8098 127.721 19.796 127.732 19.785C127.754 19.7629 127.776 19.7408 127.798 19.7187C127.809 19.7077 127.817 19.6994 127.829 19.6884C127.851 19.6635 127.873 19.6387 127.895 19.6139C127.906 19.6056 127.914 19.5945 127.922 19.5835C127.947 19.5587 127.969 19.5338 127.991 19.509C128 19.498 128.011 19.4869 128.019 19.4759C128.041 19.4483 128.06 19.4234 128.082 19.3986C128.093 19.3848 128.105 19.371 128.116 19.3572C128.135 19.3324 128.154 19.3103 128.171 19.2882C128.187 19.2661 128.201 19.2468 128.215 19.2275C128.229 19.2082 128.243 19.1916 128.256 19.1723C128.278 19.1419 128.3 19.1116 128.32 19.0812C128.328 19.0702 128.334 19.0619 128.339 19.0536C128.394 18.9736 128.447 18.8908 128.499 18.8052C128.499 18.8052 128.499 18.8025 128.502 18.7997C128.513 18.7804 128.527 18.7638 128.541 18.7445C128.546 18.7362 128.552 18.728 128.56 18.7224C128.568 18.7086 128.579 18.7004 128.587 18.6893C128.596 18.681 128.604 18.6728 128.612 18.6645C128.623 18.6562 128.632 18.6479 128.643 18.6396C128.651 18.6314 128.659 18.6231 128.67 18.6176C128.684 18.6065 128.701 18.5955 128.717 18.5872C128.728 18.5789 128.742 18.5706 128.753 18.5651C128.767 18.5596 128.778 18.5541 128.789 18.5486C128.8 18.543 128.811 18.5403 128.819 18.5348C128.836 18.5292 128.85 18.5265 128.866 18.521C128.875 18.5182 128.88 18.5154 128.888 18.5127C128.941 18.5016 128.996 18.4934 129.048 18.4934C129.106 18.4934 129.167 18.5016 129.222 18.5182C129.225 18.5182 129.225 18.5182 129.228 18.5182C129.25 18.5265 129.275 18.532 129.297 18.543C129.302 18.5458 129.308 18.5458 129.313 18.5486C129.338 18.5596 129.36 18.5706 129.382 18.5844L129.393 18.59C129.697 18.8107 129.791 19.1971 129.606 19.5145L129.603 19.5173C129.581 19.5531 129.559 19.589 129.537 19.6221C129.531 19.6304 129.526 19.6387 129.52 19.647C128.875 20.6295 127.997 21.4133 127.017 21.8825C126.995 21.8907 126.976 21.9018 126.954 21.9128C126.951 21.9128 126.945 21.9156 126.943 21.9156C126.49 22.1253 126.004 22.2716 125.485 22.3323C125.474 22.3323 125.463 22.3351 125.452 22.3351C125.408 22.3406 125.364 22.3461 125.32 22.3489C125.295 22.3489 125.27 22.3516 125.243 22.3544C125.212 22.3544 125.179 22.3572 125.149 22.3599C125.088 22.3599 125.027 22.3627 124.967 22.3627C124.958 22.3627 124.729 22.3627 124.575 22.3627C124.486 22.3627 124.437 22.3627 124.431 22.3627C121.368 22.3406 118.9 19.785 118.9 16.6553C118.9 13.4732 121.384 10.9037 124.473 10.9037C124.564 10.9037 124.655 10.9065 124.746 10.9093C125.822 10.9645 126.816 11.3315 127.641 11.9332C127.644 11.9359 127.646 11.9387 127.649 11.9387C127.696 11.9718 127.74 12.0077 127.784 12.0408C127.806 12.0601 127.831 12.0794 127.856 12.0988C127.878 12.1153 127.9 12.1346 127.922 12.1512C129.084 13.1199 129.868 14.5744 129.998 16.2579V16.2634ZM120.319 15.6507H128.563C128.154 13.6636 126.446 12.2257 124.473 12.2257C122.463 12.2257 120.769 13.636 120.319 15.6507Z" fill="white"/>
    <path d="M106.713 11.0969C106.815 11.1991 106.884 11.337 106.901 11.4971C106.901 11.5192 106.903 11.5413 106.903 11.5634V21.7003C106.903 22.0619 106.6 22.3627 106.241 22.3627C105.882 22.3627 105.582 22.0619 105.582 21.7003V20.3535C105.33 20.6571 105.054 20.9331 104.754 21.1732C104.745 21.1815 104.737 21.187 104.729 21.1953C104.701 21.2173 104.671 21.2394 104.643 21.2587C103.732 21.9597 102.626 22.3627 101.469 22.3627C99.6064 22.3627 97.9671 21.3719 96.9901 19.8705C96.9818 19.8595 96.9707 19.8457 96.9625 19.8347C96.9349 19.7877 96.9073 19.7408 96.8769 19.6911C96.8576 19.6608 96.841 19.6304 96.8217 19.6001C96.8024 19.5697 96.7858 19.5366 96.7693 19.5035C96.7417 19.4566 96.7141 19.4069 96.6892 19.36C96.681 19.3434 96.6754 19.3268 96.6672 19.3103C96.3056 18.5927 96.0821 17.7841 96.0434 16.9258C96.0379 16.8292 96.0352 16.7326 96.0352 16.6332C96.0352 16.5339 96.0379 16.4373 96.0434 16.3407C96.0821 15.4824 96.3056 14.6737 96.6672 13.9534C96.6754 13.9396 96.681 13.923 96.6892 13.9065C96.7141 13.8596 96.7417 13.8099 96.7693 13.763C96.7858 13.7298 96.8024 13.6967 96.8217 13.6664C96.8383 13.636 96.8576 13.6057 96.8769 13.5753C96.9045 13.5284 96.9349 13.4787 96.9625 13.4318C96.9707 13.4207 96.9818 13.4069 96.9901 13.3959C97.9671 11.8945 99.6064 10.9037 101.469 10.9037C102.728 10.9037 103.917 11.3646 104.864 12.1678C105.123 12.3858 105.363 12.6259 105.582 12.8908V11.5634C105.582 11.5413 105.582 11.5192 105.584 11.4971C105.601 11.337 105.67 11.1991 105.772 11.0969C105.772 11.0969 105.772 11.0969 105.772 11.0942C105.783 11.0831 105.797 11.0749 105.808 11.0638C105.811 11.0611 105.816 11.0555 105.819 11.0528C105.827 11.0445 105.838 11.039 105.846 11.0335C105.855 11.0279 105.863 11.0197 105.871 11.0141C105.877 11.0114 105.882 11.0086 105.888 11.0031C105.902 10.9976 105.913 10.9893 105.926 10.981C105.929 10.981 105.932 10.9783 105.935 10.9783C105.951 10.97 105.968 10.9617 105.984 10.9534C105.984 10.9534 105.984 10.9534 105.987 10.9534C106.026 10.9369 106.067 10.9258 106.109 10.9175C106.111 10.9175 106.117 10.9148 106.12 10.9148C106.136 10.912 106.156 10.9093 106.175 10.9065C106.197 10.9065 106.219 10.9037 106.241 10.9037C106.266 10.9037 106.288 10.9065 106.31 10.9065C106.329 10.9093 106.346 10.912 106.365 10.9148C106.368 10.9148 106.371 10.9175 106.376 10.9175C106.418 10.9258 106.459 10.9369 106.498 10.9534H106.501C106.517 10.9617 106.534 10.97 106.547 10.9783C106.553 10.9783 106.556 10.981 106.559 10.981C106.57 10.9893 106.583 10.9976 106.594 11.0031C106.6 11.0086 106.608 11.0114 106.614 11.0141C106.622 11.0197 106.63 11.0279 106.639 11.0335C106.647 11.039 106.655 11.0445 106.663 11.0528C106.669 11.0555 106.672 11.0611 106.677 11.0638C106.688 11.0749 106.702 11.0831 106.71 11.0942C106.713 11.0969 106.713 11.0969 106.713 11.0969ZM101.469 21.0407C103.735 21.0407 105.582 19.0647 105.582 16.6332C105.582 14.1907 103.735 12.2036 101.469 12.2036C99.22 12.2036 97.3571 14.188 97.3571 16.6332C97.3571 16.7105 97.3599 16.785 97.3626 16.8595C97.3626 16.8926 97.3682 16.923 97.3682 16.9534C97.3709 16.9975 97.3737 17.0417 97.3792 17.0831C97.382 17.119 97.3875 17.1521 97.3902 17.1852C97.3958 17.2238 97.3985 17.2652 97.404 17.3039C97.4096 17.3342 97.4151 17.3618 97.4178 17.3894C97.4261 17.4336 97.4316 17.4777 97.4399 17.5219C97.4454 17.544 97.451 17.5633 97.4537 17.5826C97.4648 17.635 97.4758 17.6847 97.4868 17.7372C97.4896 17.7482 97.4924 17.7592 97.4979 17.7703C97.9671 19.658 99.5788 21.0407 101.469 21.0407Z" fill="white"/>
    <path d="M90.1221 6.1225H89.9427C89.9207 6.1225 89.8958 6.1225 89.8737 6.12526C89.8489 6.1225 89.8268 6.1225 89.802 6.1225C89.7385 6.1225 89.675 6.1225 89.6116 6.12526C89.6005 6.12526 89.5867 6.12802 89.5757 6.12802C89.526 6.12802 89.4763 6.13078 89.4266 6.1363C89.4184 6.1363 89.4073 6.1363 89.399 6.1363C89.3466 6.14182 89.2969 6.14458 89.2473 6.1501C89.2417 6.15286 89.2362 6.15286 89.2307 6.15286C89.1755 6.16114 89.1231 6.16666 89.0734 6.17494C89.0706 6.17494 89.0679 6.17494 89.0679 6.17494C88.7339 6.22737 88.4331 6.32121 88.1654 6.45368C88.1654 6.45644 88.1626 6.45644 88.1599 6.45644C88.1212 6.47852 88.0798 6.5006 88.0412 6.52268C88.0329 6.52544 88.0274 6.53096 88.0191 6.53648C87.986 6.5558 87.9529 6.57511 87.9198 6.59719C87.906 6.60547 87.8949 6.61651 87.8839 6.62479C87.8563 6.64135 87.8314 6.66067 87.8038 6.67999C87.7845 6.69655 87.7652 6.71311 87.7459 6.72691C87.7293 6.74071 87.7128 6.75451 87.6962 6.76831C87.6659 6.7959 87.6383 6.82074 87.6107 6.84834C87.6051 6.85386 87.5996 6.85938 87.5941 6.8649C87.561 6.90078 87.5279 6.9339 87.4947 6.96977C87.4892 6.97805 87.4837 6.98633 87.4782 6.99185C87.4506 7.02221 87.423 7.05257 87.3981 7.08293C87.3899 7.09673 87.3788 7.11053 87.3706 7.12433C87.3485 7.15193 87.3292 7.17676 87.3098 7.20436C87.3043 7.2154 87.2988 7.22368 87.2905 7.23196C87.2684 7.26508 87.2464 7.2982 87.227 7.33132C87.2243 7.33684 87.2215 7.3396 87.2188 7.34512C87.0394 7.64042 86.9124 7.98816 86.8324 8.40766C86.8324 8.41318 86.8324 8.42146 86.8296 8.42698C86.8186 8.47942 86.8103 8.53462 86.802 8.58981C86.7993 8.60637 86.7965 8.62293 86.7965 8.63949C86.7882 8.68641 86.7827 8.73333 86.7772 8.783C86.7744 8.8106 86.7717 8.8382 86.7689 8.86856C86.7634 8.9072 86.7579 8.94307 86.7551 8.98447C86.7523 9.02587 86.7496 9.06727 86.7468 9.11143C86.7441 9.13902 86.7441 9.16662 86.7413 9.19698C86.7385 9.25494 86.7358 9.31566 86.733 9.37637C86.733 9.39293 86.7303 9.40397 86.7303 9.41777C86.7275 9.49505 86.7275 9.57508 86.7275 9.65236V10.7425H85.3531C85.2675 10.7397 85.182 10.7563 85.1047 10.7839C84.8563 10.875 84.6797 11.1096 84.6797 11.3828C84.6797 11.6395 84.8066 11.8575 85.0054 11.9844C85.1047 12.0479 85.2206 12.0866 85.3476 12.0921H85.3531V12.0948H86.7275V21.7212C86.7247 21.735 86.7275 21.7461 86.7275 21.7599C86.7275 21.7681 86.7275 21.7764 86.7275 21.7847C86.7358 21.9393 86.7993 22.08 86.9014 22.1876L86.9041 22.1904C86.9179 22.2042 86.9345 22.218 86.9483 22.2318C86.9511 22.2346 86.9538 22.2346 86.9566 22.2373C86.9676 22.2484 86.9814 22.2566 86.9925 22.2649C86.998 22.2704 87.0062 22.276 87.0118 22.2787C87.0173 22.2842 87.0228 22.287 87.0311 22.2898C87.1387 22.3588 87.2657 22.3974 87.4009 22.3974C87.423 22.3974 87.4451 22.3946 87.4644 22.3919C87.5941 22.3808 87.7128 22.3256 87.8094 22.2456L87.8121 22.2428C87.8259 22.2318 87.837 22.2208 87.848 22.207C87.8508 22.2042 87.8563 22.2014 87.859 22.1987C87.8701 22.1876 87.8784 22.1766 87.8866 22.1683C87.9915 22.0414 88.0495 21.8841 88.0412 21.7212V12.0948H89.5205V12.0921H89.526C89.9179 12.0728 90.2049 11.7664 90.1939 11.3856C90.1939 11.3828 90.1939 11.3828 90.1939 11.38C90.1966 11.3662 90.1939 11.3524 90.1939 11.3386C90.1939 11.3331 90.1939 11.3276 90.1939 11.3248C90.1828 11.1786 90.1194 11.0461 90.02 10.944C90.02 10.944 90.02 10.944 90.02 10.9412C90.0173 10.9412 90.0173 10.9412 90.0173 10.9412C90.0035 10.9274 89.9924 10.9164 89.9786 10.9053C89.9731 10.8998 89.9676 10.8971 89.9648 10.8915C89.9538 10.8833 89.9455 10.8777 89.9345 10.8695C89.9262 10.8639 89.9151 10.8557 89.9069 10.8501C89.9013 10.8474 89.8931 10.8419 89.8875 10.8391C89.8737 10.8308 89.8599 10.8225 89.8461 10.817C89.8434 10.8143 89.8379 10.8115 89.8351 10.8115C89.8185 10.8032 89.802 10.7949 89.7854 10.7894C89.7827 10.7867 89.7799 10.7867 89.7744 10.7839C89.7578 10.7784 89.7413 10.7729 89.7247 10.7673C89.7192 10.7673 89.7137 10.7646 89.7082 10.7646C89.6916 10.7618 89.6778 10.7563 89.6612 10.7535C89.653 10.7535 89.6447 10.7535 89.6364 10.7508C89.6254 10.748 89.6116 10.748 89.5978 10.7453C89.5867 10.7453 89.5757 10.7453 89.5674 10.7453C89.5591 10.7453 89.5508 10.7425 89.5426 10.7425C89.5343 10.7425 89.5232 10.7425 89.5205 10.7425H88.0412V9.65512C88.0412 9.64684 88.0412 9.63856 88.0412 9.63304C88.044 9.57784 88.044 9.52265 88.0467 9.47021C88.0467 9.45641 88.0467 9.43985 88.0495 9.42605C88.0495 9.37913 88.0522 9.33221 88.055 9.28806C88.055 9.27978 88.0578 9.26874 88.0578 9.26046C88.0605 9.20802 88.066 9.15558 88.0716 9.10591C88.124 8.56773 88.2399 8.22827 88.3613 8.02128C88.3641 8.01576 88.3641 8.013 88.3669 8.00748C88.3751 7.99368 88.3862 7.97988 88.3945 7.96608C88.4 7.95504 88.4083 7.94401 88.4165 7.93297C88.4193 7.92745 88.4248 7.91641 88.4303 7.91089C88.4441 7.89157 88.4579 7.87501 88.4745 7.85845C88.6484 7.6625 88.9188 7.54383 89.3107 7.49691C89.3163 7.49691 89.319 7.49415 89.3273 7.49415C89.3494 7.49139 89.3742 7.48863 89.3963 7.48863C89.4073 7.48587 89.4211 7.48587 89.4322 7.48311C89.4542 7.48311 89.4736 7.48035 89.4956 7.48035C89.5122 7.48035 89.526 7.47759 89.5453 7.47759C89.5646 7.47483 89.584 7.47483 89.6033 7.47483C89.6226 7.47483 89.6419 7.47207 89.6612 7.47207C89.6806 7.47207 89.6999 7.47207 89.7192 7.47207C89.7468 7.47207 89.7744 7.47207 89.802 7.47207H89.8047C89.8268 7.47207 89.8461 7.46931 89.8682 7.46655C89.8931 7.46931 89.9179 7.47207 89.9427 7.47207H90.1221C90.492 7.47207 90.7955 7.16848 90.7955 6.7959C90.7955 6.42332 90.492 6.1225 90.1221 6.1225Z" fill="white"/>
    <path d="M93.6828 6.14449C93.6828 6.14449 93.6801 6.14173 93.6773 6.14173C93.6635 6.13621 93.6525 6.13069 93.6359 6.12793C93.6304 6.12517 93.6221 6.12241 93.6138 6.11965C93.6028 6.11689 93.5918 6.11413 93.5807 6.11137C93.5697 6.10861 93.5586 6.10309 93.5504 6.10309C93.5366 6.10033 93.5255 6.09757 93.5117 6.09757C93.5007 6.09481 93.4924 6.09481 93.4814 6.09205C93.4593 6.08929 93.4344 6.08929 93.4124 6.08929C93.0536 6.08929 92.75 6.39012 92.75 6.7489V21.7018C92.75 22.0634 93.0536 22.3642 93.4124 22.3642C93.4344 22.3642 93.4593 22.3642 93.4814 22.3614C93.4841 22.3614 93.4896 22.3587 93.4924 22.3587C93.5117 22.3559 93.531 22.3531 93.5504 22.3504C93.5531 22.3504 93.5586 22.3476 93.5642 22.3476C93.5807 22.3421 93.5973 22.3393 93.6138 22.3338C93.6166 22.3338 93.6194 22.3338 93.6221 22.3311C93.876 22.251 94.0637 22.0358 94.0913 21.7708C94.0941 21.7487 94.0968 21.7267 94.0968 21.7018V6.7489C94.0968 6.72682 94.0941 6.70474 94.0913 6.68266C94.0665 6.4398 93.9064 6.23833 93.6828 6.14449Z" fill="white"/>
    <path d="M43.0078 18.8439C43.0022 18.8052 43.0022 18.7693 42.9967 18.7335C42.994 18.7059 42.9912 18.681 42.9884 18.6562C42.9829 18.6258 42.9802 18.5982 42.9746 18.5679C42.9691 18.5403 42.9636 18.5127 42.9581 18.4823C42.9553 18.4602 42.9498 18.4354 42.9443 18.4133C42.936 18.3802 42.9305 18.3498 42.9222 18.3167C42.9167 18.3002 42.9112 18.2809 42.9056 18.2643C42.8974 18.2284 42.8863 18.1953 42.8725 18.1622C42.8698 18.1484 42.8642 18.1346 42.8615 18.1235C42.8477 18.0849 42.8339 18.049 42.8173 18.0104C42.8146 18.0049 42.8118 17.9966 42.809 17.9883C42.7897 17.9497 42.7732 17.9083 42.7538 17.8696C42.7511 17.8669 42.7511 17.8641 42.7483 17.8614C42.591 17.544 42.3675 17.279 42.0942 17.0555C42.0942 17.0527 42.0942 17.0527 42.0915 17.0527C42.0528 17.0224 42.0142 16.9892 41.9728 16.9589C41.9728 16.9589 41.9701 16.9561 41.9673 16.9534C41.9645 16.9534 41.9618 16.9506 41.959 16.9478C41.9342 16.9313 41.9093 16.912 41.8873 16.8954C41.5478 16.6553 41.1724 16.4649 40.626 16.2551C40.6177 16.2524 40.6094 16.2496 40.6012 16.2468C40.5929 16.2413 40.5818 16.2386 40.5736 16.233C40.2645 16.1171 39.9443 16.0067 39.6159 15.8991C39.6159 15.8991 39.6159 15.8991 39.6131 15.8991C39.6131 15.8991 39.6104 15.8991 39.6104 15.8963C39.6048 15.8963 39.5993 15.8936 39.591 15.8908C39.5607 15.8798 39.5276 15.8687 39.4834 15.8549C39.4613 15.8494 39.4448 15.8439 39.4282 15.8384C39.3178 15.7997 39.2047 15.7639 39.0915 15.7252C39.0115 15.6976 38.9259 15.67 38.8238 15.6369C38.7962 15.6286 38.73 15.6065 38.6748 15.59C38.672 15.59 38.672 15.5872 38.6693 15.5872C38.6361 15.5762 38.603 15.5652 38.5671 15.5541C38.2912 15.4658 38.0648 15.3885 37.8717 15.3168C37.557 15.2008 37.27 15.0767 37.0354 14.9276C37.0299 14.9249 37.0244 14.9221 37.0216 14.9193C36.7015 14.7151 36.4807 14.464 36.4282 14.1355L36.4255 14.1328C36.4227 14.1107 36.42 14.0859 36.42 14.0638C36.4172 14.0583 36.4172 14.0555 36.4172 14.0527C36.4144 14.0251 36.4145 14.0003 36.4145 13.9727C36.4145 13.9341 36.4172 13.8954 36.42 13.8596C36.42 13.8485 36.42 13.8402 36.4227 13.832C36.4255 13.8016 36.4282 13.774 36.431 13.7464C36.4338 13.7381 36.4338 13.7298 36.4365 13.7216C36.4421 13.6912 36.4476 13.6636 36.4531 13.6332C36.4558 13.6305 36.4558 13.625 36.4586 13.6194C36.4669 13.5863 36.4752 13.556 36.4862 13.5256C36.4862 13.5229 36.4862 13.5229 36.4862 13.5229C36.6297 13.0951 36.9692 12.7777 37.3694 12.5541C37.397 12.5403 37.4246 12.5265 37.4494 12.5127C37.477 12.4989 37.5018 12.4851 37.5267 12.4741C37.5681 12.4548 37.6095 12.4355 37.6509 12.4189C37.6757 12.4079 37.6978 12.3968 37.7226 12.3886C37.7668 12.372 37.8109 12.3554 37.8551 12.3389C37.8772 12.3306 37.902 12.3223 37.9269 12.314C37.971 12.3002 38.0124 12.2864 38.0566 12.2754C38.0842 12.2671 38.109 12.2588 38.1366 12.2533C38.178 12.2423 38.2194 12.234 38.258 12.223C38.2856 12.2174 38.3132 12.2119 38.3408 12.2064C38.385 12.1981 38.4264 12.1898 38.465 12.1843C38.4899 12.1816 38.5119 12.1788 38.5368 12.1733C38.5837 12.1678 38.6334 12.1622 38.6831 12.1595C38.6941 12.1567 38.7051 12.1567 38.7189 12.154C38.7797 12.1512 38.8404 12.1484 38.8983 12.1484C38.9673 12.1484 39.0363 12.1512 39.1026 12.154C39.1136 12.154 39.1246 12.154 39.1329 12.154C39.6214 12.1843 40.0161 12.303 40.3417 12.4603C40.3666 12.4713 40.3914 12.4851 40.4162 12.4962C40.43 12.5045 40.4438 12.5127 40.4576 12.5183C40.488 12.5348 40.5184 12.5514 40.5515 12.5707C40.557 12.5735 40.5625 12.5762 40.568 12.579C40.6012 12.5983 40.6343 12.6204 40.6674 12.6397C40.6702 12.6425 40.6729 12.6425 40.6729 12.6425C40.7088 12.6645 40.7447 12.6894 40.7805 12.7115C40.7805 12.7142 40.7833 12.7142 40.7833 12.717C40.8192 12.7391 40.8523 12.7611 40.8854 12.786C40.8992 12.797 40.9103 12.8053 40.9241 12.8136C41.0013 12.8715 41.1228 12.9654 41.2332 13.0564C41.247 13.0647 41.258 13.073 41.2663 13.0813C41.3491 13.1503 41.4264 13.211 41.5009 13.2662C41.5147 13.2772 41.5257 13.2855 41.534 13.291C41.5368 13.2938 41.5395 13.2965 41.5423 13.2965C41.5505 13.3021 41.5588 13.3076 41.5671 13.3131C41.5864 13.3269 41.6085 13.3407 41.6278 13.3545C41.6361 13.36 41.6444 13.3628 41.6527 13.3683C41.672 13.3793 41.6913 13.3904 41.7106 13.4014C41.7189 13.4042 41.7244 13.4069 41.7327 13.4097C41.7548 13.4207 41.7741 13.429 41.7962 13.4373C41.8017 13.4401 41.8045 13.4401 41.81 13.4428C41.8348 13.4511 41.8597 13.4594 41.8845 13.4621C41.8845 13.4621 41.8845 13.4621 41.8873 13.4649C41.9425 13.4732 41.9949 13.4759 42.0501 13.4621C42.0556 13.4621 42.0611 13.4594 42.0666 13.4594C42.0804 13.4566 42.097 13.4511 42.1108 13.4483C42.1163 13.4456 42.1191 13.4428 42.1246 13.4401C42.1301 13.4401 42.1356 13.4373 42.1412 13.4345C42.1632 13.4235 42.1853 13.4125 42.2074 13.3987C42.2129 13.3987 42.2157 13.3959 42.2184 13.3931C42.2433 13.3766 42.2654 13.36 42.2874 13.3407C42.2902 13.3379 42.2902 13.3379 42.2902 13.3379C42.3095 13.3214 42.3261 13.3021 42.3426 13.2827C42.3537 13.2689 42.3647 13.2524 42.373 13.2358C42.3757 13.2331 42.3785 13.2303 42.3785 13.2275C42.4944 13.0344 42.4282 12.7805 42.224 12.5045C42.2212 12.4989 42.2184 12.4934 42.2129 12.4879C42.2046 12.4769 42.1991 12.4686 42.1908 12.4575C41.7217 11.8504 40.6536 11.1853 39.6628 10.9727C39.6573 10.9727 39.6518 10.9727 39.6462 10.97C39.6049 10.9617 39.5607 10.9534 39.5193 10.9451C39.5083 10.9451 39.4945 10.9424 39.4834 10.9396C39.4475 10.9341 39.4117 10.9286 39.3758 10.9258C39.362 10.9231 39.3482 10.9203 39.3344 10.9203C39.3013 10.9175 39.2654 10.9148 39.2323 10.912C39.2185 10.9093 39.2047 10.9093 39.1936 10.9065C39.1467 10.9065 39.1026 10.9037 39.0584 10.9037C38.9866 10.9037 38.9149 10.9037 38.8459 10.9065C38.8072 10.9065 38.7686 10.9093 38.7272 10.912C38.6996 10.9148 38.6665 10.9148 38.6389 10.9148C38.5837 10.9203 38.5313 10.9231 38.4788 10.9286C38.465 10.9286 38.4485 10.9286 38.4347 10.9313C38.374 10.9369 38.3132 10.9424 38.2553 10.9507C38.247 10.9507 38.2415 10.9507 38.236 10.9507C38.1725 10.9589 38.1118 10.9672 38.051 10.9783C38.0483 10.9783 38.0428 10.9783 38.04 10.9783C37.9793 10.9865 37.9186 10.9976 37.8606 11.0086C37.8579 11.0086 37.8551 11.0114 37.8496 11.0114C37.7254 11.0335 37.6039 11.0611 37.488 11.0914C37.4853 11.0914 37.4853 11.0942 37.4853 11.0942C37.4273 11.108 37.3694 11.1245 37.3114 11.1411C37.2562 11.1577 37.2038 11.177 37.1541 11.1935C37.1486 11.1935 37.1458 11.1963 37.1403 11.1963C37.0906 11.2156 37.0409 11.2322 36.9913 11.2515C36.9857 11.2542 36.9802 11.257 36.9775 11.257C36.9278 11.2763 36.8836 11.2956 36.8367 11.3177C36.8312 11.3205 36.8229 11.3205 36.8174 11.326C36.776 11.3426 36.7318 11.3646 36.6932 11.384C36.6822 11.3895 36.6739 11.3922 36.6656 11.3978C36.6242 11.4171 36.5856 11.4364 36.5469 11.4585C36.5359 11.464 36.5276 11.4695 36.5166 11.475C36.4807 11.4944 36.4448 11.5164 36.4089 11.5385C36.3979 11.544 36.3869 11.5496 36.3758 11.5578C36.3289 11.5854 36.2847 11.6158 36.2406 11.6434C36.1881 11.682 36.1357 11.7179 36.0888 11.7565C36.0833 11.7565 36.0805 11.7593 36.0805 11.7621C35.8459 11.9359 35.6444 12.1208 35.4789 12.3361C35.4733 12.3444 35.4651 12.3527 35.4595 12.361C35.4402 12.3913 35.4181 12.4189 35.3988 12.4465C35.385 12.4686 35.3712 12.4907 35.3574 12.5127C35.3464 12.5293 35.3353 12.5459 35.3271 12.5624C35.305 12.5983 35.2857 12.6342 35.2664 12.6728C35.2636 12.6783 35.2608 12.6811 35.2581 12.6866C35.109 12.9819 35.0235 13.3214 34.9904 13.7326C34.9904 13.7381 34.9904 13.7436 34.9876 13.7492C34.9848 13.8209 34.9793 13.8927 34.9766 13.97C34.9766 14.0279 34.9766 14.0859 34.9793 14.1438C34.9793 14.1521 34.9793 14.1604 34.9793 14.1687C35.0097 14.958 35.3685 15.5514 36.017 16.0122C36.0226 16.015 36.0281 16.0205 36.0336 16.0233C36.0612 16.0426 36.0888 16.0619 36.1164 16.0812C36.1357 16.095 36.1578 16.1061 36.1771 16.1199C36.1826 16.1254 36.1909 16.1282 36.1964 16.1309C36.8367 16.5366 37.6205 16.7684 38.2746 16.9534C38.5947 17.0472 38.8818 17.1272 38.9673 17.1521C38.9866 17.1576 39.006 17.1631 39.0225 17.1714C39.4144 17.3011 39.7152 17.406 39.9636 17.5053C39.9829 17.5109 39.9995 17.5191 40.0188 17.5247C40.0243 17.5274 40.0326 17.5302 40.0409 17.5357C40.1817 17.5936 40.3197 17.6544 40.4521 17.7206C40.5625 17.7758 40.6646 17.8338 40.7667 17.8945C41.0289 18.0573 41.2304 18.2339 41.3656 18.4271C41.3712 18.4326 41.3739 18.4382 41.3767 18.4437C41.3905 18.4602 41.4015 18.4768 41.4098 18.4961C41.4181 18.5072 41.4236 18.5154 41.4291 18.5265C41.4374 18.5403 41.4457 18.5541 41.4512 18.5679C41.4595 18.5817 41.465 18.5982 41.4733 18.612C41.4788 18.6231 41.4843 18.6341 41.4898 18.6452C41.4954 18.6617 41.5036 18.6783 41.5092 18.6976C41.5119 18.7059 41.5174 18.7169 41.5202 18.728C41.5257 18.7473 41.5312 18.7666 41.5368 18.7859C41.5395 18.7942 41.5423 18.8025 41.545 18.8135C41.5506 18.8328 41.5561 18.8549 41.5588 18.8742C41.5616 18.8825 41.5643 18.8935 41.5643 18.9018C41.5671 18.9239 41.5699 18.946 41.5726 18.9681C41.5754 18.9763 41.5754 18.9846 41.5754 18.9929C41.5781 19.026 41.5809 19.0564 41.5809 19.0895C41.5809 19.1392 41.5781 19.1861 41.5754 19.233C41.5754 19.2468 41.5726 19.2606 41.5726 19.2744C41.5699 19.3103 41.5643 19.3462 41.5561 19.382C41.5561 19.3931 41.5533 19.4041 41.5505 19.4152C41.534 19.5118 41.5064 19.6028 41.4705 19.6939C41.4678 19.6967 41.4678 19.6994 41.4678 19.7022C41.4484 19.7436 41.4291 19.7877 41.407 19.8264C41.4043 19.8319 41.4043 19.8347 41.4015 19.8374C41.3546 19.9257 41.2994 20.0113 41.2304 20.0913C41.1973 20.1327 41.1614 20.1714 41.1255 20.21C41.1228 20.21 41.1228 20.21 41.1228 20.2128C41.0483 20.2873 40.9655 20.3563 40.8799 20.4197C40.8771 20.4225 40.8744 20.4225 40.8744 20.4253C40.833 20.4529 40.7916 20.4832 40.7502 20.5081C40.7447 20.5136 40.7392 20.5163 40.7336 20.5191C40.6619 20.5633 40.5846 20.6074 40.5073 20.6461C40.4797 20.6599 40.4521 20.6737 40.4218 20.6875C40.3914 20.7013 40.3583 20.7178 40.3252 20.7316C40.2976 20.7426 40.2727 20.7537 40.2451 20.7647C40.1706 20.7923 40.0989 20.8199 40.0243 20.8448C40.0133 20.8475 40.0023 20.8503 39.9912 20.8558C39.9471 20.8696 39.9029 20.8806 39.8588 20.8944C39.8477 20.8972 39.8339 20.9027 39.8229 20.9055C39.6766 20.9441 39.5331 20.9745 39.3979 20.9966C39.3951 20.9966 39.3923 20.9966 39.3896 20.9966C39.3206 21.0076 39.2543 21.0159 39.1909 21.0242C39.166 21.0269 39.144 21.0297 39.1191 21.0297C39.097 21.0324 39.075 21.0324 39.0501 21.0352C38.9977 21.038 38.9425 21.0407 38.8928 21.0407C38.7907 21.0407 38.6913 21.038 38.5947 21.0324C38.5561 21.0324 38.5175 21.0297 38.4788 21.0269C38.4264 21.0214 38.3712 21.0186 38.3215 21.0131C38.2746 21.0104 38.2249 21.0048 38.1808 20.9993C38.1394 20.9938 38.1007 20.9883 38.0621 20.9828C37.9765 20.969 37.8965 20.9579 37.8165 20.9414C37.7806 20.9331 37.7419 20.9276 37.7061 20.9193C37.6647 20.9082 37.6233 20.9 37.5819 20.8889C37.535 20.8779 37.4908 20.8668 37.4466 20.853C37.4163 20.8448 37.3832 20.8365 37.3556 20.8282C37.281 20.8061 37.2065 20.7813 37.1348 20.7537C37.1182 20.7482 37.1017 20.7426 37.0851 20.7371C36.925 20.6764 36.7677 20.6102 36.6132 20.5329C36.6076 20.5301 36.5994 20.5246 36.5911 20.5219C36.4917 20.4722 36.3234 20.3783 36.1633 20.2873C36.1495 20.279 36.1329 20.2707 36.1191 20.2624C36.006 20.1962 35.9094 20.141 35.8183 20.0968C35.81 20.0913 35.8045 20.0886 35.799 20.0858C35.7935 20.083 35.788 20.0803 35.7852 20.0803C35.7604 20.0692 35.741 20.0582 35.719 20.0499C35.7107 20.0472 35.7052 20.0444 35.6996 20.0416C35.6417 20.0196 35.5893 20.003 35.5368 19.9975C35.5203 19.9947 35.5037 19.9947 35.4871 19.9947C35.4816 19.992 35.4761 19.992 35.4706 19.992C35.3657 19.992 35.2746 20.0278 35.1891 20.1079C35.1698 20.1244 35.1532 20.141 35.1366 20.1603C35.1339 20.1658 35.1284 20.1714 35.1228 20.1769C35.1118 20.1907 35.1035 20.2017 35.0952 20.2128C35.0897 20.221 35.0842 20.2293 35.0814 20.2348C35.0732 20.2459 35.0649 20.2569 35.0594 20.268C35.0538 20.2762 35.0511 20.2845 35.0483 20.2928C35.0428 20.3038 35.0373 20.3149 35.0318 20.3259C35.029 20.3342 35.0262 20.3397 35.0235 20.348C35.018 20.3618 35.0152 20.3728 35.0124 20.3839C35.0097 20.3921 35.0069 20.3977 35.0069 20.4059C35.0042 20.4197 35.0014 20.4335 34.9986 20.4473C34.9986 20.4529 34.9959 20.4584 34.9959 20.4639C34.9931 20.4832 34.9931 20.4998 34.9931 20.5163C34.9931 20.5191 34.9931 20.5219 34.9931 20.5246C34.9931 20.5467 34.9959 20.566 35.0014 20.5881C35.0014 20.5909 35.0014 20.5964 35.0014 20.5991C35.0069 20.6157 35.0097 20.635 35.0152 20.6516C35.018 20.6599 35.0207 20.6681 35.0235 20.6764C35.029 20.6902 35.0318 20.7068 35.04 20.7206C35.0428 20.7288 35.0456 20.7344 35.0483 20.7399C35.0842 20.8227 35.1422 20.9082 35.2167 20.991C35.2967 21.0794 35.3988 21.1677 35.5175 21.2587C35.5203 21.2587 35.5203 21.2587 35.5203 21.2615C35.5534 21.2836 35.5865 21.3084 35.6224 21.3333C35.6306 21.3388 35.6362 21.3443 35.6444 21.3471C35.741 21.4133 35.8432 21.4768 35.9591 21.543C35.9867 21.5596 36.0143 21.5761 36.0419 21.5899C36.0695 21.6065 36.0971 21.6203 36.1247 21.6341C36.1578 21.6534 36.1964 21.6727 36.2323 21.692C36.2571 21.7031 36.2792 21.7169 36.3041 21.7279C36.3593 21.7555 36.4172 21.7831 36.4752 21.8107C36.4834 21.8162 36.489 21.819 36.4972 21.8218C36.5607 21.8521 36.6242 21.8797 36.6877 21.9045C36.7153 21.9156 36.7401 21.9266 36.7677 21.9377C36.7732 21.9404 36.7788 21.9432 36.7843 21.9432C37.3749 22.175 38.1035 22.3296 38.7465 22.3572C38.7934 22.3599 38.8431 22.3627 38.89 22.3627H38.8928C38.9149 22.3627 38.9342 22.3627 38.9563 22.3599C39.006 22.3599 39.0556 22.3599 39.1053 22.3599C39.1108 22.3599 39.1164 22.3599 39.1219 22.3572C40.1679 22.324 41.0262 22.0536 41.7575 21.5182C41.7575 21.5154 41.7575 21.5154 41.7575 21.5154C42.5689 20.9027 43.016 20.0389 43.016 19.0867C43.016 19.026 43.0133 18.9653 43.0105 18.9073C43.0105 18.8853 43.0078 18.8632 43.0078 18.8439Z" fill="white"/>
    <path d="M49.757 10.9252C49.7543 10.9252 49.7515 10.9252 49.7487 10.9252C48.4627 10.9252 47.2483 11.4496 46.3707 12.3769V11.5876C46.3707 11.2233 46.0892 10.9252 45.7331 10.9252C45.7083 10.9252 45.6862 10.928 45.6642 10.928C45.5068 10.9446 45.3688 11.0135 45.2667 11.1157C45.264 11.1157 45.264 11.1157 45.2612 11.1184C45.2529 11.1295 45.2419 11.1405 45.2336 11.1515C45.2281 11.1543 45.2226 11.1598 45.2198 11.1653C45.2115 11.1736 45.206 11.1819 45.2005 11.1902C45.195 11.1985 45.1895 11.2067 45.1812 11.215C45.1784 11.2205 45.1757 11.2261 45.1729 11.2316C45.1646 11.2454 45.1563 11.2592 45.1481 11.2702C45.1481 11.273 45.1481 11.2757 45.1453 11.2785C45.137 11.2951 45.1287 11.3116 45.1205 11.3282C45.1067 11.3696 45.0929 11.411 45.0846 11.4524C45.0846 11.4551 45.0846 11.4579 45.0818 11.4579C45.0791 11.48 45.0763 11.4993 45.0735 11.5186C45.0735 11.5407 45.0708 11.5628 45.0708 11.5876V21.8377L45.0625 21.8819L45.0956 21.9095C45.0956 21.9233 45.0984 21.9426 45.1067 21.9619C45.1067 21.9647 45.1094 21.9702 45.1094 21.973C45.1149 21.9868 45.1232 22.0033 45.137 22.0171C45.2226 22.1799 45.3799 22.3041 45.5648 22.3593L45.5786 22.3621H45.7331C45.758 22.3621 45.7828 22.3621 45.8077 22.3593C45.8242 22.3566 45.8408 22.3511 45.8573 22.3483C45.8656 22.3483 45.8711 22.3483 45.8794 22.3455C45.9015 22.34 45.9236 22.3345 45.9457 22.3262C45.9457 22.3262 45.9457 22.3262 45.9484 22.3262C46.0643 22.2848 46.1637 22.2131 46.2299 22.1165C46.2327 22.1137 46.2354 22.1109 46.2382 22.1082C46.2824 22.0613 46.3072 22.0116 46.332 21.9426C46.3348 21.9343 46.3376 21.9288 46.3376 21.9233C46.3403 21.9205 46.3403 21.9205 46.3403 21.9178C46.3514 21.8846 46.3596 21.8515 46.3679 21.8184L46.3707 21.8074V15.6032C46.4148 13.7541 47.9272 12.25 49.7432 12.2472C49.746 12.2472 49.746 12.2472 49.7487 12.2472C51.5979 12.2472 53.102 13.7513 53.102 15.6004V21.6997C53.102 21.7246 53.1047 21.7466 53.1075 21.7687C53.1213 21.9288 53.1903 22.0668 53.2924 22.1689C53.2924 22.1689 53.2952 22.1689 53.2952 22.1717C53.3062 22.1827 53.3172 22.191 53.3283 22.202C53.3338 22.2075 53.3366 22.2103 53.3421 22.2131C53.3504 22.2213 53.3586 22.2269 53.3669 22.2324C53.3752 22.2407 53.3835 22.2462 53.3918 22.2517C53.4 22.2545 53.4056 22.2572 53.4111 22.2627C53.4221 22.271 53.4359 22.2765 53.447 22.2848C53.4497 22.2848 53.4525 22.2876 53.458 22.2876C53.4718 22.2959 53.4884 22.3041 53.5049 22.3124H53.5077C53.5463 22.329 53.5877 22.34 53.6291 22.3483C53.6346 22.3483 53.6374 22.3511 53.6401 22.3511C53.6595 22.3538 53.676 22.3566 53.6953 22.3593C53.7174 22.3621 53.7395 22.3621 53.7643 22.3621C53.7864 22.3621 53.8085 22.3621 53.8306 22.3593C53.8499 22.3566 53.8692 22.3538 53.8858 22.3511C53.8885 22.3511 53.8941 22.3483 53.8968 22.3483C53.941 22.34 53.9796 22.329 54.021 22.3124C54.0376 22.3041 54.0541 22.2959 54.0707 22.2876C54.0734 22.2876 54.0762 22.2848 54.079 22.2848C54.0928 22.2765 54.1038 22.271 54.1176 22.2627C54.1231 22.2572 54.1286 22.2545 54.1342 22.2517C54.1424 22.2462 54.1507 22.2407 54.159 22.2324C54.1673 22.2269 54.1783 22.2213 54.1866 22.2131C54.1894 22.2103 54.1949 22.2075 54.1976 22.202C54.2087 22.191 54.2225 22.1827 54.2335 22.1717C54.2335 22.1689 54.2335 22.1689 54.2335 22.1689C54.3384 22.0668 54.4074 21.9288 54.4212 21.7687C54.4239 21.7466 54.4239 21.7246 54.4239 21.6997V15.6004C54.4239 13.0255 52.332 10.9308 49.757 10.9252Z" fill="white"/>
    <path d="M61.6627 10.9037C64.6599 10.9037 67.0968 13.4732 67.0968 16.6332C67.0968 19.7933 64.6599 22.3627 61.6627 22.3627C61.5688 22.3627 61.4778 22.3599 61.3867 22.3544C61.3729 22.3544 61.3619 22.3544 61.3481 22.3516C61.268 22.3489 61.188 22.3406 61.1107 22.3323C61.1079 22.3323 61.1052 22.3323 61.1024 22.3323C59.9184 22.2026 58.8117 21.6617 57.9313 20.7758C57.8955 20.7399 57.8568 20.704 57.8237 20.6654C57.821 20.6654 57.821 20.6626 57.8182 20.6626C57.7989 20.6433 57.7823 20.6212 57.763 20.5991C57.7216 20.555 57.6802 20.5081 57.6388 20.4611C57.6057 20.4253 57.5753 20.3839 57.5422 20.3452C57.5201 20.3149 57.4953 20.2845 57.4705 20.2542C57.4208 20.1934 57.3739 20.13 57.3297 20.0665C57.3242 20.0582 57.3187 20.0499 57.3131 20.0416C56.775 19.2882 56.4245 18.4188 56.292 17.4971C56.2782 17.4115 56.2699 17.3259 56.2616 17.2404C56.2589 17.2321 56.2589 17.2211 56.2561 17.21C56.2478 17.13 56.2423 17.0527 56.2396 16.9727C56.2368 16.9561 56.2368 16.9396 56.2368 16.9202C56.2313 16.8264 56.2285 16.7298 56.2285 16.6332C56.2285 16.5366 56.2313 16.44 56.2368 16.3462C56.2368 16.3269 56.2368 16.3103 56.2396 16.2938C56.2423 16.2137 56.2478 16.1337 56.2561 16.0564C56.2589 16.0454 56.2589 16.0343 56.2616 16.026C56.2699 15.9405 56.2782 15.8549 56.292 15.7694C56.4245 14.8476 56.775 13.9782 57.3131 13.2248C57.3159 13.2165 57.3214 13.2082 57.3269 13.2027C57.3739 13.1365 57.4208 13.073 57.4705 13.0095C57.4925 12.9819 57.5174 12.9543 57.5394 12.924C57.5726 12.8826 57.6057 12.8439 57.6388 12.8025C57.6774 12.7584 57.7161 12.717 57.7575 12.6728C57.7768 12.6507 57.7989 12.6259 57.8182 12.6038C57.821 12.6038 57.821 12.6011 57.8237 12.6011C57.8541 12.5652 57.89 12.5321 57.9231 12.4989C58.8035 11.6103 59.9129 11.0638 61.1024 10.9341C61.1052 10.9341 61.1079 10.9341 61.1107 10.9341C61.188 10.9258 61.268 10.9203 61.3481 10.9148C61.3619 10.9148 61.3729 10.912 61.3867 10.912C61.4778 10.9065 61.5688 10.9037 61.6627 10.9037ZM65.7528 16.1834C65.7528 16.1806 65.7528 16.1806 65.7528 16.1778C65.6562 15.1843 65.2477 14.2873 64.6378 13.5946C64.6102 13.5643 64.5854 13.5339 64.5578 13.5035C64.5412 13.487 64.5247 13.4704 64.5081 13.4539C64.475 13.4207 64.4446 13.3876 64.4115 13.3545C64.3811 13.3241 64.348 13.2965 64.3177 13.2689C64.2983 13.2524 64.2818 13.2331 64.2625 13.2165C64.2128 13.1724 64.1631 13.131 64.1134 13.0896C64.1134 13.0896 64.1107 13.0896 64.1107 13.0868C63.5339 12.6204 62.8411 12.314 62.096 12.2285C62.0877 12.2285 62.0822 12.2257 62.0767 12.2257C62.0187 12.2174 61.9635 12.2147 61.9055 12.2119C61.8917 12.2092 61.8807 12.2092 61.8697 12.2092C61.8007 12.2036 61.7317 12.2036 61.6627 12.2036C61.5937 12.2036 61.5247 12.2036 61.4557 12.2092C61.4447 12.2092 61.4336 12.2092 61.4198 12.2119C61.3619 12.2147 61.3067 12.2174 61.2487 12.2257C61.2432 12.2257 61.2377 12.2285 61.2294 12.2285C60.4842 12.314 59.7915 12.6204 59.2147 13.0868C59.2147 13.0896 59.2119 13.0896 59.2119 13.0896C59.1622 13.131 59.1126 13.1724 59.0629 13.2165C59.0436 13.2331 59.027 13.2496 59.0077 13.2662C58.9773 13.2965 58.9442 13.3241 58.9139 13.3545C58.8835 13.3849 58.8531 13.418 58.82 13.4511C58.8035 13.4677 58.7869 13.4842 58.7676 13.5035C58.7427 13.5311 58.7179 13.5615 58.6903 13.5919C58.0804 14.2846 57.6692 15.1843 57.5726 16.1778C57.5726 16.1806 57.5726 16.1806 57.5726 16.1834C57.567 16.2468 57.5615 16.3103 57.5588 16.3765C57.5588 16.3876 57.556 16.3986 57.556 16.4097C57.5532 16.4842 57.5505 16.5587 57.5505 16.6332C57.5505 19.0591 59.4162 21.0407 61.6627 21.0407C63.9092 21.0407 65.7749 19.0591 65.7749 16.6332C65.7749 16.5587 65.7721 16.4842 65.7694 16.4097C65.7694 16.3986 65.7666 16.3876 65.7666 16.3765C65.7638 16.3103 65.7583 16.2468 65.7528 16.1834Z" fill="white"/>
    <path d="M83.0692 11.1874C83.0637 11.1819 83.0609 11.1764 83.0554 11.1709C82.9891 11.0881 82.9008 11.0219 82.8015 10.9805C82.8015 10.9805 82.8015 10.9805 82.7987 10.9805C82.7877 10.9722 82.7739 10.9694 82.7628 10.9639C82.7573 10.9639 82.7518 10.9611 82.7435 10.9584C82.6552 10.928 82.5586 10.9225 82.4648 10.9363H82.462C82.2716 10.9667 82.0894 11.0826 81.9873 11.2537C81.9873 11.2537 81.9873 11.2537 81.9845 11.2537C81.9707 11.2813 81.9542 11.3089 81.9432 11.3365L81.9404 11.3392V11.342L78.7776 19.9997L76.2937 14.0881C76.2689 14.0329 76.2358 13.9832 76.1971 13.9363C76.0619 13.779 75.8549 13.6796 75.6424 13.6796C75.6093 13.6796 75.5789 13.6796 75.5458 13.6879C75.543 13.6879 75.5403 13.6879 75.5348 13.6879C75.314 13.7265 75.107 13.8811 75.0131 14.0881C75.0131 14.0908 75.0131 14.0908 75.0131 14.0908L72.5293 20.0024L71.326 16.732L69.3444 11.342C69.3333 11.3116 69.3223 11.2868 69.3085 11.2592C69.3058 11.2564 69.3058 11.2564 69.303 11.2537C69.2423 11.1405 69.1457 11.0522 69.0298 10.997C69.0298 10.997 69.027 10.997 69.027 10.9943C68.969 10.9694 68.9083 10.9501 68.8449 10.9391C68.8393 10.9391 68.8366 10.9391 68.8311 10.9363C68.8007 10.9335 68.7676 10.9308 68.7372 10.9308H68.7345C68.7262 10.9308 68.7207 10.9308 68.7151 10.9308C68.7013 10.9308 68.6875 10.9308 68.6737 10.9335C68.6655 10.9335 68.6544 10.9363 68.6461 10.9363C68.6323 10.9391 68.6213 10.9391 68.6103 10.9418C68.602 10.9446 68.5937 10.9446 68.5854 10.9473C68.5716 10.9501 68.5578 10.9529 68.544 10.9584C68.5385 10.9611 68.533 10.9611 68.5275 10.9639C68.5137 10.9694 68.4999 10.9722 68.4861 10.9805C68.4861 10.9805 68.4861 10.9805 68.4833 10.9805C68.3702 11.0301 68.2791 11.1157 68.2128 11.215C68.2101 11.2206 68.2073 11.2233 68.2046 11.2288C68.2018 11.2344 68.199 11.2399 68.1963 11.2454C68.1466 11.3282 68.1163 11.4248 68.1052 11.5214C68.0942 11.6235 68.108 11.7311 68.1494 11.8305L70.4428 17.9933L71.9138 21.9454C71.9138 21.9454 71.9138 21.9454 71.9138 21.9481C71.9745 22.0972 72.0629 22.1993 72.1843 22.2545C72.187 22.2572 72.1926 22.26 72.1953 22.2628C72.1981 22.2655 72.2008 22.2683 72.2064 22.271C72.2064 22.2738 72.2091 22.2738 72.2119 22.2766C72.2174 22.2793 72.2202 22.2821 72.2257 22.2876C72.2284 22.2876 72.2284 22.2876 72.2312 22.2876C72.2533 22.3014 72.2809 22.3124 72.3168 22.3152C72.3195 22.3152 72.3223 22.318 72.325 22.318C72.3361 22.3207 72.3471 22.3262 72.3582 22.329C72.3637 22.329 72.3692 22.3318 72.3747 22.3318C72.4437 22.3538 72.4879 22.3621 72.5431 22.3621C72.5734 22.3621 72.601 22.3594 72.6314 22.3538C72.6535 22.3511 72.6783 22.3456 72.7004 22.3373C72.7059 22.3345 72.7114 22.3345 72.7169 22.3318C72.739 22.3262 72.7611 22.318 72.7832 22.3069C72.7915 22.3042 72.7997 22.3014 72.808 22.2959C72.8218 22.2876 72.8384 22.2793 72.8549 22.271C72.866 22.2628 72.8798 22.2545 72.8936 22.2462C72.9018 22.2407 72.9101 22.2324 72.9184 22.2269C72.9377 22.2131 72.9543 22.1993 72.9736 22.1827C72.9764 22.18 72.9791 22.1772 72.9819 22.1717C73.0012 22.1524 73.0205 22.133 73.0398 22.111C73.0398 22.1082 73.0426 22.1054 73.0454 22.1027C73.0619 22.0806 73.0785 22.0558 73.0923 22.0309C73.1061 22.0033 73.1199 21.973 73.1309 21.9426L73.1337 21.9343L73.142 21.9233L73.1502 21.904L75.6424 15.9537L78.1566 21.9261C78.1759 21.9868 78.2063 22.042 78.2477 22.0944C78.2532 22.1027 78.2587 22.1082 78.2643 22.1165C78.2781 22.133 78.2919 22.1496 78.3084 22.1662C78.3167 22.1717 78.325 22.18 78.3333 22.1855C78.3471 22.1993 78.3636 22.2131 78.3802 22.2269C78.3885 22.2324 78.394 22.2379 78.4022 22.2407C78.4216 22.2545 78.4409 22.2683 78.4602 22.2793C78.4657 22.2821 78.4712 22.2848 78.4768 22.2876C78.4988 22.2986 78.5182 22.3097 78.543 22.318C78.5485 22.3207 78.554 22.3235 78.5623 22.3235C78.5816 22.3318 78.601 22.34 78.623 22.3456C78.6506 22.3511 78.6782 22.3566 78.7031 22.3621H78.7859C78.819 22.3621 78.8493 22.3594 78.8797 22.3538C78.888 22.3538 78.8935 22.3538 78.9018 22.3511C78.9294 22.3456 78.9542 22.34 78.9791 22.3318C78.9873 22.329 78.9929 22.3262 78.9984 22.3235C79.026 22.3152 79.0536 22.3014 79.0784 22.2876C79.0812 22.2876 79.0839 22.2848 79.0867 22.2848C79.1171 22.2655 79.1474 22.2462 79.1723 22.2269C79.2826 22.1441 79.3627 22.0365 79.4179 21.904V21.9012L80.9717 17.7173L83.1575 11.8305C83.243 11.6235 83.2099 11.3972 83.0913 11.2206C83.0857 11.2095 83.0775 11.1985 83.0692 11.1874Z" fill="white"/>
    <path d="M118.166 11.3744C118.166 11.3634 118.163 11.3496 118.161 11.3385C118.161 11.3303 118.158 11.322 118.155 11.3137C118.152 11.2999 118.15 11.2861 118.147 11.2751C118.144 11.2668 118.141 11.2585 118.139 11.253C118.136 11.2364 118.13 11.2226 118.122 11.2088C118.122 11.2033 118.119 11.2006 118.117 11.195C118.108 11.1757 118.1 11.1592 118.089 11.1426C118.089 11.1398 118.089 11.1398 118.089 11.1398C118.056 11.0819 118.014 11.0322 117.968 10.988C117.965 10.9853 117.965 10.9853 117.965 10.9853C117.962 10.9825 117.962 10.9825 117.962 10.9825C117.727 10.7479 117.396 10.7176 117.137 10.8997C117.129 10.9052 117.123 10.9108 117.115 10.9135C117.104 10.9218 117.093 10.9301 117.082 10.9384C117.065 10.9549 117.048 10.9687 117.032 10.9853C117.032 10.9853 117.029 10.9853 117.029 10.988L110.563 17.2916V6.7489C110.563 6.72682 110.563 6.70474 110.56 6.68266C110.535 6.4398 110.372 6.23833 110.152 6.14449C110.149 6.14449 110.149 6.14173 110.146 6.14173C110.132 6.13621 110.118 6.13069 110.105 6.12793C110.099 6.12517 110.091 6.12241 110.083 6.11965C110.072 6.11689 110.061 6.11413 110.047 6.11137C110.038 6.10861 110.027 6.10585 110.016 6.10309C110.005 6.10033 109.992 6.09757 109.98 6.09757C109.969 6.09481 109.961 6.09481 109.95 6.09205C109.925 6.08929 109.903 6.08929 109.881 6.08929C109.52 6.08929 109.219 6.39012 109.219 6.7489V21.7018C109.219 22.0634 109.52 22.3642 109.881 22.3642C109.903 22.3642 109.928 22.3642 109.95 22.3614C109.953 22.3614 109.956 22.3587 109.961 22.3587C109.98 22.3559 110 22.3559 110.016 22.3504C110.022 22.3504 110.027 22.3476 110.033 22.3476C110.049 22.3421 110.066 22.3393 110.083 22.3338C110.085 22.3338 110.088 22.3311 110.091 22.3311C110.345 22.251 110.532 22.033 110.56 21.7708C110.563 21.7487 110.563 21.7267 110.563 21.7018V19.1793L112.74 17.0045L116.971 22.1103C116.999 22.1544 117.029 22.1931 117.068 22.2234C117.076 22.2317 117.082 22.2372 117.09 22.2428C117.101 22.251 117.112 22.2593 117.123 22.2648C117.137 22.2759 117.151 22.2814 117.164 22.2897C117.17 22.2924 117.178 22.2979 117.184 22.3007C117.203 22.309 117.22 22.3145 117.239 22.3228C117.244 22.3255 117.25 22.3255 117.253 22.3283C117.275 22.3338 117.294 22.3393 117.316 22.3449C117.319 22.3449 117.324 22.3476 117.33 22.3476C117.352 22.3531 117.371 22.3559 117.396 22.3587C117.402 22.3587 117.407 22.3587 117.413 22.3614C117.44 22.3614 117.468 22.3642 117.498 22.3642C117.542 22.3642 117.584 22.3614 117.623 22.3559C117.625 22.3559 117.625 22.3559 117.625 22.3559C117.703 22.3449 117.774 22.32 117.841 22.2869C117.843 22.2869 117.843 22.2842 117.843 22.2842C117.874 22.2676 117.904 22.2483 117.934 22.2262L117.943 22.2179C118.194 21.9668 118.232 21.6245 118.05 21.3403C118.034 21.3154 118.017 21.2906 117.998 21.2658L113.701 16.0469L117.968 11.9236C118.081 11.8077 118.15 11.667 118.166 11.5152C118.166 11.5124 118.166 11.5097 118.169 11.5069C118.169 11.4931 118.169 11.4765 118.169 11.4627C118.169 11.4545 118.172 11.4462 118.172 11.4407C118.172 11.4351 118.172 11.4324 118.172 11.4296C118.172 11.4186 118.169 11.4103 118.169 11.3993C118.169 11.391 118.166 11.3827 118.166 11.3744Z" fill="white"/>
  </g>
  </g>
  <defs>
    <clipPath id="clip0_676_16434">
      <rect width="130" height="31.0871" fill="white" transform="translate(0 0.956482)"/>
    </clipPath>
  </defs>
</svg> -->

<svg xmlns="http://www.w3.org/2000/svg" width="130" height="70" viewBox="-7 29 130 30" fill="#29b5e8">
  <path d="M81.492 28.285l-.084-.1v.1zm-.084-1l.084-.088h-.084zm-8.548 3.887l-.03.075.045.114.047-.114-.033-.08h-.028zm9.56-2.897v-.1l-.084.1zm0-.98v-.088h-.084zm-11.957 7.52l.025.001.023-.057.01-.03-.043-.12-.048.12zm4.82 0l.024-.001.006-.015.026-.074-.05-.12-.042.12zm26.885-3.37l-.05-.063-.006.12zm-2.416 2.502V33.9l-.025.063zm1.628-1.813l-.006.006.055.068.06-.063-.005-.006zm-1.713.466h.026l.06-.06v-.123l-.085.086zm-18.175-4.325v-.1h-.084z" />
  <path d="M75.297 34.845l.01-.033-.024.001zm-4.8-.03l-.025-.001.01.033zm11.933-7.52l-.084-.088v.088zm18.955 4.844l.004-.004zm.004-.004l.103.005-.05-.06zm-1.696.485l-.026-.01v.037zm-17.357-4.335l.084-.1h-.084zm-.844-1v-.088l-.084.088zm18.2 5.326l.05-.05z" />
  <path d="M75.313 34.797l.027-.074zm31.855-3.653l.004-.017a3.41 3.41 0 0 1 3.285-2.827c1.616.046 2.97 1.232 3.233 2.827l.004.016.013.072h-6.552l.014-.07zm-.062 1.016l-.005-.083h7.1c.1.005.218-.036.298-.112s.125-.18.126-.292v-.055a4.19 4.19 0 0 0-6.467-3.526 4.19 4.19 0 0 0-1.905 3.838 4.35 4.35 0 0 0 4.172 4.473h.4a4.29 4.29 0 0 0 3.497-2.233.48.48 0 0 0-.142-.623c-.094-.058-.207-.075-.314-.048s-.198.098-.25.194c-.55 1.05-1.606 1.743-2.8 1.83h-.408a3.46 3.46 0 0 1-3.322-3.358l-.001-.005m-25.022-7.9c-.435.605-.637 1.346-.57 2.087v.958H80.35a.42.42 0 0 0-.306.12c-.082.08-.128.2-.128.303a.47.47 0 0 0 .434.48h1.142v7.784a.42.42 0 0 0 .64.389.42.42 0 0 0 .202-.389v-7.784h1.222a.46.46 0 0 0 .435-.479c.002-.115-.044-.225-.126-.305a.41.41 0 0 0-.3-.118h-1.222v-.958a2.43 2.43 0 0 1 .353-1.495 1.33 1.33 0 0 1 1.088-.339c.017 0 .034-.001.05-.004.02.003.038.004.057.004h.137a.45.45 0 0 0 .435-.451.45.45 0 0 0-.435-.451h-.137a.52.52 0 0 0-.055.003.49.49 0 0 0-.054-.003 2.14 2.14 0 0 0-1.712.648m-37.338 7.02c-1.02-.354-2.12-.62-2.12-1.485 0-1.096 1.3-1.547 1.996-1.547 1.708 0 2.076 1.4 2.554.974s-1.212-1.792-2.43-1.792c-.75-.032-1.5.17-2.12.576a1.99 1.99 0 0 0-.935 1.79c-.05 1.837 2.122 2.147 3.055 2.472s2.017.705 2.027 1.616c.012 1.26-1.484 1.65-2.155 1.65-1.914 0-2.43-1.123-2.8-.77s.104.794.986 1.226a4.62 4.62 0 0 0 1.805.424 3.41 3.41 0 0 0 2.155-.659 2.36 2.36 0 0 0 .935-1.87c0-1.686-1.458-2.08-2.96-2.603" />
  <path d="M92.753 35.524a3.45 3.45 0 0 1-3.25-3.612 3.27 3.27 0 1 1 6.499 0 3.44 3.44 0 0 1-3.249 3.612m3.25-6.343l-.047-.066-.03-.04a3.97 3.97 0 0 0-3.172-1.653c-2.368.116-4.198 2.122-4.098 4.5-.1 2.37 1.73 4.375 4.098 4.5 1.262-.023 2.44-.642 3.172-1.67l.032-.043.046-.064v1.337c-.006.155.074.3.207.38a.42.42 0 0 0 .433 0c.133-.08.213-.225.207-.38V27.86c.006-.155-.074-.3-.207-.38a.42.42 0 0 0-.433 0c-.133.08-.213.225-.207.38zm3.7 3.44l-.026.026v-8.634a.43.43 0 0 0-.652-.382c-.135.08-.217.225-.214.382v11.952a.43.43 0 0 0 .652.382c.135-.08.217-.225.214-.382V33.9l1.767-1.833.05.062.005.005 3.267 4.094c.073.113.202.177.336.165a.44.44 0 0 0 .282-.092c.178-.172.193-.452.035-.642l-3.355-4.235 3.337-3.352a.43.43 0 0 0 0-.623c-.075-.087-.185-.138-.3-.138s-.225.05-.3.138l-5.047 5.108zm-13.15-9.05a.44.44 0 0 0-.424.44v11.95a.43.43 0 0 0 .652.382c.135-.08.217-.226.214-.382V24c-.001-.243-.2-.44-.442-.44m-11.24 11.225l-.006.015-.01.033-.012-.032-.035-.088-1.947-4.8a.47.47 0 0 0-.424-.275c-.177.007-.334.113-.407.275l-1.995 4.93-.01-.033-2.514-7.1a.41.41 0 0 0-.548-.238.45.45 0 0 0-.21.568l2.896 8.085a.33.33 0 0 0 .176.202.09.09 0 0 0 .07.036.5.5 0 0 0 .159.036c.168-.01.314-.117.37-.274a.07.07 0 0 1 .017-.037l1.996-4.95 2.02 4.95a.46.46 0 0 0 .353.293h.053c.1.001.18-.032.248-.092s.127-.133.16-.22l2.88-8.048c.087-.22-.015-.47-.23-.568-.217-.085-.46.022-.547.238l-2.465 7zm-25.05-6.916c.01-.154-.068-.3-.2-.38s-.297-.08-.43 0a.41.41 0 0 0-.2.38v8.194c.01.01.016.022.018.036-.003.02.004.04.017.056a.47.47 0 0 0 .283.238h.105a.38.38 0 0 0 .32-.165.42.42 0 0 0 .088-.202v-4.95c-.002-1.497 1.188-2.724 2.684-2.768a2.72 2.72 0 0 1 2.667 2.767v4.875c-.006.155.074.3.207.38a.42.42 0 0 0 .433 0c.133-.08.213-.225.207-.38v-4.875c.03-1.976-1.54-3.605-3.515-3.648a3.46 3.46 0 0 0-2.684 1.302zm11.854 7.643a3.46 3.46 0 0 1-3.249-3.611 3.27 3.27 0 1 1 6.499 0 3.46 3.46 0 0 1-3.249 3.611m0-8.102a4.34 4.34 0 0 0-4.098 4.491c-.143 1.554.606 3.054 1.933 3.875s3.004.82 4.33 0 2.075-2.322 1.933-3.875a4.34 4.34 0 0 0-4.098-4.5M9.734 21.576l6.56 3.934c.748.45 1.708.324 2.315-.303a2.03 2.03 0 0 0 .62-1.467v-7.885a1.92 1.92 0 0 0-2.902-1.725 1.92 1.92 0 0 0-.938 1.725v4.487l-3.726-2.234a1.89 1.89 0 0 0-2.634.733c-.533.954-.222 2.158.706 2.735m15.77 3.924l6.56-3.934c.93-.577 1.24-1.782.706-2.736a1.89 1.89 0 0 0-2.633-.732l-3.677 2.204v-4.458a1.92 1.92 0 0 0-2.902-1.725 1.92 1.92 0 0 0-.938 1.725v7.73c-.04.414.047.83.25 1.194a1.89 1.89 0 0 0 2.634.733m-5.84 4.483a.57.57 0 0 1 .137-.343l.767-.798a.55.55 0 0 1 .332-.142h.03a.53.53 0 0 1 .331.142l.767.798a.57.57 0 0 1 .137.343v.03a.57.57 0 0 1-.137.345l-.767.796a.55.55 0 0 1-.33.143h-.03a.53.53 0 0 1-.332-.143l-.767-.796c-.083-.097-.13-.218-.137-.345zm-2.322-.328v.688a.78.78 0 0 0 .187.469l2.603 2.702a.72.72 0 0 0 .452.195h.662a.72.72 0 0 0 .452-.195l2.603-2.702c.113-.13.18-.296.187-.47v-.688a.78.78 0 0 0-.187-.47l-2.603-2.7a.72.72 0 0 0-.452-.195h-.662a.72.72 0 0 0-.452.195l-2.603 2.702c-.113.13-.18.296-.187.47M6.34 27.8l3.715 2.228-3.715 2.227c-.928.577-1.24 1.782-.706 2.736a1.89 1.89 0 0 0 2.634.732l6.56-3.934a2.09 2.09 0 0 0 0-3.522l-6.56-3.935a1.89 1.89 0 0 0-2.634.733c-.533.954-.222 2.158.706 2.735m19.668 2.226a2.02 2.02 0 0 0 .964 1.754l6.563 3.934a1.89 1.89 0 0 0 2.633-.732c.534-.954.223-2.16-.706-2.736l-3.715-2.227 3.715-2.228c.93-.576 1.24-1.78.706-2.735a1.89 1.89 0 0 0-2.633-.733l-6.563 3.935a2.02 2.02 0 0 0-.964 1.769M17.612 34.3c-.453-.088-.922-.004-1.317.234l-6.56 3.935c-.928.577-1.24 1.78-.706 2.735a1.89 1.89 0 0 0 2.634.732l3.726-2.234v4.453a1.92 1.92 0 0 0 2.902 1.725 1.92 1.92 0 0 0 .938-1.725V36.26a1.97 1.97 0 0 0-1.616-1.969m14.455 4.17l-6.56-3.934a1.89 1.89 0 0 0-2.634.732 2.06 2.06 0 0 0-.249 1.195v7.692a1.92 1.92 0 0 0 2.902 1.725 1.92 1.92 0 0 0 .938-1.725v-4.422l3.676 2.204a1.89 1.89 0 0 0 2.634-.733c.533-.954.222-2.158-.706-2.735" />
</svg>
