<!-- <svg width="131" height="35" viewBox="0 0 131 35" fill="none" xmlns="http://www.w3.org/2000/svg" xmlns:xlink="http://www.w3.org/1999/xlink">
<g opacity="0.5">
<mask id="mask0_676_16474" style="mask-type:alpha" maskUnits="userSpaceOnUse" x="8" y="0" width="114" height="29">
<rect x="8.93945" y="0.455994" width="112.125" height="27.6" fill="url(#pattern0)"/>
</mask>
<g mask="url(#mask0_676_16474)">
</g>
<path d="M41 17.293C39.9605 17.293 39.1152 17.5657 38.4671 18.1108C37.8191 18.6564 37.4903 19.3716 37.4903 20.2479C37.4903 20.702 37.572 21.1161 37.7328 21.4955C37.8937 21.8757 38.144 22.2279 38.4806 22.5462C38.8171 22.8647 39.4908 23.2974 40.4948 23.8476C41.7268 24.514 42.533 25.0549 42.9199 25.4772C43.3071 25.8992 43.4993 26.3414 43.4993 26.8025C43.4993 27.4198 43.27 27.9125 42.7987 28.2829C42.3266 28.6535 41.6952 28.8381 40.9125 28.8381C40.0868 28.8381 39.3676 28.5802 38.75 28.068C38.1324 27.5551 37.8207 26.8767 37.8137 26.0264H37.4297V29.1127H37.8137C37.9309 28.8205 38.0931 28.671 38.3054 28.671C38.4076 28.671 38.6468 28.7334 39.0195 28.8501C39.9262 29.1359 40.6707 29.2739 41.256 29.2739C42.2646 29.2739 43.1255 28.9609 43.8428 28.3247C44.5591 27.6889 44.9207 26.9219 44.9207 26.0264C44.9207 25.3321 44.6819 24.7144 44.2133 24.1759C43.7447 23.6368 42.8334 23.0097 41.4716 22.2895C40.2997 21.6656 39.539 21.1574 39.1879 20.7613C38.8363 20.3657 38.6557 19.9282 38.6557 19.448C38.6557 18.9286 38.871 18.5115 39.2957 18.2003C39.7204 17.889 40.2768 17.7347 40.9731 17.7347C41.7567 17.7347 42.4098 17.9408 42.9267 18.3556C43.443 18.771 43.7415 19.3468 43.8294 20.0867H44.2133V17.4124H43.8563C43.8126 17.5487 43.7722 17.6359 43.735 17.675C43.6989 17.7139 43.6294 17.7347 43.5262 17.7347C43.402 17.7347 43.1805 17.6884 42.866 17.5974C42.1924 17.3964 41.5713 17.293 41 17.293ZM53.5501 17.293C52.2834 17.293 51.1333 17.5575 50.0943 18.0869C49.0536 18.6153 48.2299 19.3491 47.622 20.2837C47.0144 21.2182 46.7126 22.2108 46.7126 23.2685C46.7126 24.6895 47.2375 25.9556 48.2957 27.0652C49.3544 28.1741 50.623 28.8651 52.095 29.1306C52.4316 29.286 52.9131 29.6872 53.5434 30.3365C54.2537 31.0692 54.8546 31.5977 55.3488 31.9124C55.8424 32.2273 56.3754 32.4581 56.9386 32.6109C57.5023 32.763 58.1118 32.8377 58.7709 32.8377C59.569 32.8377 60.2836 32.7148 60.9131 32.4616L60.7716 32.1512C60.4062 32.268 60.0166 32.3243 59.6062 32.3243C59.0492 32.3243 58.4863 32.1616 57.9221 31.8348C57.3587 31.5073 56.654 30.8823 55.8136 29.9604C55.4185 29.5186 55.1459 29.2399 54.9917 29.1306C56.6023 28.8519 57.9267 28.1602 58.9595 27.0532C59.9921 25.9467 60.5089 24.6838 60.5089 23.2685C60.5089 21.588 59.8342 20.1756 58.4947 19.0241C57.1541 17.8725 55.5056 17.293 53.5501 17.293ZM61.3847 17.293L61.4049 17.6571C62.2483 17.6571 62.7206 17.8773 62.8263 18.3197C62.8656 18.478 62.8837 18.7704 62.8869 19.1913L62.8802 27.2442C62.8732 27.8457 62.7764 28.2297 62.5905 28.3964C62.4043 28.5618 62.0896 28.6655 61.6339 28.7068L61.6137 29.0709H70.0209L70.2364 27.2442H69.8524C69.7428 27.7419 69.4914 28.0983 69.0912 28.3009C68.69 28.5048 67.9805 28.6053 66.9557 28.6053H66.1608C65.2388 28.6053 64.7052 28.3099 64.5643 27.7158C64.5352 27.5983 64.5252 27.4723 64.5239 27.3338L64.5576 19.1913C64.5573 18.5908 64.643 18.1884 64.8203 17.9914C64.9995 17.7951 65.3226 17.6853 65.7903 17.6571L65.7701 17.293H61.3847ZM53.6848 17.7347C55.1135 17.7347 56.28 18.2333 57.1811 19.239C58.0819 20.2451 58.5284 21.624 58.5284 23.37C58.5284 25.0245 58.0754 26.3493 57.1676 27.3457C56.2598 28.3419 55.0515 28.8381 53.5501 28.8381C52.1077 28.8381 50.938 28.3264 50.0404 27.298C49.1436 26.2695 48.6998 24.9343 48.6998 23.2924C48.6998 21.6051 49.149 20.2545 50.0539 19.245C50.9582 18.2366 52.1691 17.7347 53.6848 17.7347ZM73.0186 19.4659C72.8135 19.4659 72.6572 19.5273 72.5403 19.6509C72.4207 19.7742 72.384 19.9234 72.4258 20.1046C72.4662 20.2805 72.578 20.4345 72.7559 20.5643C72.9326 20.6939 73.1234 20.7613 73.3285 20.7613C73.5268 20.7613 73.6779 20.6939 73.7865 20.5643C73.8951 20.4345 73.9283 20.2805 73.8876 20.1046C73.8458 19.9234 73.7378 19.7742 73.571 19.6509C73.4023 19.5273 73.2169 19.4659 73.0186 19.4659ZM78.5627 20.7016C78.2143 21.8893 77.459 22.5321 76.2993 22.6357L76.3127 22.976H77.6668L77.6398 26.9995C77.642 27.6874 77.6657 28.1454 77.7207 28.3785C77.854 28.9365 78.2652 29.2202 78.9534 29.2202C79.9491 29.2202 80.9935 28.6827 82.0859 27.6084L81.7558 27.3577C80.9671 28.0652 80.2697 28.4202 79.6608 28.4202C79.2865 28.4202 79.0545 28.2295 78.9669 27.8531C78.9429 27.7617 78.9332 27.6549 78.9332 27.5308L78.9467 22.976H81.0148L80.9946 22.4328H78.9534V20.7016H78.5627ZM86.5589 22.2179C85.4021 22.2179 84.4612 22.7155 83.7296 23.7043C83.0018 24.6948 82.7765 25.7921 83.0627 26.9995C83.2311 27.7067 83.5666 28.2548 84.0799 28.6411C84.5924 29.0273 85.2426 29.2202 86.02 29.2202C86.7438 29.2202 87.7516 29.0578 88.1757 28.7307C88.6009 28.4037 88.9927 27.8741 89.3546 27.1487L89.0649 26.8801C88.4877 27.8211 87.3228 28.2949 86.4444 28.2949C85.2367 28.2949 84.497 27.7077 84.2214 26.5398C84.1855 26.3908 84.1589 26.2306 84.1405 26.0623C85.5773 25.8607 86.6662 25.5037 87.401 24.9877C88.1353 24.4715 88.8725 23.9242 88.7348 23.3461C88.6529 23.0026 88.4516 22.7325 88.142 22.5283C87.8284 22.3242 87.014 22.2179 86.5589 22.2179ZM73.9145 22.2597L71.422 22.7671V23.1611L72.2843 23.0655C72.702 23.0655 72.9477 23.2331 73.0253 23.567C73.0515 23.6787 73.0679 23.8356 73.0725 24.0326L73.0455 27.6442C73.0385 28.144 72.976 28.4345 72.8502 28.5217C72.7233 28.6091 72.3886 28.6531 71.8464 28.6531L71.833 28.9933H75.7873L75.7806 28.6531C75.2311 28.6531 74.8749 28.6146 74.7162 28.5396C74.5602 28.4651 74.4527 28.3295 74.4063 28.1218C74.3705 27.9721 74.3548 27.7141 74.3524 27.3577L74.3659 22.2597H73.9145ZM85.9257 22.9282C86.1663 22.9282 86.3989 23.0106 86.633 23.173C86.864 23.3348 87.0046 23.5148 87.0507 23.7103C87.2762 24.6704 86.3156 25.3342 84.154 25.7041C84.0923 25.004 84.2292 24.3684 84.5784 23.7938C84.9249 23.2198 85.3763 22.9282 85.9257 22.9282Z" fill="white"/>
<path d="M35.4157 3.50586H13.9654C12.5278 3.50586 11.3516 4.54838 11.3516 5.82229V26.7848C11.3516 28.0587 12.5278 29.101 13.9654 29.101H28.0931C27.9328 22.8718 30.3333 10.7828 35.4157 3.50586Z" fill="white"/>
<path d="M34.6397 4.18164H13.9687C12.9479 4.18164 12.1172 4.91757 12.1172 5.82232V25.2554C16.7987 23.6632 23.8251 22.2894 28.6835 22.3518C29.6598 17.8281 32.5291 8.96268 34.6397 4.18164Z" fill="url(#paint0_linear_676_16474)"/>
<path d="M40.42 2.81824C38.9509 1.65728 37.1722 2.12362 35.4167 3.50426C35.1561 3.70937 34.8961 3.93693 34.6374 4.18002C31.6343 7.00314 28.8467 12.2325 27.9807 16.2261C28.318 16.8324 28.5816 17.6061 28.7551 18.197C28.7996 18.3487 28.8397 18.491 28.8718 18.612C28.948 18.8986 28.989 19.0844 28.989 19.0844C28.989 19.0844 28.962 18.9941 28.8516 18.7102C28.8305 18.6557 28.8071 18.5963 28.7793 18.5263C28.7675 18.4974 28.7511 18.4623 28.733 18.4248C28.5371 18.0213 27.9952 17.1696 27.7567 16.7987C27.5528 17.3319 27.3725 17.8308 27.2216 18.282C27.9101 19.3983 28.3296 21.3113 28.3296 21.3113C28.3296 21.3113 28.2932 21.1873 28.1202 20.7546C27.9667 20.3719 27.2017 19.1842 27.0204 18.9065C26.7105 19.9206 26.5873 20.6052 26.6984 20.7719C26.914 21.0949 27.1194 21.6522 27.2997 22.2686C27.7072 23.657 27.9904 25.3474 27.9904 25.3474C27.9904 25.3474 27.9995 25.4594 28.0149 25.6318C27.9583 26.7978 27.9923 28.0067 28.0941 29.0994C28.2291 30.5459 28.4832 31.7885 28.8071 32.4536L29.027 32.3473C28.5514 31.0371 28.3582 29.32 28.4428 27.3398C28.5708 24.313 29.3568 20.6627 30.8092 16.8582C33.2629 11.115 36.6672 6.50695 39.783 4.30633C36.9432 6.57907 33.0996 13.9357 31.949 16.66C30.6607 19.7107 29.7478 22.5735 29.1975 25.3163C30.1469 22.7449 33.2163 21.6396 33.2163 21.6396C33.2163 21.6396 34.7217 19.9943 36.481 17.6438C35.4272 17.8568 33.6967 18.2214 33.1171 18.4373C32.2621 18.7551 32.0317 18.8635 32.0317 18.8635C32.0317 18.8635 34.8012 17.3689 37.1773 16.6922C40.4451 12.1315 44.0052 5.65235 40.42 2.81824Z" fill="#C8CDCF"/>
</g>
<defs>
<pattern id="pattern0" patternContentUnits="objectBoundingBox" width="1" height="1">
<use xlink:href="#image0_676_16474" transform="matrix(0.000739201 0 0 0.003003 -0.236614 0)"/>
</pattern>
<linearGradient id="paint0_linear_676_16474" x1="25.104" y1="4.6129" x2="25.104" y2="24.0835" gradientUnits="userSpaceOnUse">
<stop stop-color="white"/>
<stop offset="0.920245" stop-color="#C1C1C1"/>
</linearGradient> -->

<svg xmlns="http://www.w3.org/2000/svg" width="120" height="50" viewBox="0 1 24.576 12.291" preserveAspectRatio="xMidYMid">
  <defs>
    <linearGradient x1="5.586" y1="2.286" x2="5.586" y2="8.117" id="A" gradientUnits="userSpaceOnUse">
      <stop stop-color="#97d9f6" offset="0%" />
      <stop stop-color="#0f80cc" offset="92.024%" />
      <stop stop-color="#0f80cc" offset="100%" />
    </linearGradient>
  </defs>
  <path d="M10.215 5.674c-.276 0-.5.082-.672.245s-.26.378-.26.64c0 .136.022.26.064.374s.11.22.198.315.268.225.535.4c.327.2.54.362.644.488a.62.62 0 0 1 .154.397c0 .185-.06.332-.186.443s-.293.166-.5.166c-.22 0-.4-.077-.574-.23s-.247-.357-.25-.612h-.102v.924h.102c.03-.088.074-.132.13-.132.027 0 .09.02.2.054.24.086.438.127.594.127.268 0 .496-.094.687-.284a.94.94 0 0 0 .286-.688c0-.208-.063-.393-.188-.554s-.366-.35-.728-.565c-.31-.187-.513-.34-.606-.458a.62.62 0 0 1-.141-.393.46.46 0 0 1 .17-.374c.113-.093.26-.14.445-.14.208 0 .38.062.518.186a.78.78 0 0 1 .24.518h.102v-.8h-.095c-.012.04-.022.067-.032.08s-.028.018-.055.018c-.033 0-.092-.014-.175-.04-.18-.06-.344-.09-.495-.09zm3.33 0c-.336 0-.64.08-.917.238a1.75 1.75 0 0 0-.656.658 1.76 1.76 0 0 0-.241.894 1.71 1.71 0 0 0 .42 1.137c.28.332.618.54 1.008.62.09.047.217.167.384.36.19.22.348.378.48.472a1.44 1.44 0 0 0 .422.209 1.66 1.66 0 0 0 .486.068c.212 0 .4-.037.57-.113l-.038-.093c-.097.035-.2.052-.31.052-.148 0-.297-.05-.447-.147s-.337-.285-.56-.56l-.218-.248c.428-.083.78-.29 1.053-.622a1.73 1.73 0 0 0 .411-1.134 1.7 1.7 0 0 0-.535-1.271c-.356-.345-.793-.52-1.312-.52zm2.08 0l.005.11c.224 0 .35.066.377.198.01.047.015.135.016.26l-.002 2.412c-.002.18-.028.295-.077.345s-.133.08-.254.093l-.005.11h2.23l.057-.547h-.102c-.03.15-.096.256-.202.316s-.295.09-.567.09h-.21c-.245 0-.386-.088-.424-.266a.56.56 0 0 1-.011-.114l.01-2.44c0-.18.023-.3.07-.36s.133-.092.257-.1l-.005-.11zm-2.044.132a1.13 1.13 0 0 1 .928.451c.24.3.358.714.358 1.237 0 .496-.12.892-.36 1.19a1.17 1.17 0 0 1-.96.447 1.12 1.12 0 0 1-.932-.461c-.238-.308-.356-.708-.356-1.2 0-.505.12-.9.36-1.212s.56-.452.964-.452zm5.13.52c-.054 0-.096.018-.127.055a.15.15 0 0 0-.03.136.24.24 0 0 0 .088.138c.047.04.098.06.152.06s.093-.02.122-.06.038-.085.027-.138-.04-.1-.084-.136-.094-.055-.147-.055zm1.47.37c-.092.356-.293.548-.6.58l.004.102h.36L19.94 8.58l.02.413c.035.167.145.252.327.252.264 0 .54-.16.83-.483l-.088-.075c-.21.212-.394.318-.556.318-.1 0-.16-.057-.184-.17a.43.43 0 0 1-.009-.097l.004-1.364h.55l-.005-.163h-.542v-.518zm2.122.454c-.307 0-.557.15-.75.445s-.253.625-.177.987a.85.85 0 0 0 .27.492c.136.116.31.173.515.173.192 0 .46-.05.572-.147s.217-.257.313-.474l-.077-.08c-.153.282-.462.424-.696.424-.32 0-.517-.176-.6-.526a1.279 1.279 0 0 1-.021-.143c.38-.06.67-.167.865-.322s.39-.32.354-.492a.4.4 0 0 0-.157-.245c-.083-.06-.3-.093-.42-.093zm-3.356.013l-.662.152v.118l.23-.03c.11 0 .176.05.197.15a.81.81 0 0 1 .013.139l-.007 1.082c-.002.15-.018.237-.052.263s-.123.04-.266.04l-.004.102h1.05l-.002-.102c-.146 0-.24-.01-.282-.034s-.07-.063-.082-.125c-.01-.045-.014-.122-.014-.23l.004-1.527h-.12zm3.188.2c.064 0 .126.025.188.073s.1.102.11.16c.06.288-.195.486-.77.597-.016-.2.02-.4.113-.572s.212-.26.358-.26z" fill="#fff" />
  <path d="M8.324 1.954H2.63c-.382 0-.694.312-.694.694v6.28c0 .382.312.694.694.694h3.75c-.043-1.866.595-5.487 1.944-7.666z" fill="#0f80cc" />
  <path d="M8.117 2.156H2.63a.49.49 0 0 0-.491.491v5.82c1.243-.477 3.107-.888 4.397-.87.26-1.355 1.02-4 1.58-5.442z" fill="url(#A)" />
  <path d="M9.652 1.748c-.4-.348-.862-.208-1.328.205l-.207.202C7.32 3.002 6.58 4.568 6.35 5.764c.1.182.16.413.206.6l.03.124.03.14s-.007-.027-.036-.112l-.02-.055a.638.638 0 0 0-.012-.03c-.052-.12-.196-.376-.26-.487a12.165 12.165 0 0 0-.142.444c.183.334.294.907.294.907s-.01-.037-.056-.167c-.04-.115-.244-.47-.292-.554-.082.304-.115.51-.085.56.057.097.112.264.16.448a10.41 10.41 0 0 1 .183.922l.007.085A8.46 8.46 0 0 0 6.38 9.62c.036.433.103.805.19 1.005l.058-.032c-.126-.392-.178-.907-.155-1.5.034-.907.243-2 .628-3.14.65-1.72 1.555-3.1 2.382-3.76-.754.68-1.774 2.884-2.08 3.7-.342.914-.584 1.77-.73 2.593.252-.77 1.067-1.1 1.067-1.1s.4-.493.866-1.197l-.893.238-.288.128s.735-.448 1.366-.65c.867-1.366 1.812-3.307.86-4.155" fill="#003b57" />
</svg>
