<svg width="34" height="35" viewBox="0 0 34 35" fill="none" xmlns="http://www.w3.org/2000/svg">
<path d="M4.35938 31.9453C4.35938 31.5996 4.46484 31.3037 4.67578 31.0576C4.88672 30.8115 5.20605 30.6885 5.63379 30.6885C6.05566 30.6885 6.375 30.8115 6.5918 31.0576C6.81445 31.2979 6.92578 31.5938 6.92578 31.9453C6.92578 32.291 6.81445 32.5811 6.5918 32.8154C6.36914 33.0498 6.0498 33.167 5.63379 33.167C5.21191 33.167 4.89258 33.0498 4.67578 32.8154C4.46484 32.5752 4.35938 32.2852 4.35938 31.9453ZM15.1699 31.9453C15.1699 31.5996 15.2754 31.3037 15.4863 31.0576C15.6973 30.8115 16.0166 30.6885 16.4443 30.6885C16.8662 30.6885 17.1855 30.8115 17.4023 31.0576C17.625 31.2979 17.7363 31.5938 17.7363 31.9453C17.7363 32.291 17.625 32.5811 17.4023 32.8154C17.1797 33.0498 16.8604 33.167 16.4443 33.167C16.0225 33.167 15.7031 33.0498 15.4863 32.8154C15.2754 32.5752 15.1699 32.2852 15.1699 31.9453ZM25.9805 31.9453C25.9805 31.5996 26.0859 31.3037 26.2969 31.0576C26.5078 30.8115 26.8271 30.6885 27.2549 30.6885C27.6768 30.6885 27.9961 30.8115 28.2129 31.0576C28.4355 31.2979 28.5469 31.5938 28.5469 31.9453C28.5469 32.291 28.4355 32.5811 28.2129 32.8154C27.9902 33.0498 27.6709 33.167 27.2549 33.167C26.833 33.167 26.5137 33.0498 26.2969 32.8154C26.0859 32.5752 25.9805 32.2852 25.9805 31.9453Z" fill="white"/>
</svg>
